<svg xmlns="http://www.w3.org/2000/svg" viewBox="0 0 1200 800" width="1200" height="800">
  <defs>
    <linearGradient id="bgGrad" x1="0%" y1="0%" x2="100%" y2="100%">
      <stop offset="0%" style="stop-color:#0f172a"/>
      <stop offset="100%" style="stop-color:#1e293b"/>
    </linearGradient>
    <linearGradient id="accentGrad" x1="0%" y1="0%" x2="100%" y2="0%">
      <stop offset="0%" style="stop-color:#8b5cf6"/>
      <stop offset="100%" style="stop-color:#d946ef"/>
    </linearGradient>
    <style>
      .page-title { fill: #64748b; font-family: system-ui, sans-serif; font-size: 14px; font-weight: 600; letter-spacing: 1px; }
      .section-label { fill: #8b5cf6; font-family: monospace; font-size: 11px; }
      .heading { fill: #ffffff; font-family: system-ui, sans-serif; font-size: 14px; font-weight: bold; }
      .heading-lg { fill: #ffffff; font-family: system-ui, sans-serif; font-size: 18px; font-weight: bold; }
      .text-md { fill: #cbd5e1; font-family: system-ui, sans-serif; font-size: 12px; }
      .text-sm { fill: #94a3b8; font-family: system-ui, sans-serif; font-size: 10px; }
      .text-muted { fill: #64748b; font-family: system-ui, sans-serif; font-size: 10px; }
      .annotation { fill: #8b5cf6; font-family: monospace; font-size: 9px; }
    </style>
  </defs>

  <!-- Background -->
  <rect width="1200" height="800" fill="url(#bgGrad)"/>
  <g opacity="0.03">
    <pattern id="grid" width="40" height="40" patternUnits="userSpaceOnUse">
      <path d="M 40 0 L 0 0 0 40" fill="none" stroke="#fff" stroke-width="0.5"/>
    </pattern>
    <rect width="1200" height="800" fill="url(#grid)"/>
  </g>
  <rect x="0" y="0" width="1200" height="3" fill="url(#accentGrad)"/>

  <!-- Page Title -->
  <text x="600" y="28" text-anchor="middle" class="page-title">INTEGRATIONS - THIRD-PARTY SERVICES HUB</text>

  <!-- ==================== DESKTOP VIEW ==================== -->
  <text x="405" y="48" text-anchor="middle" class="section-label">DESKTOP</text>

  <!-- Desktop Browser Frame -->
  <rect x="30" y="55" width="750" height="520" rx="8" fill="#1e293b" stroke="#475569" stroke-width="1"/>
  <rect x="30" y="55" width="750" height="32" rx="8" fill="#334155"/>
  <circle cx="52" cy="71" r="6" fill="#ef4444" opacity="0.8"/>
  <circle cx="72" cy="71" r="6" fill="#eab308" opacity="0.8"/>
  <circle cx="92" cy="71" r="6" fill="#22c55e" opacity="0.8"/>
  <rect x="120" y="63" width="400" height="16" rx="4" fill="#1e293b"/>
  <text x="320" y="75" text-anchor="middle" class="text-muted">scripthammer.com/settings/integrations</text>

  <!-- Desktop Content -->
  <rect x="30" y="87" width="750" height="488" fill="#0f172a"/>

  <!-- Header -->
  <rect x="30" y="87" width="750" height="50" fill="#1e293b"/>
  <text x="50" y="118" class="heading-lg">Integrations</text>
  <rect x="680" y="100" width="80" height="28" rx="4" fill="url(#accentGrad)"/>
  <text x="720" y="119" text-anchor="middle" fill="#fff" font-size="11">+ Add New</text>

  <!-- Connected Services Section -->
  <text x="50" y="160" class="heading">Connected Services</text>

  <!-- Web3Forms Card - Connected -->
  <rect x="50" y="175" width="220" height="120" rx="6" fill="#1e293b" stroke="#22c55e" stroke-width="1"/>
  <rect x="60" y="185" width="40" height="40" rx="6" fill="#334155"/>
  <text x="80" y="212" text-anchor="middle" fill="#8b5cf6" font-size="16" font-weight="bold">W3</text>
  <text x="115" y="202" class="heading" font-size="12">Web3Forms</text>
  <rect x="195" y="188" width="60" height="18" rx="4" fill="#22c55e" opacity="0.2"/>
  <text x="225" y="200" text-anchor="middle" fill="#22c55e" font-size="9">Connected</text>
  <text x="60" y="250" class="text-sm">API Key: ***-2847</text>
  <text x="60" y="268" class="text-muted">Last sync: 2 min ago</text>
  <rect x="60" y="275" width="60" height="12" rx="2" fill="#334155"/>
  <rect x="60" y="275" width="55" height="12" rx="2" fill="#22c55e"/>
  <text x="190" y="286" class="text-muted">247 forms sent</text>

  <!-- Stripe Card - Connected -->
  <rect x="285" y="175" width="220" height="120" rx="6" fill="#1e293b" stroke="#22c55e" stroke-width="1"/>
  <rect x="295" y="185" width="40" height="40" rx="6" fill="#334155"/>
  <text x="315" y="212" text-anchor="middle" fill="#8b5cf6" font-size="16" font-weight="bold">S</text>
  <text x="350" y="202" class="heading" font-size="12">Stripe</text>
  <rect x="430" y="188" width="60" height="18" rx="4" fill="#22c55e" opacity="0.2"/>
  <text x="460" y="200" text-anchor="middle" fill="#22c55e" font-size="9">Connected</text>
  <text x="295" y="250" class="text-sm">Test Mode: Active</text>
  <text x="295" y="268" class="text-muted">Webhook verified</text>
  <rect x="295" y="275" width="60" height="12" rx="2" fill="#334155"/>
  <rect x="295" y="275" width="45" height="12" rx="2" fill="#8b5cf6"/>
  <text x="425" y="286" class="text-muted">89 transactions</text>

  <!-- Google Analytics Card - Connected -->
  <rect x="520" y="175" width="220" height="120" rx="6" fill="#1e293b" stroke="#22c55e" stroke-width="1"/>
  <rect x="530" y="185" width="40" height="40" rx="6" fill="#334155"/>
  <text x="550" y="212" text-anchor="middle" fill="#eab308" font-size="16" font-weight="bold">G</text>
  <text x="585" y="202" class="heading" font-size="12">Google Analytics</text>
  <rect x="665" y="188" width="60" height="18" rx="4" fill="#22c55e" opacity="0.2"/>
  <text x="695" y="200" text-anchor="middle" fill="#22c55e" font-size="9">Active</text>
  <text x="530" y="250" class="text-sm">ID: G-XXXXXXXX</text>
  <text x="530" y="268" class="text-muted">Consent mode enabled</text>
  <rect x="530" y="275" width="60" height="12" rx="2" fill="#334155"/>
  <rect x="530" y="275" width="60" height="12" rx="2" fill="#22c55e"/>
  <text x="660" y="286" class="text-muted">3.8k sessions</text>

  <!-- Available Integrations Section -->
  <text x="50" y="320" class="heading">Available Integrations</text>

  <!-- Calendly Card - Available -->
  <rect x="50" y="335" width="165" height="90" rx="6" fill="#1e293b" stroke="#475569" stroke-width="1"/>
  <rect x="60" y="345" width="32" height="32" rx="4" fill="#334155"/>
  <text x="76" y="367" text-anchor="middle" fill="#3b82f6" font-size="14" font-weight="bold">C</text>
  <text x="100" y="360" class="heading" font-size="11">Calendly</text>
  <text x="60" y="395" class="text-muted">Calendar scheduling</text>
  <rect x="115" y="405" width="85" height="16" rx="4" fill="#334155"/>
  <text x="157" y="417" text-anchor="middle" class="text-sm">Connect</text>

  <!-- Cal.com Card - Available -->
  <rect x="230" y="335" width="165" height="90" rx="6" fill="#1e293b" stroke="#475569" stroke-width="1"/>
  <rect x="240" y="345" width="32" height="32" rx="4" fill="#334155"/>
  <text x="256" y="367" text-anchor="middle" fill="#22c55e" font-size="14" font-weight="bold">.</text>
  <text x="280" y="360" class="heading" font-size="11">Cal.com</text>
  <text x="240" y="395" class="text-muted">Open-source booking</text>
  <rect x="295" y="405" width="85" height="16" rx="4" fill="#334155"/>
  <text x="337" y="417" text-anchor="middle" class="text-sm">Connect</text>

  <!-- Supabase Card - Available -->
  <rect x="410" y="335" width="165" height="90" rx="6" fill="#1e293b" stroke="#475569" stroke-width="1"/>
  <rect x="420" y="345" width="32" height="32" rx="4" fill="#334155"/>
  <text x="436" y="367" text-anchor="middle" fill="#22c55e" font-size="14" font-weight="bold">S</text>
  <text x="460" y="360" class="heading" font-size="11">Supabase</text>
  <text x="420" y="395" class="text-muted">Auth & Database</text>
  <rect x="475" y="405" width="85" height="16" rx="4" fill="#334155"/>
  <text x="517" y="417" text-anchor="middle" class="text-sm">Connect</text>

  <!-- Resend Card - Available -->
  <rect x="590" y="335" width="165" height="90" rx="6" fill="#1e293b" stroke="#475569" stroke-width="1"/>
  <rect x="600" y="345" width="32" height="32" rx="4" fill="#334155"/>
  <text x="616" y="367" text-anchor="middle" fill="#d946ef" font-size="14" font-weight="bold">R</text>
  <text x="640" y="360" class="heading" font-size="11">Resend</text>
  <text x="600" y="395" class="text-muted">Email API</text>
  <rect x="655" y="405" width="85" height="16" rx="4" fill="#334155"/>
  <text x="697" y="417" text-anchor="middle" class="text-sm">Connect</text>

  <!-- API Keys Section -->
  <text x="50" y="455" class="heading">API Keys & Webhooks</text>
  <rect x="50" y="470" width="705" height="90" rx="6" fill="#1e293b" stroke="#475569"/>

  <!-- API Keys Table Header -->
  <text x="65" y="492" class="text-muted">SERVICE</text>
  <text x="200" y="492" class="text-muted">KEY</text>
  <text x="450" y="492" class="text-muted">STATUS</text>
  <text x="550" y="492" class="text-muted">LAST USED</text>
  <text x="680" y="492" class="text-muted">ACTIONS</text>

  <!-- Web3Forms Row -->
  <text x="65" y="515" class="text-sm">Web3Forms</text>
  <text x="200" y="515" class="text-sm" fill="#64748b">pk_live_***2847</text>
  <circle cx="460" cy="512" r="4" fill="#22c55e"/>
  <text x="475" y="515" class="text-sm" fill="#22c55e">Active</text>
  <text x="550" y="515" class="text-muted">2m ago</text>
  <text x="680" y="515" fill="#8b5cf6" font-size="10">Regenerate</text>

  <!-- Stripe Row -->
  <text x="65" y="540" class="text-sm">Stripe</text>
  <text x="200" y="540" class="text-sm" fill="#64748b">sk_test_***F4kE</text>
  <circle cx="460" cy="537" r="4" fill="#eab308"/>
  <text x="475" y="540" class="text-sm" fill="#eab308">Test Mode</text>
  <text x="550" y="540" class="text-muted">1h ago</text>
  <text x="680" y="540" fill="#8b5cf6" font-size="10">Regenerate</text>

  <!-- ==================== MOBILE VIEW ==================== -->
  <text x="917" y="48" text-anchor="middle" class="section-label">MOBILE</text>

  <!-- Phone Frame -->
  <rect x="820" y="55" width="195" height="422" rx="24" fill="#0f172a" stroke="#475569" stroke-width="2"/>
  <rect x="875" y="55" width="85" height="20" rx="10" fill="#0f172a"/>
  <rect x="826" y="61" width="183" height="410" rx="20" fill="#1e293b"/>

  <!-- Status Bar -->
  <text x="846" y="80" class="text-muted" font-size="9">9:41</text>
  <g transform="translate(970, 72)">
    <rect x="0" y="0" width="18" height="9" rx="2" stroke="#64748b" stroke-width="1" fill="none"/>
    <rect x="2" y="2" width="12" height="5" rx="1" fill="#64748b"/>
  </g>

  <!-- Mobile Header -->
  <rect x="826" y="90" width="183" height="40" fill="#0f172a"/>
  <text x="846" y="115" class="heading" font-size="12">Integrations</text>
  <rect x="960" y="100" width="30" height="20" rx="4" fill="url(#accentGrad)"/>
  <text x="975" y="114" text-anchor="middle" fill="#fff" font-size="10">+</text>

  <!-- Mobile Connected Section -->
  <text x="846" y="150" class="text-sm" font-weight="bold">Connected (3)</text>

  <!-- Web3Forms Mini Card -->
  <rect x="836" y="160" width="163" height="45" rx="4" fill="#0f172a" stroke="#22c55e"/>
  <rect x="846" y="170" width="26" height="26" rx="4" fill="#334155"/>
  <text x="859" y="188" text-anchor="middle" fill="#8b5cf6" font-size="10" font-weight="bold">W3</text>
  <text x="880" y="180" class="text-sm" font-weight="bold">Web3Forms</text>
  <circle cx="882" cy="192" r="3" fill="#22c55e"/>
  <text x="892" y="195" fill="#22c55e" font-size="8">Connected</text>

  <!-- Stripe Mini Card -->
  <rect x="836" y="210" width="163" height="45" rx="4" fill="#0f172a" stroke="#22c55e"/>
  <rect x="846" y="220" width="26" height="26" rx="4" fill="#334155"/>
  <text x="859" y="238" text-anchor="middle" fill="#8b5cf6" font-size="10" font-weight="bold">S</text>
  <text x="880" y="230" class="text-sm" font-weight="bold">Stripe</text>
  <circle cx="882" cy="242" r="3" fill="#eab308"/>
  <text x="892" y="245" fill="#eab308" font-size="8">Test Mode</text>

  <!-- GA Mini Card -->
  <rect x="836" y="260" width="163" height="45" rx="4" fill="#0f172a" stroke="#22c55e"/>
  <rect x="846" y="270" width="26" height="26" rx="4" fill="#334155"/>
  <text x="859" y="288" text-anchor="middle" fill="#eab308" font-size="10" font-weight="bold">G</text>
  <text x="880" y="280" class="text-sm" font-weight="bold">Analytics</text>
  <circle cx="882" cy="292" r="3" fill="#22c55e"/>
  <text x="892" y="295" fill="#22c55e" font-size="8">Active</text>

  <!-- Mobile Available Section -->
  <text x="846" y="328" class="text-sm" font-weight="bold">Available</text>

  <rect x="836" y="338" width="78" height="55" rx="4" fill="#0f172a"/>
  <text x="875" y="365" text-anchor="middle" fill="#3b82f6" font-size="16" font-weight="bold">C</text>
  <text x="875" y="383" text-anchor="middle" class="text-muted" font-size="8">Calendly</text>

  <rect x="920" y="338" width="78" height="55" rx="4" fill="#0f172a"/>
  <text x="959" y="365" text-anchor="middle" fill="#22c55e" font-size="16" font-weight="bold">.</text>
  <text x="959" y="383" text-anchor="middle" class="text-muted" font-size="8">Cal.com</text>

  <rect x="836" y="400" width="78" height="55" rx="4" fill="#0f172a"/>
  <text x="875" y="427" text-anchor="middle" fill="#22c55e" font-size="16" font-weight="bold">S</text>
  <text x="875" y="445" text-anchor="middle" class="text-muted" font-size="8">Supabase</text>

  <rect x="920" y="400" width="78" height="55" rx="4" fill="#0f172a"/>
  <text x="959" y="427" text-anchor="middle" fill="#d946ef" font-size="16" font-weight="bold">R</text>
  <text x="959" y="445" text-anchor="middle" class="text-muted" font-size="8">Resend</text>

  <!-- Phone Home Indicator -->
  <rect x="880" y="458" width="75" height="4" rx="2" fill="#475569"/>

  <!-- ==================== ANNOTATIONS ==================== -->
  <text x="30" y="590" class="section-label">SPECIFICATIONS</text>

  <rect x="30" y="600" width="275" height="80" rx="4" fill="#8b5cf6" opacity="0.08" stroke="#8b5cf6" stroke-width="1" stroke-dasharray="4"/>
  <text x="42" y="618" class="annotation">FR-001: Web3Forms REST API submission</text>
  <text x="42" y="632" class="annotation">FR-002: Form validation with Zod schema</text>
  <text x="42" y="646" class="annotation">FR-003: react-hook-form integration</text>
  <text x="42" y="660" class="annotation">FR-004: Error handling and user feedback</text>
  <text x="42" y="674" class="annotation">FR-005: Sanitized data before submission</text>

  <rect x="320" y="600" width="275" height="80" rx="4" fill="#8b5cf6" opacity="0.08" stroke="#8b5cf6" stroke-width="1" stroke-dasharray="4"/>
  <text x="332" y="618" class="annotation">FR-006: API key stored in env variable</text>
  <text x="332" y="632" class="annotation">FR-007: Test mode vs production toggle</text>
  <text x="332" y="646" class="annotation">FR-008: Webhook signature verification</text>
  <text x="332" y="660" class="annotation">FR-009: Rate limiting on form submission</text>
  <text x="332" y="674" class="annotation">FR-010: Honeypot spam prevention</text>

  <rect x="610" y="600" width="275" height="80" rx="4" fill="#8b5cf6" opacity="0.08" stroke="#8b5cf6" stroke-width="1" stroke-dasharray="4"/>
  <text x="622" y="618" class="annotation">FR-011: Offline queue for failed submits</text>
  <text x="622" y="632" class="annotation">FR-012: Retry logic for network errors</text>
  <text x="622" y="646" class="annotation">FR-013: Service connection status check</text>
  <text x="622" y="660" class="annotation">FR-014: API key regeneration</text>
  <text x="622" y="674" class="annotation">FR-015: Integration audit logging</text>

  <rect x="900" y="600" width="275" height="80" rx="4" fill="#8b5cf6" opacity="0.08" stroke="#8b5cf6" stroke-width="1" stroke-dasharray="4"/>
  <text x="912" y="618" class="annotation">NFR-001: Form interactive within 100ms</text>
  <text x="912" y="632" class="annotation">NFR-002: API response &lt; 3 seconds</text>
  <text x="912" y="646" class="annotation">NFR-003: Bundle size impact &lt; 5KB</text>
  <text x="912" y="660" class="annotation">SC-001: WCAG AA compliance (96%)</text>
  <text x="912" y="674" class="annotation">SC-002: All tests passing (98%)</text>

</svg>
