<svg xmlns="http://www.w3.org/2000/svg" viewBox="0 0 1200 800" width="1200" height="800">
  <defs>
    <linearGradient id="bgGrad" x1="0%" y1="0%" x2="100%" y2="100%">
      <stop offset="0%" style="stop-color:#0f172a"/>
      <stop offset="100%" style="stop-color:#1e293b"/>
    </linearGradient>
    <linearGradient id="accentGrad" x1="0%" y1="0%" x2="100%" y2="0%">
      <stop offset="0%" style="stop-color:#8b5cf6"/>
      <stop offset="100%" style="stop-color:#d946ef"/>
    </linearGradient>
    <style>
      .page-title { fill: #64748b; font-family: system-ui, sans-serif; font-size: 14px; font-weight: 600; letter-spacing: 1px; }
      .section-label { fill: #8b5cf6; font-family: monospace; font-size: 11px; }
      .heading { fill: #ffffff; font-family: system-ui, sans-serif; font-size: 14px; font-weight: bold; }
      .heading-lg { fill: #ffffff; font-family: system-ui, sans-serif; font-size: 18px; font-weight: bold; }
      .text-md { fill: #cbd5e1; font-family: system-ui, sans-serif; font-size: 12px; }
      .text-sm { fill: #94a3b8; font-family: system-ui, sans-serif; font-size: 10px; }
      .text-muted { fill: #64748b; font-family: system-ui, sans-serif; font-size: 10px; }
      .annotation { fill: #8b5cf6; font-family: monospace; font-size: 9px; }
    </style>
  </defs>

  <!-- Background -->
  <rect width="1200" height="800" fill="url(#bgGrad)"/>
  <g opacity="0.03">
    <pattern id="grid" width="40" height="40" patternUnits="userSpaceOnUse">
      <path d="M 40 0 L 0 0 0 40" fill="none" stroke="#fff" stroke-width="0.5"/>
    </pattern>
    <rect width="1200" height="800" fill="url(#grid)"/>
  </g>
  <rect x="0" y="0" width="1200" height="3" fill="url(#accentGrad)"/>

  <!-- Page Title -->
  <text x="600" y="28" text-anchor="middle" class="page-title">BLOG CONTENT - POST EDITOR</text>

  <!-- ==================== DESKTOP VIEW ==================== -->
  <text x="405" y="48" text-anchor="middle" class="section-label">DESKTOP</text>

  <!-- Desktop Browser Frame -->
  <rect x="30" y="55" width="750" height="520" rx="8" fill="#1e293b" stroke="#475569" stroke-width="1"/>
  <rect x="30" y="55" width="750" height="32" rx="8" fill="#334155"/>
  <circle cx="52" cy="71" r="6" fill="#ef4444" opacity="0.8"/>
  <circle cx="72" cy="71" r="6" fill="#eab308" opacity="0.8"/>
  <circle cx="92" cy="71" r="6" fill="#22c55e" opacity="0.8"/>
  <rect x="120" y="63" width="400" height="16" rx="4" fill="#1e293b"/>
  <text x="320" y="75" text-anchor="middle" class="text-muted">scripthammer.com/blog/edit/new-post</text>

  <!-- Desktop Content -->
  <rect x="30" y="87" width="750" height="488" fill="#0f172a"/>

  <!-- Header Bar -->
  <rect x="30" y="87" width="750" height="50" fill="#1e293b"/>
  <text x="60" y="118" fill="#94a3b8" font-size="14">←</text>
  <text x="85" y="118" class="heading">Edit Post</text>

  <!-- Sync Status -->
  <circle cx="180" cy="112" r="6" fill="#22c55e"/>
  <text x="195" y="116" class="text-sm" fill="#22c55e">Saved</text>

  <!-- Action Buttons -->
  <rect x="530" y="100" width="80" height="28" rx="4" fill="#334155" stroke="#475569"/>
  <text x="570" y="118" text-anchor="middle" class="text-md">Preview</text>
  <rect x="620" y="100" width="60" height="28" rx="4" fill="#334155" stroke="#475569"/>
  <text x="650" y="118" text-anchor="middle" class="text-md">Draft</text>
  <rect x="690" y="100" width="70" height="28" rx="4" fill="url(#accentGrad)"/>
  <text x="725" y="118" text-anchor="middle" fill="#fff" class="text-md">Publish</text>

  <!-- Split View: Editor + Preview -->
  <!-- Markdown Editor Panel -->
  <rect x="45" y="145" width="360" height="350" rx="6" fill="#1e293b" stroke="#475569"/>
  <rect x="45" y="145" width="360" height="30" rx="6" fill="#334155"/>
  <text x="60" y="165" class="text-sm">Markdown</text>

  <!-- Toolbar -->
  <text x="180" y="165" class="text-muted">B I H1 H2 &lt;/&gt; 🔗 📷</text>

  <!-- Editor Content -->
  <text x="60" y="195" fill="#8b5cf6" font-family="monospace" font-size="10">---</text>
  <text x="60" y="210" fill="#0891b2" font-family="monospace" font-size="10">title: "Building with React 19"</text>
  <text x="60" y="225" fill="#0891b2" font-family="monospace" font-size="10">author: "John Doe"</text>
  <text x="60" y="240" fill="#0891b2" font-family="monospace" font-size="10">date: "2025-01-15"</text>
  <text x="60" y="255" fill="#0891b2" font-family="monospace" font-size="10">showToc: true</text>
  <text x="60" y="270" fill="#0891b2" font-family="monospace" font-size="10">tags: ["react", "javascript"]</text>
  <text x="60" y="285" fill="#8b5cf6" font-family="monospace" font-size="10">---</text>
  <text x="60" y="310" fill="#d946ef" font-family="monospace" font-size="10"># Introduction</text>
  <text x="60" y="330" class="text-sm" font-family="monospace">React 19 brings exciting new</text>
  <text x="60" y="345" class="text-sm" font-family="monospace">features for building modern...</text>
  <text x="60" y="375" fill="#d946ef" font-family="monospace" font-size="10">## Server Components</text>
  <text x="60" y="395" class="text-sm" font-family="monospace">With server components, you can</text>
  <text x="60" y="410" class="text-sm" font-family="monospace">render components on the server...</text>
  <text x="60" y="440" fill="#0891b2" font-family="monospace" font-size="10">```javascript</text>
  <text x="60" y="455" fill="#22c55e" font-family="monospace" font-size="10">const MyComponent = () =&gt; {</text>
  <text x="60" y="470" fill="#22c55e" font-family="monospace" font-size="10">  return &lt;div&gt;Hello&lt;/div&gt;;</text>

  <!-- Preview Panel -->
  <rect x="420" y="145" width="345" height="350" rx="6" fill="#0f172a" stroke="#475569"/>
  <rect x="420" y="145" width="345" height="30" rx="6" fill="#334155"/>
  <text x="435" y="165" class="text-sm">Preview</text>

  <!-- Preview Content -->
  <text x="435" y="195" class="heading-lg">Building with React 19</text>
  <text x="435" y="215" class="text-muted">By John Doe • Jan 15, 2025</text>

  <!-- Tags -->
  <rect x="435" y="225" width="45" height="18" rx="4" fill="#8b5cf6" opacity="0.15"/>
  <text x="458" y="238" text-anchor="middle" fill="#a78bfa" font-size="9">react</text>
  <rect x="485" y="225" width="65" height="18" rx="4" fill="#8b5cf6" opacity="0.15"/>
  <text x="518" y="238" text-anchor="middle" fill="#a78bfa" font-size="9">javascript</text>

  <!-- TOC Preview -->
  <rect x="435" y="255" width="160" height="60" rx="4" fill="#1e293b" stroke="#475569"/>
  <text x="445" y="273" class="text-sm">Table of Contents</text>
  <text x="445" y="290" fill="#8b5cf6" font-size="9">• Introduction</text>
  <text x="445" y="305" fill="#8b5cf6" font-size="9">• Server Components</text>

  <!-- Preview body -->
  <text x="435" y="335" class="heading">Introduction</text>
  <text x="435" y="355" class="text-md">React 19 brings exciting new</text>
  <text x="435" y="370" class="text-md">features for building modern apps.</text>

  <text x="435" y="405" class="heading">Server Components</text>
  <text x="435" y="425" class="text-md">With server components, you can</text>
  <text x="435" y="440" class="text-md">render components on the server.</text>

  <!-- Code block preview with syntax highlighting -->
  <rect x="435" y="455" width="315" height="30" rx="4" fill="#334155"/>
  <text x="450" y="475" fill="#22c55e" font-family="monospace" font-size="10">const MyComponent = () =&gt; {...}</text>

  <!-- Metadata Sidebar -->
  <rect x="45" y="505" width="720" height="55" rx="6" fill="#1e293b" stroke="#475569"/>
  <text x="60" y="525" class="text-sm">Category:</text>
  <rect x="115" y="512" width="100" height="24" rx="4" fill="#0f172a" stroke="#475569"/>
  <text x="125" y="528" class="text-muted">Tutorial ▼</text>
  <text x="240" y="525" class="text-sm">Status:</text>
  <rect x="285" y="512" width="70" height="24" rx="4" fill="#22c55e" opacity="0.15"/>
  <text x="320" y="528" text-anchor="middle" fill="#22c55e" font-size="10">Draft</text>
  <text x="380" y="525" class="text-sm">Show TOC:</text>
  <rect x="445" y="515" width="36" height="18" rx="9" fill="#8b5cf6"/>
  <circle cx="471" cy="524" r="7" fill="#fff"/>

  <!-- ==================== MOBILE VIEW ==================== -->
  <text x="917" y="48" text-anchor="middle" class="section-label">MOBILE</text>

  <!-- Phone Frame -->
  <rect x="820" y="55" width="195" height="422" rx="24" fill="#0f172a" stroke="#475569" stroke-width="2"/>
  <rect x="875" y="55" width="85" height="20" rx="10" fill="#0f172a"/>
  <rect x="826" y="61" width="183" height="410" rx="20" fill="#1e293b"/>

  <!-- Status Bar -->
  <text x="846" y="80" class="text-muted" font-size="9">9:41</text>
  <g transform="translate(970, 72)">
    <rect x="0" y="0" width="18" height="9" rx="2" stroke="#64748b" stroke-width="1" fill="none"/>
    <rect x="2" y="2" width="12" height="5" rx="1" fill="#64748b"/>
  </g>

  <!-- Mobile Header -->
  <rect x="826" y="90" width="183" height="44" fill="#0f172a"/>
  <text x="846" y="117" fill="#94a3b8" font-size="14">←</text>
  <text x="917" y="117" text-anchor="middle" class="heading">Edit Post</text>
  <rect x="960" y="103" width="40" height="24" rx="4" fill="url(#accentGrad)"/>
  <text x="980" y="119" text-anchor="middle" fill="#fff" font-size="9">Save</text>

  <!-- Mobile Sync Status -->
  <circle cx="870" y="112" r="4" fill="#22c55e"/>

  <!-- Mobile Tab Switch -->
  <rect x="836" y="140" width="75" height="26" rx="4" fill="#8b5cf6" opacity="0.15"/>
  <text x="874" y="158" text-anchor="middle" fill="#a78bfa" font-size="10">Edit</text>
  <text x="950" y="158" text-anchor="middle" class="text-sm">Preview</text>

  <!-- Mobile Editor -->
  <rect x="836" y="175" width="163" height="250" rx="4" fill="#0f172a" stroke="#475569"/>
  <text x="846" y="195" fill="#8b5cf6" font-family="monospace" font-size="8">---</text>
  <text x="846" y="208" fill="#0891b2" font-family="monospace" font-size="8">title: "Building..."</text>
  <text x="846" y="221" fill="#0891b2" font-family="monospace" font-size="8">author: "John Doe"</text>
  <text x="846" y="234" fill="#0891b2" font-family="monospace" font-size="8">showToc: true</text>
  <text x="846" y="247" fill="#8b5cf6" font-family="monospace" font-size="8">---</text>
  <text x="846" y="270" fill="#d946ef" font-family="monospace" font-size="8"># Introduction</text>
  <text x="846" y="290" class="text-muted" font-size="8">React 19 brings</text>
  <text x="846" y="305" class="text-muted" font-size="8">exciting new features</text>
  <text x="846" y="330" fill="#d946ef" font-family="monospace" font-size="8">## Server Components</text>
  <text x="846" y="350" class="text-muted" font-size="8">With server...</text>
  <text x="846" y="380" fill="#0891b2" font-family="monospace" font-size="8">```javascript</text>
  <text x="846" y="395" fill="#22c55e" font-family="monospace" font-size="8">const My...</text>

  <!-- Mobile Toolbar -->
  <rect x="836" y="430" width="163" height="30" rx="4" fill="#1e293b"/>
  <text x="917" y="450" text-anchor="middle" class="text-muted">B I H 🔗 📷</text>

  <!-- Phone Home Indicator -->
  <rect x="880" y="458" width="75" height="4" rx="2" fill="#475569"/>

  <!-- ==================== ANNOTATIONS ==================== -->
  <text x="30" y="590" class="section-label">SPECIFICATIONS</text>

  <rect x="30" y="600" width="275" height="80" rx="4" fill="#8b5cf6" opacity="0.08" stroke="#8b5cf6" stroke-width="1" stroke-dasharray="4"/>
  <text x="42" y="618" class="annotation">FR-001: Single source of truth for content</text>
  <text x="42" y="632" class="annotation">FR-002: Auto-detect markdown changes</text>
  <text x="42" y="646" class="annotation">FR-005: Validate metadata (Zod schemas)</text>
  <text x="42" y="660" class="annotation">FR-006: Syntax highlighting for code</text>
  <text x="42" y="674" class="annotation">FR-007: Auto-generate TOC when showToc=true</text>

  <rect x="320" y="600" width="275" height="80" rx="4" fill="#8b5cf6" opacity="0.08" stroke="#8b5cf6" stroke-width="1" stroke-dasharray="4"/>
  <text x="332" y="618" class="annotation">FR-003: Full offline editing capabilities</text>
  <text x="332" y="632" class="annotation">FR-004: Sync offline edits when online</text>
  <text x="332" y="646" class="annotation">FR-008: Incremental builds (changes only)</text>
  <text x="332" y="660" class="annotation">FR-013: Cache processed content</text>
  <text x="332" y="674" class="annotation">FR-014: Hot reload in development</text>

  <rect x="610" y="600" width="275" height="80" rx="4" fill="#8b5cf6" opacity="0.08" stroke="#8b5cf6" stroke-width="1" stroke-dasharray="4"/>
  <text x="622" y="618" class="annotation">FR-009: Conflict detection (multi-source)</text>
  <text x="622" y="632" class="annotation">FR-010: Three-way merge conflict UI</text>
  <text x="622" y="646" class="annotation">FR-015: Storage quota handling</text>
  <text x="622" y="660" class="annotation">Edge: Compress first, then warn</text>
  <text x="622" y="674" class="annotation">Edge: Malformed frontmatter handling</text>

  <rect x="900" y="600" width="275" height="80" rx="4" fill="#8b5cf6" opacity="0.08" stroke="#8b5cf6" stroke-width="1" stroke-dasharray="4"/>
  <text x="912" y="618" class="annotation">FR-011: Migrate posts without data loss</text>
  <text x="912" y="632" class="annotation">FR-012: Backward URL compatibility</text>
  <text x="912" y="646" class="annotation">Entities: BlogPost, PostMetadata</text>
  <text x="912" y="660" class="annotation">Entities: SyncQueue, ContentVersion</text>
  <text x="912" y="674" class="annotation">Split view: Editor + Live Preview</text>

</svg>
