<svg xmlns="http://www.w3.org/2000/svg" viewBox="0 0 1200 800" width="1200" height="800">
  <defs>
    <linearGradient id="bgGrad" x1="0%" y1="0%" x2="100%" y2="100%">
      <stop offset="0%" style="stop-color:#0f172a"/>
      <stop offset="100%" style="stop-color:#1e293b"/>
    </linearGradient>
    <linearGradient id="accentGrad" x1="0%" y1="0%" x2="100%" y2="0%">
      <stop offset="0%" style="stop-color:#8b5cf6"/>
      <stop offset="100%" style="stop-color:#d946ef"/>
    </linearGradient>
    <style>
      .page-title { fill: #64748b; font-family: system-ui, sans-serif; font-size: 14px; font-weight: 600; letter-spacing: 1px; }
      .section-label { fill: #8b5cf6; font-family: monospace; font-size: 11px; }
      .heading { fill: #ffffff; font-family: system-ui, sans-serif; font-size: 14px; font-weight: bold; }
      .heading-lg { fill: #ffffff; font-family: system-ui, sans-serif; font-size: 18px; font-weight: bold; }
      .text-md { fill: #cbd5e1; font-family: system-ui, sans-serif; font-size: 12px; }
      .text-sm { fill: #94a3b8; font-family: system-ui, sans-serif; font-size: 10px; }
      .text-muted { fill: #64748b; font-family: system-ui, sans-serif; font-size: 10px; }
      .annotation { fill: #8b5cf6; font-family: monospace; font-size: 9px; }
    </style>
  </defs>

  <!-- Background -->
  <rect width="1200" height="800" fill="url(#bgGrad)"/>
  <g opacity="0.03">
    <pattern id="grid" width="40" height="40" patternUnits="userSpaceOnUse">
      <path d="M 40 0 L 0 0 0 40" fill="none" stroke="#fff" stroke-width="0.5"/>
    </pattern>
    <rect width="1200" height="800" fill="url(#grid)"/>
  </g>
  <rect x="0" y="0" width="1200" height="3" fill="url(#accentGrad)"/>

  <!-- Page Title -->
  <text x="600" y="28" text-anchor="middle" class="page-title">ACCESSIBILITY CONTROLS - WCAG AA</text>

  <!-- ==================== DESKTOP VIEW ==================== -->
  <text x="405" y="48" text-anchor="middle" class="section-label">DESKTOP - ACCESSIBILITY DASHBOARD</text>

  <!-- Desktop Browser Frame -->
  <rect x="30" y="55" width="750" height="520" rx="8" fill="#1e293b" stroke="#475569" stroke-width="1"/>
  <rect x="30" y="55" width="750" height="32" rx="8" fill="#334155"/>
  <circle cx="52" cy="71" r="6" fill="#ef4444" opacity="0.8"/>
  <circle cx="72" cy="71" r="6" fill="#eab308" opacity="0.8"/>
  <circle cx="92" cy="71" r="6" fill="#22c55e" opacity="0.8"/>
  <rect x="120" y="63" width="400" height="16" rx="4" fill="#1e293b"/>
  <text x="320" y="75" text-anchor="middle" class="text-muted">scripthammer.com/accessibility</text>

  <!-- Desktop Content -->
  <rect x="30" y="87" width="750" height="488" fill="#0f172a"/>

  <!-- Header -->
  <rect x="30" y="87" width="750" height="50" fill="#1e293b"/>
  <text x="60" y="117" class="heading-lg">🔨 ScriptHammer</text>
  <text x="200" y="117" class="text-md">Home</text>
  <text x="260" y="117" class="text-md">Blog</text>
  <text x="310" y="117" fill="#8b5cf6" class="text-md">Accessibility</text>

  <!-- Page Title -->
  <text x="60" y="165" class="heading-lg" font-size="20">Accessibility Controls</text>
  <text x="60" y="185" class="text-sm">Customize your viewing experience</text>

  <!-- Stats Cards Row -->
  <rect x="60" y="200" width="170" height="70" rx="6" fill="#1e293b" stroke="#22c55e"/>
  <text x="80" y="225" class="text-muted">WCAG Score</text>
  <text x="80" y="255" fill="#22c55e" font-size="24" font-weight="bold">98%</text>

  <rect x="245" y="200" width="170" height="70" rx="6" fill="#1e293b" stroke="#475569"/>
  <text x="265" y="225" class="text-muted">Errors</text>
  <text x="265" y="255" fill="#22c55e" font-size="24" font-weight="bold">0</text>

  <rect x="430" y="200" width="170" height="70" rx="6" fill="#1e293b" stroke="#475569"/>
  <text x="450" y="225" class="text-muted">Warnings</text>
  <text x="450" y="255" fill="#eab308" font-size="24" font-weight="bold">2</text>

  <rect x="615" y="200" width="145" height="70" rx="6" fill="#1e293b" stroke="#475569"/>
  <text x="635" y="225" class="text-muted">Pa11y</text>
  <rect x="635" y="240" width="80" height="20" rx="4" fill="#22c55e" opacity="0.2"/>
  <text x="675" y="254" text-anchor="middle" fill="#22c55e" font-size="10">PASSING</text>

  <!-- Color Vision Section -->
  <rect x="60" y="285" width="350" height="180" rx="8" fill="#1e293b" stroke="#475569"/>
  <text x="80" y="315" class="heading">Color Vision</text>
  <text x="80" y="335" class="text-muted">Adjust for color vision deficiencies</text>

  <!-- Color Vision Dropdown -->
  <rect x="80" y="350" width="310" height="36" rx="6" fill="#0f172a" stroke="#475569"/>
  <text x="95" y="373" class="text-md">Normal Vision</text>
  <text x="370" y="373" text-anchor="end" fill="#94a3b8">▼</text>

  <!-- Pattern Toggle -->
  <rect x="80" y="400" width="310" height="50" rx="6" fill="#0f172a"/>
  <text x="95" y="423" class="text-md">Enable Patterns</text>
  <text x="95" y="440" class="text-muted">Adds patterns to distinguish colors</text>
  <!-- Toggle switch -->
  <rect x="345" y="413" width="40" height="22" rx="11" fill="#334155"/>
  <circle cx="355" cy="424" r="8" fill="#64748b"/>

  <!-- Font Size Section -->
  <rect x="430" y="285" width="330" height="180" rx="8" fill="#1e293b" stroke="#475569"/>
  <text x="450" y="315" class="heading">Text Size &amp; Spacing</text>

  <!-- Font Size Buttons -->
  <text x="450" y="345" class="text-sm">Text Size</text>
  <rect x="450" y="355" width="50" height="32" rx="4" fill="#0f172a" stroke="#475569"/>
  <text x="475" y="376" text-anchor="middle" class="text-sm">S</text>
  <rect x="510" y="355" width="50" height="32" rx="4" fill="#8b5cf6"/>
  <text x="535" y="376" text-anchor="middle" fill="#fff" class="text-sm">M</text>
  <rect x="570" y="355" width="50" height="32" rx="4" fill="#0f172a" stroke="#475569"/>
  <text x="595" y="376" text-anchor="middle" class="text-sm">L</text>
  <rect x="630" y="355" width="50" height="32" rx="4" fill="#0f172a" stroke="#475569"/>
  <text x="655" y="376" text-anchor="middle" class="text-sm">XL</text>

  <!-- Spacing Buttons -->
  <text x="450" y="415" class="text-sm">Line Spacing</text>
  <rect x="450" y="425" width="70" height="32" rx="4" fill="#0f172a" stroke="#475569"/>
  <text x="485" y="446" text-anchor="middle" class="text-sm">Normal</text>
  <rect x="530" y="425" width="70" height="32" rx="4" fill="#8b5cf6"/>
  <text x="565" y="446" text-anchor="middle" fill="#fff" class="text-sm">Wide</text>
  <rect x="610" y="425" width="70" height="32" rx="4" fill="#0f172a" stroke="#475569"/>
  <text x="645" y="446" text-anchor="middle" class="text-sm">Extra</text>

  <!-- Keyboard Navigation Section -->
  <rect x="60" y="480" width="350" height="85" rx="8" fill="#1e293b" stroke="#475569"/>
  <text x="80" y="510" class="heading">Keyboard Navigation</text>
  <rect x="80" y="525" width="310" height="28" rx="4" fill="#0f172a"/>
  <text x="95" y="544" class="text-sm">Tab = Next • Shift+Tab = Previous • Enter = Activate</text>

  <!-- Reduced Motion -->
  <rect x="430" y="480" width="330" height="85" rx="8" fill="#1e293b" stroke="#475569"/>
  <text x="450" y="510" class="heading">Motion Preferences</text>
  <rect x="450" y="525" width="200" height="28" rx="4" fill="#0f172a"/>
  <text x="465" y="544" class="text-md">Reduce Motion</text>
  <rect x="705" y="527" width="40" height="22" rx="11" fill="#8b5cf6"/>
  <circle cx="735" cy="538" r="8" fill="#fff"/>

  <!-- ==================== MOBILE VIEW ==================== -->
  <text x="917" y="48" text-anchor="middle" class="section-label">MOBILE</text>

  <!-- Phone Frame -->
  <rect x="820" y="55" width="195" height="422" rx="24" fill="#0f172a" stroke="#475569" stroke-width="2"/>
  <rect x="875" y="55" width="85" height="20" rx="10" fill="#0f172a"/>
  <rect x="826" y="61" width="183" height="410" rx="20" fill="#1e293b"/>

  <!-- Status Bar -->
  <text x="846" y="80" class="text-muted" font-size="9">9:41</text>
  <g transform="translate(970, 72)">
    <rect x="0" y="0" width="18" height="9" rx="2" stroke="#64748b" stroke-width="1" fill="none"/>
    <rect x="2" y="2" width="12" height="5" rx="1" fill="#64748b"/>
  </g>

  <!-- Mobile Header -->
  <rect x="826" y="90" width="183" height="44" fill="#0f172a"/>
  <text x="846" y="117" fill="#94a3b8" font-size="14">←</text>
  <text x="917" y="117" text-anchor="middle" class="heading">Accessibility</text>

  <!-- Mobile Score Card -->
  <rect x="836" y="140" width="163" height="50" rx="6" fill="#0f172a" stroke="#22c55e"/>
  <text x="875" y="162" class="text-sm">WCAG Score</text>
  <text x="970" y="175" text-anchor="end" fill="#22c55e" font-size="20" font-weight="bold">98%</text>

  <!-- Mobile Color Vision -->
  <rect x="836" y="200" width="163" height="65" rx="6" fill="#0f172a"/>
  <text x="850" y="220" class="text-sm">Color Vision</text>
  <rect x="850" y="230" width="135" height="28" rx="4" fill="#1e293b" stroke="#475569"/>
  <text x="860" y="249" class="text-sm" font-size="9">Normal Vision ▼</text>

  <!-- Mobile Text Size -->
  <rect x="836" y="275" width="163" height="55" rx="6" fill="#0f172a"/>
  <text x="850" y="295" class="text-sm">Text Size</text>
  <rect x="850" y="305" width="30" height="20" rx="3" fill="#1e293b" stroke="#475569"/>
  <text x="865" y="319" text-anchor="middle" class="text-muted" font-size="8">S</text>
  <rect x="885" y="305" width="30" height="20" rx="3" fill="#8b5cf6"/>
  <text x="900" y="319" text-anchor="middle" fill="#fff" font-size="8">M</text>
  <rect x="920" y="305" width="30" height="20" rx="3" fill="#1e293b" stroke="#475569"/>
  <text x="935" y="319" text-anchor="middle" class="text-muted" font-size="8">L</text>
  <rect x="955" y="305" width="30" height="20" rx="3" fill="#1e293b" stroke="#475569"/>
  <text x="970" y="319" text-anchor="middle" class="text-muted" font-size="8">XL</text>

  <!-- Mobile Motion Toggle -->
  <rect x="836" y="340" width="163" height="40" rx="6" fill="#0f172a"/>
  <text x="850" y="365" class="text-sm">Reduce Motion</text>
  <rect x="955" y="352" width="32" height="18" rx="9" fill="#8b5cf6"/>
  <circle cx="978" cy="361" r="6" fill="#fff"/>

  <!-- Mobile Pattern Toggle -->
  <rect x="836" y="390" width="163" height="40" rx="6" fill="#0f172a"/>
  <text x="850" y="415" class="text-sm">Enable Patterns</text>
  <rect x="955" y="402" width="32" height="18" rx="9" fill="#334155"/>
  <circle cx="964" cy="411" r="6" fill="#64748b"/>

  <!-- Mobile Keyboard Hint -->
  <rect x="836" y="440" width="163" height="25" rx="4" fill="#0f172a" stroke="#475569" stroke-dasharray="2"/>
  <text x="917" y="456" text-anchor="middle" class="text-muted" font-size="8">Tab + Enter for keyboard nav</text>

  <!-- Phone Home Indicator -->
  <rect x="880" y="458" width="75" height="4" rx="2" fill="#475569"/>

  <!-- ==================== COLORBLIND MODES ==================== -->
  <text x="820" y="495" class="section-label">COLORBLIND MODES</text>

  <rect x="820" y="505" width="175" height="70" rx="6" fill="#1e293b" stroke="#475569"/>
  <text x="835" y="525" fill="#ef4444" class="text-sm">Protanopia</text>
  <text x="835" y="540" class="text-muted" font-size="8">Red-blind (1% males)</text>
  <rect x="835" y="550" width="145" height="15" rx="2"/>
  <rect x="835" y="550" width="36" height="15" rx="2" fill="#94a3b8"/>
  <rect x="871" y="550" width="36" height="15" fill="#eab308"/>
  <rect x="907" y="550" width="36" height="15" fill="#3b82f6"/>
  <rect x="943" y="550" width="37" height="15" rx="2" fill="#1e293b"/>

  <rect x="1000" y="505" width="175" height="70" rx="6" fill="#1e293b" stroke="#475569"/>
  <text x="1015" y="525" fill="#22c55e" class="text-sm">Deuteranopia</text>
  <text x="1015" y="540" class="text-muted" font-size="8">Green-blind (5% males)</text>
  <rect x="1015" y="550" width="145" height="15" rx="2"/>
  <rect x="1015" y="550" width="36" height="15" rx="2" fill="#cd853f"/>
  <rect x="1051" y="550" width="36" height="15" fill="#eab308"/>
  <rect x="1087" y="550" width="36" height="15" fill="#3b82f6"/>
  <rect x="1123" y="550" width="37" height="15" rx="2" fill="#1e293b"/>

  <!-- ==================== ANNOTATIONS ==================== -->
  <text x="30" y="590" class="section-label">SPECIFICATIONS (100-wcag-aa-compliance.md, 101-colorblind-mode.md)</text>

  <rect x="30" y="600" width="275" height="80" rx="4" fill="#8b5cf6" opacity="0.08" stroke="#8b5cf6" stroke-width="1" stroke-dasharray="4"/>
  <text x="42" y="618" class="annotation">FR-001: Pa11y CI integration</text>
  <text x="42" y="632" class="annotation">FR-002: Axe-core component testing</text>
  <text x="42" y="646" class="annotation">FR-003: WCAG AA compliance check</text>
  <text x="42" y="660" class="annotation">FR-004: Real-time dev feedback</text>
  <text x="42" y="674" class="annotation">FR-005: Zero critical violations</text>

  <rect x="320" y="600" width="275" height="80" rx="4" fill="#8b5cf6" opacity="0.08" stroke="#8b5cf6" stroke-width="1" stroke-dasharray="4"/>
  <text x="332" y="618" class="annotation">FR-006: Colorblind mode filters</text>
  <text x="332" y="632" class="annotation">FR-007: Protanopia/Deuteranopia support</text>
  <text x="332" y="646" class="annotation">FR-008: Pattern overlays option</text>
  <text x="332" y="660" class="annotation">FR-009: Persistent user preferences</text>
  <text x="332" y="674" class="annotation">FR-010: Works with all 32 themes</text>

  <rect x="610" y="600" width="275" height="80" rx="4" fill="#8b5cf6" opacity="0.08" stroke="#8b5cf6" stroke-width="1" stroke-dasharray="4"/>
  <text x="622" y="618" class="annotation">FR-011: Font size controls (S/M/L/XL)</text>
  <text x="622" y="632" class="annotation">FR-012: Line spacing adjustment</text>
  <text x="622" y="646" class="annotation">FR-013: Reduce motion toggle</text>
  <text x="622" y="660" class="annotation">FR-014: Keyboard navigation support</text>
  <text x="622" y="674" class="annotation">FR-015: Accessibility score dashboard</text>

  <rect x="900" y="600" width="275" height="80" rx="4" fill="#8b5cf6" opacity="0.08" stroke="#8b5cf6" stroke-width="1" stroke-dasharray="4"/>
  <text x="912" y="618" class="annotation">NFR-001: Performance &lt;10ms impact</text>
  <text x="912" y="632" class="annotation">NFR-002: CSS/GPU accelerated filters</text>
  <text x="912" y="646" class="annotation">SC-001: 44px min touch targets</text>
  <text x="912" y="660" class="annotation">SC-002: ARIA labels throughout</text>
  <text x="912" y="674" class="annotation">SC-003: Focus visible indicators</text>

</svg>
