<svg xmlns="http://www.w3.org/2000/svg" viewBox="0 0 1200 900" width="1200" height="900">
  <defs>
    <linearGradient id="bgGrad" x1="0%" y1="0%" x2="100%" y2="100%">
      <stop offset="0%" style="stop-color:#0f172a"/>
      <stop offset="100%" style="stop-color:#1e293b"/>
    </linearGradient>
    <linearGradient id="accentGrad" x1="0%" y1="0%" x2="100%" y2="0%">
      <stop offset="0%" style="stop-color:#8b5cf6"/>
      <stop offset="100%" style="stop-color:#d946ef"/>
    </linearGradient>
    <style>
      .heading { fill: #ffffff; font-family: system-ui, sans-serif; font-size: 14px; font-weight: bold; }
      .text-sm { fill: #94a3b8; font-family: system-ui, sans-serif; font-size: 10px; }
      .text-md { fill: #cbd5e1; font-family: system-ui, sans-serif; font-size: 12px; }
      .text-muted { fill: #64748b; font-family: system-ui, sans-serif; font-size: 10px; }
      .annotation { fill: #8b5cf6; font-family: monospace; font-size: 10px; }
      .font-inter { font-family: Inter, system-ui, sans-serif; }
      .font-georgia { font-family: Georgia, "Times New Roman", serif; }
      .font-mono { font-family: "JetBrains Mono", Monaco, monospace; }
    </style>
  </defs>

  <!-- Background -->
  <rect width="1200" height="900" fill="url(#bgGrad)"/>

  <!-- Dot grid pattern -->
  <g opacity="0.05">
    <pattern id="dots" width="30" height="30" patternUnits="userSpaceOnUse">
      <circle cx="15" cy="15" r="1" fill="#fff"/>
    </pattern>
    <rect width="1200" height="900" fill="url(#dots)"/>
  </g>

  <!-- Accent line top -->
  <rect x="0" y="0" width="1200" height="3" fill="url(#accentGrad)"/>

  <!-- Title -->
  <text x="600" y="30" text-anchor="middle" font-family="system-ui, sans-serif" font-size="14" font-weight="600" fill="#64748b" letter-spacing="1">FONT SWITCHER - TYPOGRAPHY ACCESSIBILITY</text>

  <!-- ==================== SECTION 1: Font Selection Dropdown ==================== -->

  <!-- Dropdown Panel -->
  <rect x="40" y="50" width="340" height="400" rx="8" fill="#1e293b" stroke="#475569" stroke-width="1"/>
  <text x="60" y="75" class="heading">Font Selection</text>

  <!-- Dropdown trigger button -->
  <rect x="60" y="95" width="300" height="44" rx="6" fill="#334155" stroke="#8b5cf6" stroke-width="1"/>
  <text x="80" y="122" class="text-md" fill="#fff">Inter</text>
  <text x="80" y="136" class="text-sm">Modern, screen-optimized</text>
  <!-- Dropdown chevron -->
  <path d="M340 112 L345 120 L350 112" stroke="#8b5cf6" stroke-width="2" fill="none"/>

  <!-- Dropdown menu expanded -->
  <rect x="60" y="145" width="300" height="290" rx="6" fill="#0f172a" stroke="#475569" stroke-width="1"/>

  <!-- Font Option 1: System Default (selected) -->
  <rect x="68" y="153" width="284" height="42" rx="4" fill="#334155"/>
  <text x="84" y="173" class="text-md" fill="#fff" font-family="system-ui, sans-serif">System Default</text>
  <text x="84" y="186" class="text-muted">Uses your OS default font</text>
  <circle cx="332" cy="174" r="6" fill="none" stroke="#475569" stroke-width="1"/>

  <!-- Font Option 2: Inter -->
  <rect x="68" y="201" width="284" height="42" rx="4" fill="transparent"/>
  <text x="84" y="221" class="text-md" fill="#fff" font-family="Inter, system-ui, sans-serif">Inter</text>
  <text x="84" y="234" class="text-muted">Modern, highly legible</text>
  <circle cx="332" cy="222" r="6" fill="#8b5cf6"/>
  <path d="M328 222 L331 225 L337 219" stroke="#fff" stroke-width="1.5" fill="none"/>

  <!-- Font Option 3: OpenDyslexic - Accessibility -->
  <rect x="68" y="249" width="284" height="52" rx="4" fill="transparent"/>
  <text x="84" y="269" class="text-md" fill="#fff">OpenDyslexic</text>
  <text x="84" y="282" class="text-muted">Designed to help with dyslexia</text>
  <!-- Accessibility badge -->
  <rect x="84" y="286" width="85" height="14" rx="3" fill="#22c55e" opacity="0.2"/>
  <text x="127" y="296" text-anchor="middle" font-size="9" fill="#22c55e">dyslexia-friendly</text>
  <circle cx="332" cy="274" r="6" fill="none" stroke="#475569" stroke-width="1"/>

  <!-- Font Option 4: Atkinson Hyperlegible - Accessibility -->
  <rect x="68" y="307" width="284" height="52" rx="4" fill="transparent"/>
  <text x="84" y="327" class="text-md" fill="#fff">Atkinson Hyperlegible</text>
  <text x="84" y="340" class="text-muted">Maximum legibility design</text>
  <!-- Accessibility badge -->
  <rect x="84" y="344" width="75" height="14" rx="3" fill="#3b82f6" opacity="0.2"/>
  <text x="122" y="354" text-anchor="middle" font-size="9" fill="#3b82f6">high-readability</text>
  <circle cx="332" cy="332" r="6" fill="none" stroke="#475569" stroke-width="1"/>

  <!-- Font Option 5: Georgia -->
  <rect x="68" y="365" width="284" height="42" rx="4" fill="transparent"/>
  <text x="84" y="385" class="text-md" fill="#fff" font-family="Georgia, serif">Georgia</text>
  <text x="84" y="398" class="text-muted">Classic serif for reading</text>
  <circle cx="332" cy="386" r="6" fill="none" stroke="#475569" stroke-width="1"/>

  <!-- Font Option 6: JetBrains Mono -->
  <rect x="68" y="403" width="140" height="26" rx="4" fill="transparent"/>
  <text x="84" y="420" class="text-md" fill="#fff" font-family="monospace">JetBrains Mono</text>
  <!-- Note: clipped for space -->

  <!-- Annotation -->
  <rect x="60" y="445" width="200" height="2" fill="url(#accentGrad)" opacity="0.5"/>
  <text x="60" y="458" class="annotation">• 6 font options (2 accessibility)</text>
  <text x="60" y="470" class="annotation">• localStorage persistence</text>
  <text x="60" y="482" class="annotation">• Mirrors ThemeSwitcher pattern</text>

  <!-- ==================== SECTION 2: Font Preview Panel ==================== -->

  <!-- Preview Panel -->
  <rect x="400" y="50" width="380" height="320" rx="8" fill="#1e293b" stroke="#475569" stroke-width="1"/>
  <text x="420" y="75" class="heading">Font Preview</text>

  <!-- Selected font label -->
  <rect x="420" y="90" width="120" height="24" rx="4" fill="#8b5cf6" opacity="0.2"/>
  <text x="480" y="106" text-anchor="middle" font-size="11" fill="#8b5cf6">Currently: Inter</text>

  <!-- Preview content card -->
  <rect x="420" y="125" width="340" height="230" rx="6" fill="#0f172a" stroke="#475569" stroke-width="1"/>

  <!-- Heading preview -->
  <text x="440" y="155" fill="#fff" font-size="24" font-family="Inter, system-ui, sans-serif" font-weight="bold">The Quick Brown Fox</text>

  <!-- Subheading preview -->
  <text x="440" y="180" fill="#cbd5e1" font-size="16" font-family="Inter, system-ui, sans-serif">Jumps over the lazy dog</text>

  <!-- Body text preview -->
  <text x="440" y="210" fill="#94a3b8" font-size="13" font-family="Inter, system-ui, sans-serif">
    <tspan x="440">Typography is the art and technique of arranging type</tspan>
    <tspan x="440" dy="18">to make written language legible, readable, and</tspan>
    <tspan x="440" dy="18">appealing when displayed.</tspan>
  </text>

  <!-- Character specimens -->
  <text x="440" y="280" fill="#64748b" font-size="11" font-family="Inter, system-ui, sans-serif">
    <tspan>ABCDEFGHIJKLMNOPQRSTUVWXYZ</tspan>
    <tspan x="440" dy="15">abcdefghijklmnopqrstuvwxyz</tspan>
    <tspan x="440" dy="15">0123456789 !@#$%^&amp;*()[]</tspan>
  </text>

  <!-- Code preview (monospace) -->
  <rect x="440" y="330" width="300" height="20" rx="3" fill="#334155"/>
  <text x="448" y="344" fill="#22c55e" font-size="11" font-family="monospace">const font = "Inter";</text>

  <!-- ==================== SECTION 3: Font Categories ==================== -->

  <!-- Categories Panel -->
  <rect x="400" y="385" width="380" height="110" rx="8" fill="#1e293b" stroke="#475569" stroke-width="1"/>
  <text x="420" y="410" class="heading">Font Categories</text>

  <!-- Category pills -->
  <rect x="420" y="425" width="75" height="26" rx="13" fill="#8b5cf6" opacity="0.3"/>
  <text x="457" y="442" text-anchor="middle" font-size="11" fill="#8b5cf6">sans-serif</text>

  <rect x="505" y="425" width="50" height="26" rx="13" fill="#334155"/>
  <text x="530" y="442" text-anchor="middle" font-size="11" fill="#94a3b8">serif</text>

  <rect x="565" y="425" width="75" height="26" rx="13" fill="#334155"/>
  <text x="602" y="442" text-anchor="middle" font-size="11" fill="#94a3b8">monospace</text>

  <rect x="650" y="425" width="55" height="26" rx="13" fill="#334155"/>
  <text x="677" y="442" text-anchor="middle" font-size="11" fill="#94a3b8">display</text>

  <!-- Filter hint -->
  <text x="420" y="475" class="text-muted">Filter fonts by category to find the right style</text>

  <!-- ==================== SECTION 4: Accessibility Fonts Focus ==================== -->

  <!-- Accessibility Panel -->
  <rect x="800" y="50" width="360" height="280" rx="8" fill="#1e293b" stroke="#475569" stroke-width="1"/>
  <text x="820" y="75" class="heading">Accessibility Fonts</text>

  <!-- OpenDyslexic showcase -->
  <rect x="820" y="95" width="320" height="85" rx="6" fill="#0f172a" stroke="#22c55e" stroke-width="1"/>
  <rect x="820" y="95" width="320" height="3" rx="2" fill="#22c55e"/>

  <text x="840" y="118" fill="#fff" font-size="14" font-weight="bold">OpenDyslexic</text>
  <rect x="950" y="106" width="85" height="16" rx="3" fill="#22c55e" opacity="0.2"/>
  <text x="993" y="117" text-anchor="middle" font-size="9" fill="#22c55e">dyslexia-friendly</text>

  <text x="840" y="138" fill="#94a3b8" font-size="11">Weighted bottoms prevent letter rotation</text>
  <text x="840" y="158" fill="#cbd5e1" font-size="13">bdpq - distinct letter shapes</text>
  <text x="840" y="173" fill="#64748b" font-size="10">Unique: b d p q look different</text>

  <!-- Atkinson Hyperlegible showcase -->
  <rect x="820" y="190" width="320" height="85" rx="6" fill="#0f172a" stroke="#3b82f6" stroke-width="1"/>
  <rect x="820" y="190" width="320" height="3" rx="2" fill="#3b82f6"/>

  <text x="840" y="213" fill="#fff" font-size="14" font-weight="bold">Atkinson Hyperlegible</text>
  <rect x="1005" y="201" width="75" height="16" rx="3" fill="#3b82f6" opacity="0.2"/>
  <text x="1043" y="212" text-anchor="middle" font-size="9" fill="#3b82f6">high-readability</text>

  <text x="840" y="233" fill="#94a3b8" font-size="11">Braille Institute - low vision optimized</text>
  <text x="840" y="253" fill="#cbd5e1" font-size="13">Il1O0 - clearly distinguishable</text>
  <text x="840" y="268" fill="#64748b" font-size="10">Unique: I l 1 O 0 are distinct</text>

  <!-- Best practices note -->
  <rect x="820" y="285" width="320" height="35" rx="4" fill="#334155"/>
  <text x="840" y="307" fill="#8b5cf6" font-size="10">✓ Both fonts include all weights (400, 700)</text>
  <text x="840" y="318" fill="#64748b" font-size="9">   Free, open-source, no licensing required</text>

  <!-- ==================== SECTION 5: Layout Stability Demo ==================== -->

  <!-- Layout Demo Panel -->
  <rect x="800" y="345" width="360" height="150" rx="8" fill="#1e293b" stroke="#475569" stroke-width="1"/>
  <text x="820" y="370" class="heading">No Layout Shift</text>

  <!-- Side by side comparison -->
  <rect x="820" y="385" width="155" height="95" rx="4" fill="#0f172a" stroke="#475569" stroke-width="1"/>
  <text x="897" y="400" text-anchor="middle" font-size="10" fill="#64748b">System Font</text>
  <rect x="830" y="410" width="135" height="8" rx="2" fill="#334155"/>
  <rect x="830" y="423" width="120" height="8" rx="2" fill="#334155"/>
  <rect x="830" y="436" width="130" height="8" rx="2" fill="#334155"/>
  <rect x="830" y="460" width="50" height="16" rx="4" fill="#8b5cf6"/>

  <rect x="985" y="385" width="155" height="95" rx="4" fill="#0f172a" stroke="#475569" stroke-width="1"/>
  <text x="1062" y="400" text-anchor="middle" font-size="10" fill="#64748b">OpenDyslexic</text>
  <rect x="995" y="410" width="135" height="8" rx="2" fill="#334155"/>
  <rect x="995" y="423" width="120" height="8" rx="2" fill="#334155"/>
  <rect x="995" y="436" width="130" height="8" rx="2" fill="#334155"/>
  <rect x="995" y="460" width="50" height="16" rx="4" fill="#8b5cf6"/>

  <!-- Equals sign between -->
  <text x="972" y="445" fill="#22c55e" font-size="18" font-weight="bold">=</text>

  <text x="820" y="495" class="text-muted">Same line-height and element positions maintained</text>

  <!-- ==================== SECTION 6: Mobile View ==================== -->

  <!-- Mobile Frame -->
  <rect x="40" y="510" width="180" height="370" rx="20" fill="#0f172a" stroke="#475569" stroke-width="2"/>
  <rect x="90" y="515" width="80" height="4" rx="2" fill="#334155"/>

  <!-- Mobile header -->
  <rect x="50" y="530" width="160" height="40" fill="#1e293b"/>
  <text x="130" y="555" text-anchor="middle" fill="#fff" font-size="12" font-weight="bold">Settings</text>

  <!-- Font setting row -->
  <rect x="50" y="575" width="160" height="50" fill="transparent" stroke="#475569" stroke-width="0.5"/>
  <text x="60" y="595" fill="#fff" font-size="11">Font Family</text>
  <text x="60" y="612" fill="#64748b" font-size="9">Inter</text>
  <path d="M190 595 L195 600 L200 595" stroke="#8b5cf6" stroke-width="1.5" fill="none"/>

  <!-- Theme setting row -->
  <rect x="50" y="625" width="160" height="50" fill="transparent" stroke="#475569" stroke-width="0.5"/>
  <text x="60" y="645" fill="#fff" font-size="11">Theme</text>
  <text x="60" y="662" fill="#64748b" font-size="9">Dark</text>
  <path d="M190 645 L195 650 L200 645" stroke="#8b5cf6" stroke-width="1.5" fill="none"/>

  <!-- Font size row -->
  <rect x="50" y="675" width="160" height="50" fill="transparent" stroke="#475569" stroke-width="0.5"/>
  <text x="60" y="695" fill="#fff" font-size="11">Font Size</text>
  <text x="60" y="712" fill="#64748b" font-size="9">Medium</text>
  <path d="M190 695 L195 700 L200 695" stroke="#8b5cf6" stroke-width="1.5" fill="none"/>

  <!-- Accessibility section -->
  <text x="60" y="750" fill="#64748b" font-size="10">ACCESSIBILITY</text>

  <rect x="50" y="760" width="160" height="45" fill="transparent" stroke="#475569" stroke-width="0.5"/>
  <text x="60" y="780" fill="#fff" font-size="11">High Contrast</text>
  <!-- Toggle switch off -->
  <rect x="170" y="772" width="32" height="18" rx="9" fill="#475569"/>
  <circle cx="180" cy="781" r="6" fill="#fff"/>

  <rect x="50" y="805" width="160" height="45" fill="transparent" stroke="#475569" stroke-width="0.5"/>
  <text x="60" y="825" fill="#fff" font-size="11">Reduce Motion</text>
  <!-- Toggle switch on -->
  <rect x="170" y="817" width="32" height="18" rx="9" fill="#8b5cf6"/>
  <circle cx="192" cy="826" r="6" fill="#fff"/>

  <!-- Mobile label -->
  <text x="130" y="880" text-anchor="middle" class="annotation">Mobile Settings View</text>

  <!-- ==================== SECTION 7: Navbar Integration ==================== -->

  <!-- Navbar Integration Panel -->
  <rect x="240" y="510" width="500" height="80" rx="8" fill="#1e293b" stroke="#475569" stroke-width="1"/>
  <text x="260" y="535" class="heading">Navbar Integration</text>

  <!-- Mock navbar -->
  <rect x="260" y="550" width="460" height="32" rx="4" fill="#0f172a"/>

  <!-- Logo -->
  <rect x="270" y="556" width="24" height="20" rx="3" fill="#8b5cf6"/>
  <text x="300" y="570" fill="#fff" font-size="11" font-weight="bold">ScriptHammer</text>

  <!-- Nav items -->
  <text x="400" y="570" fill="#94a3b8" font-size="10">Dashboard</text>
  <text x="460" y="570" fill="#94a3b8" font-size="10">Projects</text>

  <!-- Font switcher button -->
  <rect x="600" y="556" width="28" height="20" rx="3" fill="#334155" stroke="#8b5cf6" stroke-width="1"/>
  <text x="614" y="570" text-anchor="middle" fill="#8b5cf6" font-size="11" font-weight="bold">Aa</text>

  <!-- Theme switcher -->
  <rect x="636" y="556" width="28" height="20" rx="3" fill="#334155"/>
  <circle cx="650" cy="566" r="6" fill="none" stroke="#94a3b8" stroke-width="1"/>

  <!-- User avatar -->
  <circle cx="690" cy="566" r="10" fill="#334155"/>
  <text x="690" y="570" text-anchor="middle" fill="#94a3b8" font-size="10">JD</text>

  <!-- ==================== SECTION 8: Implementation Details ==================== -->

  <!-- Implementation Panel -->
  <rect x="240" y="605" width="500" height="275" rx="8" fill="#1e293b" stroke="#475569" stroke-width="1"/>
  <text x="260" y="630" class="heading">Implementation Details</text>

  <!-- CSS Variables code block -->
  <rect x="260" y="645" width="230" height="115" rx="4" fill="#0f172a"/>
  <text x="270" y="660" fill="#64748b" font-size="9">CSS Variables</text>
  <text x="270" y="680" fill="#d946ef" font-family="monospace" font-size="10">:root {</text>
  <text x="280" y="695" fill="#94a3b8" font-family="monospace" font-size="10">--font-family:</text>
  <text x="280" y="710" fill="#22c55e" font-family="monospace" font-size="10">  "Inter", system-ui;</text>
  <text x="270" y="725" fill="#d946ef" font-family="monospace" font-size="10">}</text>
  <text x="270" y="745" fill="#94a3b8" font-family="monospace" font-size="10">body { font-family:</text>
  <text x="280" y="758" fill="#22c55e" font-family="monospace" font-size="10">  var(--font-family); }</text>

  <!-- localStorage code block -->
  <rect x="505" y="645" width="220" height="115" rx="4" fill="#0f172a"/>
  <text x="515" y="660" fill="#64748b" font-size="9">Persistence</text>
  <text x="515" y="680" fill="#8b5cf6" font-family="monospace" font-size="10">localStorage</text>
  <text x="515" y="700" fill="#94a3b8" font-family="monospace" font-size="10">.setItem(</text>
  <text x="525" y="715" fill="#22c55e" font-family="monospace" font-size="10">'font-family',</text>
  <text x="525" y="730" fill="#22c55e" font-family="monospace" font-size="10">'inter'</text>
  <text x="515" y="745" fill="#94a3b8" font-family="monospace" font-size="10">);</text>

  <!-- Performance metrics -->
  <rect x="260" y="770" width="230" height="95" rx="4" fill="#0f172a"/>
  <text x="270" y="785" fill="#64748b" font-size="9">Performance Targets</text>

  <text x="270" y="805" fill="#94a3b8" font-size="10">Initial load (system fonts)</text>
  <rect x="410" y="797" width="60" height="14" rx="3" fill="#22c55e" opacity="0.2"/>
  <text x="440" y="807" text-anchor="middle" fill="#22c55e" font-size="10">&lt; 50ms</text>

  <text x="270" y="825" fill="#94a3b8" font-size="10">Web font lazy load</text>
  <rect x="410" y="817" width="60" height="14" rx="3" fill="#eab308" opacity="0.2"/>
  <text x="440" y="827" text-anchor="middle" fill="#eab308" font-size="10">on select</text>

  <text x="270" y="845" fill="#94a3b8" font-size="10">Storage footprint</text>
  <rect x="410" y="837" width="60" height="14" rx="3" fill="#22c55e" opacity="0.2"/>
  <text x="440" y="847" text-anchor="middle" fill="#22c55e" font-size="10">&lt; 1KB</text>

  <!-- Font loading strategy -->
  <rect x="505" y="770" width="220" height="95" rx="4" fill="#0f172a"/>
  <text x="515" y="785" fill="#64748b" font-size="9">Font Loading Strategy</text>

  <rect x="515" y="795" width="12" height="12" rx="2" fill="#22c55e"/>
  <text x="535" y="805" fill="#94a3b8" font-size="10">font-display: swap</text>

  <rect x="515" y="815" width="12" height="12" rx="2" fill="#22c55e"/>
  <text x="535" y="825" fill="#94a3b8" font-size="10">Preload critical fonts</text>

  <rect x="515" y="835" width="12" height="12" rx="2" fill="#22c55e"/>
  <text x="535" y="845" fill="#94a3b8" font-size="10">FOUT prevention</text>

  <!-- ==================== SECTION 9: Print Stylesheet Support ==================== -->

  <!-- Print Panel -->
  <rect x="760" y="510" width="400" height="80" rx="8" fill="#1e293b" stroke="#475569" stroke-width="1"/>
  <text x="780" y="535" class="heading">Print Stylesheet Support</text>

  <rect x="780" y="550" width="360" height="30" rx="4" fill="#0f172a"/>
  <text x="795" y="570" fill="#94a3b8" font-family="monospace" font-size="10">@media print { body { font-family: Georgia, serif; } }</text>

  <!-- ==================== SECTION 10: Theme Compatibility ==================== -->

  <!-- Theme Compatibility Panel -->
  <rect x="760" y="605" width="400" height="275" rx="8" fill="#1e293b" stroke="#475569" stroke-width="1"/>
  <text x="780" y="630" class="heading">32-Theme Compatibility</text>

  <!-- Theme preview grid -->
  <g transform="translate(780, 645)">
    <!-- Row 1 -->
    <rect x="0" y="0" width="55" height="35" rx="3" fill="#ffffff" stroke="#e5e7eb"/>
    <text x="27" y="22" text-anchor="middle" fill="#1f2937" font-size="8">Light</text>

    <rect x="65" y="0" width="55" height="35" rx="3" fill="#1f2937"/>
    <text x="92" y="22" text-anchor="middle" fill="#f9fafb" font-size="8">Dark</text>

    <rect x="130" y="0" width="55" height="35" rx="3" fill="#191d24"/>
    <text x="157" y="22" text-anchor="middle" fill="#a6adba" font-size="8">Dracula</text>

    <rect x="195" y="0" width="55" height="35" rx="3" fill="#1d232a"/>
    <text x="222" y="22" text-anchor="middle" fill="#66cc8a" font-size="8">Forest</text>

    <rect x="260" y="0" width="55" height="35" rx="3" fill="#282a36"/>
    <text x="287" y="22" text-anchor="middle" fill="#ff79c6" font-size="8">Synthwave</text>

    <rect x="325" y="0" width="55" height="35" rx="3" fill="#1a103d"/>
    <text x="352" y="22" text-anchor="middle" fill="#c4b5fd" font-size="8">Night</text>

    <!-- Row 2 -->
    <rect x="0" y="45" width="55" height="35" rx="3" fill="#fef3c7"/>
    <text x="27" y="67" text-anchor="middle" fill="#78350f" font-size="8">Retro</text>

    <rect x="65" y="45" width="55" height="35" rx="3" fill="#ecfdf5"/>
    <text x="92" y="67" text-anchor="middle" fill="#065f46" font-size="8">Garden</text>

    <rect x="130" y="45" width="55" height="35" rx="3" fill="#0f172a"/>
    <text x="157" y="67" text-anchor="middle" fill="#38bdf8" font-size="8">Business</text>

    <rect x="195" y="45" width="55" height="35" rx="3" fill="#fff7ed"/>
    <text x="222" y="67" text-anchor="middle" fill="#c2410c" font-size="8">Autumn</text>

    <rect x="260" y="45" width="55" height="35" rx="3" fill="#f3f4f6"/>
    <text x="287" y="67" text-anchor="middle" fill="#4b5563" font-size="8">Corporate</text>

    <rect x="325" y="45" width="55" height="35" rx="3" fill="#e0f2fe"/>
    <text x="352" y="67" text-anchor="middle" fill="#0284c7" font-size="8">Aqua</text>
  </g>

  <!-- Compatibility note -->
  <rect x="780" y="740" width="360" height="50" rx="4" fill="#334155"/>
  <text x="800" y="758" fill="#8b5cf6" font-size="10">✓ Font selections work across all 32 DaisyUI themes</text>
  <text x="800" y="773" fill="#64748b" font-size="9">   CSS variables ensure seamless integration</text>

  <!-- Integration checklist -->
  <text x="780" y="805" fill="#64748b" font-size="10">Integration Checklist:</text>

  <rect x="780" y="815" width="12" height="12" rx="2" fill="#22c55e"/>
  <text x="800" y="825" fill="#94a3b8" font-size="10">Inherits theme colors</text>

  <rect x="900" y="815" width="12" height="12" rx="2" fill="#22c55e"/>
  <text x="920" y="825" fill="#94a3b8" font-size="10">No CSS conflicts</text>

  <rect x="1020" y="815" width="12" height="12" rx="2" fill="#22c55e"/>
  <text x="1040" y="825" fill="#94a3b8" font-size="10">Same UI pattern</text>

  <rect x="780" y="835" width="12" height="12" rx="2" fill="#22c55e"/>
  <text x="800" y="845" fill="#94a3b8" font-size="10">Responsive design</text>

  <rect x="900" y="835" width="12" height="12" rx="2" fill="#22c55e"/>
  <text x="920" y="845" fill="#94a3b8" font-size="10">RTL support</text>

  <rect x="1020" y="835" width="12" height="12" rx="2" fill="#22c55e"/>
  <text x="1040" y="845" fill="#94a3b8" font-size="10">Print friendly</text>

</svg>