<svg xmlns="http://www.w3.org/2000/svg" viewBox="0 0 1200 800" width="1200" height="800">
  <defs>
    <linearGradient id="bgGrad" x1="0%" y1="0%" x2="100%" y2="100%">
      <stop offset="0%" style="stop-color:#0f172a"/>
      <stop offset="100%" style="stop-color:#1e293b"/>
    </linearGradient>
    <linearGradient id="accentGrad" x1="0%" y1="0%" x2="100%" y2="0%">
      <stop offset="0%" style="stop-color:#8b5cf6"/>
      <stop offset="100%" style="stop-color:#d946ef"/>
    </linearGradient>
    <style>
      .page-title { fill: #64748b; font-family: system-ui, sans-serif; font-size: 14px; font-weight: 600; letter-spacing: 1px; }
      .section-label { fill: #8b5cf6; font-family: monospace; font-size: 11px; }
      .heading { fill: #ffffff; font-family: system-ui, sans-serif; font-size: 14px; font-weight: bold; }
      .heading-lg { fill: #ffffff; font-family: system-ui, sans-serif; font-size: 18px; font-weight: bold; }
      .text-md { fill: #cbd5e1; font-family: system-ui, sans-serif; font-size: 12px; }
      .text-sm { fill: #94a3b8; font-family: system-ui, sans-serif; font-size: 10px; }
      .text-muted { fill: #64748b; font-family: system-ui, sans-serif; font-size: 10px; }
      .annotation { fill: #8b5cf6; font-family: monospace; font-size: 9px; }
    </style>
  </defs>

  <!-- Background -->
  <rect width="1200" height="800" fill="url(#bgGrad)"/>
  <g opacity="0.03">
    <pattern id="grid" width="40" height="40" patternUnits="userSpaceOnUse">
      <path d="M 40 0 L 0 0 0 40" fill="none" stroke="#fff" stroke-width="0.5"/>
    </pattern>
    <rect width="1200" height="800" fill="url(#grid)"/>
  </g>
  <rect x="0" y="0" width="1200" height="3" fill="url(#accentGrad)"/>

  <!-- Page Title -->
  <text x="600" y="28" text-anchor="middle" class="page-title">CALENDAR INTEGRATION - SCHEDULE PAGE</text>

  <!-- ==================== DESKTOP VIEW ==================== -->
  <text x="405" y="48" text-anchor="middle" class="section-label">DESKTOP - INLINE EMBED</text>

  <!-- Desktop Browser Frame -->
  <rect x="30" y="55" width="750" height="520" rx="8" fill="#1e293b" stroke="#475569" stroke-width="1"/>
  <rect x="30" y="55" width="750" height="32" rx="8" fill="#334155"/>
  <circle cx="52" cy="71" r="6" fill="#ef4444" opacity="0.8"/>
  <circle cx="72" cy="71" r="6" fill="#eab308" opacity="0.8"/>
  <circle cx="92" cy="71" r="6" fill="#22c55e" opacity="0.8"/>
  <rect x="120" y="63" width="400" height="16" rx="4" fill="#1e293b"/>
  <text x="320" y="75" text-anchor="middle" class="text-muted">scripthammer.com/schedule</text>

  <!-- Desktop Content -->
  <rect x="30" y="87" width="750" height="488" fill="#0f172a"/>

  <!-- Header -->
  <rect x="30" y="87" width="750" height="50" fill="#1e293b"/>
  <text x="60" y="117" class="heading-lg">🔨 ScriptHammer</text>
  <text x="200" y="117" class="text-md">Home</text>
  <text x="260" y="117" class="text-md">Blog</text>
  <text x="310" y="117" fill="#8b5cf6" class="text-md">Schedule</text>
  <text x="380" y="117" class="text-md">Contact</text>

  <!-- Page Content -->
  <text x="405" y="165" text-anchor="middle" class="heading-lg" font-size="24">Schedule a Meeting</text>
  <text x="405" y="190" text-anchor="middle" class="text-md">Book a time that works for you. We'll send a calendar invitation.</text>

  <!-- Provider Toggle -->
  <rect x="280" y="205" width="250" height="36" rx="6" fill="#1e293b" stroke="#475569"/>
  <rect x="285" y="210" width="120" height="26" rx="4" fill="url(#accentGrad)"/>
  <text x="345" y="228" text-anchor="middle" fill="#fff" class="text-sm">Calendly</text>
  <text x="465" y="228" text-anchor="middle" class="text-muted">Cal.com</text>

  <!-- Calendar Embed Container -->
  <rect x="80" y="255" width="650" height="280" rx="8" fill="#1e293b" stroke="#475569"/>

  <!-- Calendar Header -->
  <rect x="80" y="255" width="650" height="50" rx="8" fill="#334155"/>
  <circle cx="115" cy="280" r="20" fill="#8b5cf6"/>
  <text x="115" y="287" text-anchor="middle" fill="#fff" font-size="12">JD</text>
  <text x="150" y="275" class="heading">John Doe</text>
  <text x="150" y="292" class="text-sm">30 Minute Meeting</text>

  <!-- Month Navigation -->
  <text x="620" y="280" text-anchor="middle" fill="#94a3b8" font-size="18">←</text>
  <text x="665" y="285" text-anchor="middle" class="heading">Dec 2025</text>
  <text x="710" y="280" text-anchor="middle" fill="#94a3b8" font-size="18">→</text>

  <!-- Calendar Grid -->
  <g transform="translate(95, 315)">
    <!-- Days of week -->
    <text x="20" y="0" text-anchor="middle" class="text-muted">Sun</text>
    <text x="80" y="0" text-anchor="middle" class="text-muted">Mon</text>
    <text x="140" y="0" text-anchor="middle" class="text-muted">Tue</text>
    <text x="200" y="0" text-anchor="middle" class="text-muted">Wed</text>
    <text x="260" y="0" text-anchor="middle" class="text-muted">Thu</text>
    <text x="320" y="0" text-anchor="middle" class="text-muted">Fri</text>
    <text x="380" y="0" text-anchor="middle" class="text-muted">Sat</text>

    <!-- Week 1 -->
    <text x="20" y="30" text-anchor="middle" class="text-muted">1</text>
    <text x="80" y="30" text-anchor="middle" class="text-md">2</text>
    <text x="140" y="30" text-anchor="middle" class="text-md">3</text>
    <text x="200" y="30" text-anchor="middle" class="text-md">4</text>
    <text x="260" y="30" text-anchor="middle" class="text-md">5</text>
    <text x="320" y="30" text-anchor="middle" class="text-md">6</text>
    <text x="380" y="30" text-anchor="middle" class="text-muted">7</text>

    <!-- Week 2 -->
    <text x="20" y="60" text-anchor="middle" class="text-muted">8</text>
    <circle cx="80" cy="55" r="16" fill="#8b5cf6"/>
    <text x="80" y="60" text-anchor="middle" fill="#fff" font-size="12">9</text>
    <text x="140" y="60" text-anchor="middle" class="text-md">10</text>
    <text x="200" y="60" text-anchor="middle" class="text-md">11</text>
    <text x="260" y="60" text-anchor="middle" class="text-md">12</text>
    <text x="320" y="60" text-anchor="middle" class="text-md">13</text>
    <text x="380" y="60" text-anchor="middle" class="text-muted">14</text>

    <!-- Week 3 -->
    <text x="20" y="90" text-anchor="middle" class="text-muted">15</text>
    <text x="80" y="90" text-anchor="middle" class="text-md">16</text>
    <text x="140" y="90" text-anchor="middle" class="text-md">17</text>
    <text x="200" y="90" text-anchor="middle" class="text-md">18</text>
    <text x="260" y="90" text-anchor="middle" class="text-md">19</text>
    <text x="320" y="90" text-anchor="middle" class="text-md">20</text>
    <text x="380" y="90" text-anchor="middle" class="text-muted">21</text>

    <!-- Week 4 -->
    <text x="20" y="120" text-anchor="middle" class="text-muted">22</text>
    <text x="80" y="120" text-anchor="middle" class="text-md">23</text>
    <text x="140" y="120" text-anchor="middle" class="text-muted">24</text>
    <text x="200" y="120" text-anchor="middle" class="text-muted">25</text>
    <text x="260" y="120" text-anchor="middle" class="text-md">26</text>
    <text x="320" y="120" text-anchor="middle" class="text-md">27</text>
    <text x="380" y="120" text-anchor="middle" class="text-muted">28</text>
  </g>

  <!-- Time Slots Panel -->
  <rect x="510" y="315" width="205" height="200" rx="6" fill="#0f172a"/>
  <text x="612" y="340" text-anchor="middle" class="heading">December 9</text>
  <text x="612" y="358" text-anchor="middle" class="text-muted">Available times</text>

  <!-- Time slot buttons -->
  <rect x="525" y="370" width="85" height="32" rx="4" fill="#8b5cf6" opacity="0.15" stroke="#8b5cf6"/>
  <text x="567" y="391" text-anchor="middle" fill="#8b5cf6" class="text-sm">9:00 AM</text>

  <rect x="620" y="370" width="85" height="32" rx="4" fill="#1e293b" stroke="#475569"/>
  <text x="662" y="391" text-anchor="middle" class="text-sm">9:30 AM</text>

  <rect x="525" y="410" width="85" height="32" rx="4" fill="#1e293b" stroke="#475569"/>
  <text x="567" y="431" text-anchor="middle" class="text-sm">10:00 AM</text>

  <rect x="620" y="410" width="85" height="32" rx="4" fill="#1e293b" stroke="#475569"/>
  <text x="662" y="431" text-anchor="middle" class="text-sm">10:30 AM</text>

  <rect x="525" y="450" width="85" height="32" rx="4" fill="#1e293b" stroke="#475569"/>
  <text x="567" y="471" text-anchor="middle" class="text-sm">2:00 PM</text>

  <rect x="620" y="450" width="85" height="32" rx="4" fill="#1e293b" stroke="#475569"/>
  <text x="662" y="471" text-anchor="middle" class="text-sm">2:30 PM</text>

  <!-- Provider Attribution -->
  <text x="405" y="555" text-anchor="middle" class="text-muted">Powered by Calendly</text>

  <!-- ==================== MOBILE VIEW ==================== -->
  <text x="917" y="48" text-anchor="middle" class="section-label">MOBILE</text>

  <!-- Phone Frame -->
  <rect x="820" y="55" width="195" height="422" rx="24" fill="#0f172a" stroke="#475569" stroke-width="2"/>
  <rect x="875" y="55" width="85" height="20" rx="10" fill="#0f172a"/>
  <rect x="826" y="61" width="183" height="410" rx="20" fill="#1e293b"/>

  <!-- Status Bar -->
  <text x="846" y="80" class="text-muted" font-size="9">9:41</text>
  <g transform="translate(970, 72)">
    <rect x="0" y="0" width="18" height="9" rx="2" stroke="#64748b" stroke-width="1" fill="none"/>
    <rect x="2" y="2" width="12" height="5" rx="1" fill="#64748b"/>
  </g>

  <!-- Mobile Header -->
  <rect x="826" y="90" width="183" height="44" fill="#0f172a"/>
  <text x="846" y="117" fill="#94a3b8" font-size="14">←</text>
  <text x="917" y="117" text-anchor="middle" class="heading">Schedule</text>

  <!-- Mobile Calendar Header -->
  <circle cx="860" cy="150" r="16" fill="#8b5cf6"/>
  <text x="860" y="155" text-anchor="middle" fill="#fff" font-size="10">JD</text>
  <text x="885" y="145" class="text-sm" font-size="9">John Doe</text>
  <text x="885" y="158" class="text-muted" font-size="8">30 Min Meeting</text>

  <!-- Mobile Month Nav -->
  <rect x="836" y="170" width="163" height="28" rx="4" fill="#0f172a"/>
  <text x="856" y="188" fill="#94a3b8" font-size="12">←</text>
  <text x="917" y="188" text-anchor="middle" class="text-sm">December 2025</text>
  <text x="978" y="188" fill="#94a3b8" font-size="12">→</text>

  <!-- Mobile Calendar Grid (compressed) -->
  <g transform="translate(840, 205)">
    <text x="10" y="0" text-anchor="middle" class="text-muted" font-size="7">S</text>
    <text x="35" y="0" text-anchor="middle" class="text-muted" font-size="7">M</text>
    <text x="60" y="0" text-anchor="middle" class="text-muted" font-size="7">T</text>
    <text x="85" y="0" text-anchor="middle" class="text-muted" font-size="7">W</text>
    <text x="110" y="0" text-anchor="middle" class="text-muted" font-size="7">T</text>
    <text x="135" y="0" text-anchor="middle" class="text-muted" font-size="7">F</text>
    <text x="155" y="0" text-anchor="middle" class="text-muted" font-size="7">S</text>

    <!-- Week row -->
    <text x="10" y="20" text-anchor="middle" class="text-muted" font-size="9">8</text>
    <circle cx="35" cy="16" r="10" fill="#8b5cf6"/>
    <text x="35" y="20" text-anchor="middle" fill="#fff" font-size="9">9</text>
    <text x="60" y="20" text-anchor="middle" class="text-sm" font-size="9">10</text>
    <text x="85" y="20" text-anchor="middle" class="text-sm" font-size="9">11</text>
    <text x="110" y="20" text-anchor="middle" class="text-sm" font-size="9">12</text>
    <text x="135" y="20" text-anchor="middle" class="text-sm" font-size="9">13</text>
    <text x="155" y="20" text-anchor="middle" class="text-muted" font-size="9">14</text>
  </g>

  <!-- Mobile Time Slots -->
  <text x="917" y="250" text-anchor="middle" class="text-muted" font-size="9">December 9 - Available</text>

  <rect x="840" y="260" width="75" height="28" rx="4" fill="#8b5cf6" opacity="0.15" stroke="#8b5cf6"/>
  <text x="877" y="278" text-anchor="middle" fill="#8b5cf6" font-size="9">9:00 AM</text>

  <rect x="920" y="260" width="75" height="28" rx="4" fill="#0f172a" stroke="#475569"/>
  <text x="957" y="278" text-anchor="middle" class="text-sm" font-size="9">9:30 AM</text>

  <rect x="840" y="293" width="75" height="28" rx="4" fill="#0f172a" stroke="#475569"/>
  <text x="877" y="311" text-anchor="middle" class="text-sm" font-size="9">10:00 AM</text>

  <rect x="920" y="293" width="75" height="28" rx="4" fill="#0f172a" stroke="#475569"/>
  <text x="957" y="311" text-anchor="middle" class="text-sm" font-size="9">10:30 AM</text>

  <rect x="840" y="326" width="75" height="28" rx="4" fill="#0f172a" stroke="#475569"/>
  <text x="877" y="344" text-anchor="middle" class="text-sm" font-size="9">2:00 PM</text>

  <rect x="920" y="326" width="75" height="28" rx="4" fill="#0f172a" stroke="#475569"/>
  <text x="957" y="344" text-anchor="middle" class="text-sm" font-size="9">2:30 PM</text>

  <!-- Confirm Button -->
  <rect x="840" y="365" width="155" height="38" rx="6" fill="url(#accentGrad)"/>
  <text x="917" y="389" text-anchor="middle" fill="#fff" class="text-md">Confirm 9:00 AM</text>

  <!-- Mobile Provider Toggle -->
  <rect x="850" y="415" width="135" height="26" rx="4" fill="#0f172a" stroke="#475569"/>
  <rect x="853" y="418" width="65" height="20" rx="3" fill="url(#accentGrad)"/>
  <text x="885" y="432" text-anchor="middle" fill="#fff" font-size="8">Calendly</text>
  <text x="950" y="432" text-anchor="middle" class="text-muted" font-size="8">Cal.com</text>

  <!-- Consent Required State (shown as overlay example) -->
  <rect x="840" y="447" width="155" height="18" rx="3" fill="#0f172a" stroke="#475569" stroke-dasharray="2"/>
  <text x="917" y="459" text-anchor="middle" class="text-muted" font-size="7">Consent required for embed</text>

  <!-- Phone Home Indicator -->
  <rect x="880" y="458" width="75" height="4" rx="2" fill="#475569"/>

  <!-- ==================== ANNOTATIONS ==================== -->
  <text x="30" y="590" class="section-label">SPECIFICATIONS (080-calendar-integration.md)</text>

  <rect x="30" y="600" width="275" height="80" rx="4" fill="#8b5cf6" opacity="0.08" stroke="#8b5cf6" stroke-width="1" stroke-dasharray="4"/>
  <text x="42" y="618" class="annotation">FR-001: Calendly inline/popup embed</text>
  <text x="42" y="632" class="annotation">FR-002: Cal.com inline/popup embed</text>
  <text x="42" y="646" class="annotation">FR-003: Provider abstraction layer</text>
  <text x="42" y="660" class="annotation">FR-004: Responsive embed design</text>
  <text x="42" y="674" class="annotation">FR-005: Dynamic component loading (SSR:false)</text>

  <rect x="320" y="600" width="275" height="80" rx="4" fill="#8b5cf6" opacity="0.08" stroke="#8b5cf6" stroke-width="1" stroke-dasharray="4"/>
  <text x="332" y="618" class="annotation">FR-006: Theme-aware styling (32 themes)</text>
  <text x="332" y="632" class="annotation">FR-007: UTM tracking for analytics</text>
  <text x="332" y="646" class="annotation">FR-008: Event tracking (view/select/book)</text>
  <text x="332" y="660" class="annotation">FR-009: Prefill name/email from auth</text>
  <text x="332" y="674" class="annotation">FR-010: Consent check before embed</text>

  <rect x="610" y="600" width="275" height="80" rx="4" fill="#8b5cf6" opacity="0.08" stroke="#8b5cf6" stroke-width="1" stroke-dasharray="4"/>
  <text x="622" y="618" class="annotation">FR-011: GDPR consent required</text>
  <text x="622" y="632" class="annotation">FR-012: Loading spinner placeholder</text>
  <text x="622" y="646" class="annotation">FR-013: Error state for missing URL</text>
  <text x="622" y="660" class="annotation">FR-014: Provider switcher toggle</text>
  <text x="622" y="674" class="annotation">FR-015: Mobile fullscreen calendar</text>

  <rect x="900" y="600" width="275" height="80" rx="4" fill="#8b5cf6" opacity="0.08" stroke="#8b5cf6" stroke-width="1" stroke-dasharray="4"/>
  <text x="912" y="618" class="annotation">NFR-001: 700px default height</text>
  <text x="912" y="632" class="annotation">NFR-002: 500px minimum height</text>
  <text x="912" y="646" class="annotation">SC-001: Works across all 32 themes</text>
  <text x="912" y="660" class="annotation">SC-002: WCAG AA accessibility</text>
  <text x="912" y="674" class="annotation">SC-003: 44px min touch targets</text>

</svg>
