<svg xmlns="http://www.w3.org/2000/svg" viewBox="0 0 1200 800" width="1200" height="800">
  <defs>
    <linearGradient id="bgGrad" x1="0%" y1="0%" x2="100%" y2="100%">
      <stop offset="0%" style="stop-color:#0f172a"/>
      <stop offset="100%" style="stop-color:#1e293b"/>
    </linearGradient>
    <linearGradient id="accentGrad" x1="0%" y1="0%" x2="100%" y2="0%">
      <stop offset="0%" style="stop-color:#8b5cf6"/>
      <stop offset="100%" style="stop-color:#d946ef"/>
    </linearGradient>
  </defs>

  <!-- Background -->
  <rect width="1200" height="800" fill="url(#bgGrad)"/>

  <!-- Dot grid pattern -->
  <g opacity="0.03">
    <pattern id="dots" width="30" height="30" patternUnits="userSpaceOnUse">
      <circle cx="15" cy="15" r="1" fill="#fff"/>
    </pattern>
    <rect width="1200" height="800" fill="url(#dots)"/>
  </g>

  <!-- Accent line top -->
  <rect x="0" y="0" width="1200" height="3" fill="url(#accentGrad)"/>

  <!-- Title -->
  <text x="600" y="30" text-anchor="middle" font-family="system-ui, sans-serif" font-size="14" font-weight="600" fill="#64748b" letter-spacing="1">INSTALL PROMPT</text>

  <!-- ==================== DESKTOP INSTALL BANNER ==================== -->

  <text x="220" y="60" text-anchor="middle" font-family="system-ui, sans-serif" font-size="11" font-weight="600" fill="#94a3b8">DESKTOP INSTALL BANNER</text>

  <!-- Desktop browser frame -->
  <rect x="40" y="75" width="360" height="280" rx="8" fill="#1e293b" stroke="#475569" stroke-width="1"/>

  <!-- Browser chrome -->
  <rect x="40" y="75" width="360" height="30" fill="#334155" rx="8"/>
  <rect x="40" y="97" width="360" height="8" fill="#1e293b"/>
  <circle cx="58" cy="90" r="5" fill="#ef4444"/>
  <circle cx="76" cy="90" r="5" fill="#eab308"/>
  <circle cx="94" cy="90" r="5" fill="#22c55e"/>
  <rect x="115" y="82" width="200" height="16" rx="4" fill="#475569"/>
  <text x="215" y="93" text-anchor="middle" font-family="system-ui, sans-serif" font-size="9" fill="#94a3b8">scripthammer.com</text>

  <!-- Install banner at top -->
  <rect x="55" y="115" width="330" height="50" rx="6" fill="#1e293b" stroke="#8b5cf6" stroke-width="1"/>

  <!-- App icon -->
  <rect x="70" y="125" width="30" height="30" rx="6" fill="url(#accentGrad)"/>
  <text x="85" y="146" text-anchor="middle" font-family="system-ui, sans-serif" font-size="16" font-weight="bold" fill="#fff">S</text>

  <text x="115" y="140" font-family="system-ui, sans-serif" font-size="11" font-weight="500" fill="#fff">Install ScriptHammer</text>
  <text x="115" y="155" font-family="system-ui, sans-serif" font-size="9" fill="#94a3b8">Get quick access from your desktop</text>

  <!-- Install button -->
  <rect x="295" y="128" width="75" height="28" rx="4" fill="#8b5cf6"/>
  <text x="332" y="147" text-anchor="middle" font-family="system-ui, sans-serif" font-size="10" font-weight="500" fill="#fff">Install</text>

  <!-- Dismiss X -->
  <text x="375" y="125" font-family="system-ui, sans-serif" font-size="14" fill="#64748b">×</text>

  <!-- Page content beneath -->
  <rect x="55" y="175" width="330" height="165" fill="#0f172a"/>
  <rect x="70" y="190" width="200" height="16" rx="2" fill="#334155"/>
  <rect x="70" y="215" width="300" height="8" rx="2" fill="#334155" opacity="0.5"/>
  <rect x="70" y="230" width="280" height="8" rx="2" fill="#334155" opacity="0.5"/>
  <rect x="70" y="260" width="140" height="60" rx="4" fill="#334155"/>
  <rect x="220" y="260" width="140" height="60" rx="4" fill="#334155"/>

  <!-- ==================== MOBILE BOTTOM SHEET ==================== -->

  <text x="600" y="60" text-anchor="middle" font-family="system-ui, sans-serif" font-size="11" font-weight="600" fill="#94a3b8">MOBILE BOTTOM SHEET</text>

  <!-- Mobile frame -->
  <rect x="420" y="75" width="360" height="650" rx="24" fill="#1e293b" stroke="#475569" stroke-width="2"/>

  <!-- Mobile notch -->
  <rect x="550" y="75" width="100" height="24" rx="12" fill="#0f172a"/>

  <!-- Status bar -->
  <text x="445" y="94" font-family="system-ui, sans-serif" font-size="10" fill="#94a3b8">9:41</text>
  <text x="745" y="94" font-family="system-ui, sans-serif" font-size="10" fill="#94a3b8">100%</text>

  <!-- Page content (dimmed) -->
  <rect x="435" y="110" width="330" height="350" fill="#0f172a" opacity="0.5"/>
  <rect x="450" y="130" width="200" height="20" rx="2" fill="#334155" opacity="0.3"/>
  <rect x="450" y="160" width="300" height="10" rx="2" fill="#334155" opacity="0.3"/>
  <rect x="450" y="180" width="280" height="10" rx="2" fill="#334155" opacity="0.3"/>
  <rect x="450" y="220" width="140" height="100" rx="4" fill="#334155" opacity="0.3"/>
  <rect x="600" y="220" width="140" height="100" rx="4" fill="#334155" opacity="0.3"/>

  <!-- Bottom sheet overlay -->
  <rect x="420" y="460" width="360" height="265" rx="0 0 24 24" fill="#1e293b"/>
  <rect x="420" y="460" width="360" height="24" fill="#334155"/>

  <!-- Sheet handle -->
  <rect x="575" y="468" width="50" height="4" rx="2" fill="#64748b"/>

  <!-- App info in sheet -->
  <rect x="530" y="495" width="60" height="60" rx="12" fill="url(#accentGrad)"/>
  <text x="560" y="535" text-anchor="middle" font-family="system-ui, sans-serif" font-size="28" font-weight="bold" fill="#fff">S</text>

  <text x="600" y="575" text-anchor="middle" font-family="system-ui, sans-serif" font-size="16" font-weight="600" fill="#fff">ScriptHammer</text>
  <text x="600" y="595" text-anchor="middle" font-family="system-ui, sans-serif" font-size="12" fill="#94a3b8">scripthammer.com</text>

  <!-- Benefits list -->
  <g transform="translate(455, 615)">
    <circle cx="8" cy="8" r="8" fill="#166534"/>
    <path d="M5 8l2 2 4-4" stroke="#86efac" stroke-width="1.2" stroke-linecap="round" stroke-linejoin="round" fill="none"/>
    <text x="25" y="12" font-family="system-ui, sans-serif" font-size="11" fill="#94a3b8">Works offline</text>
  </g>

  <g transform="translate(595, 615)">
    <circle cx="8" cy="8" r="8" fill="#166534"/>
    <path d="M5 8l2 2 4-4" stroke="#86efac" stroke-width="1.2" stroke-linecap="round" stroke-linejoin="round" fill="none"/>
    <text x="25" y="12" font-family="system-ui, sans-serif" font-size="11" fill="#94a3b8">Quick launch</text>
  </g>

  <g transform="translate(455, 640)">
    <circle cx="8" cy="8" r="8" fill="#166534"/>
    <path d="M5 8l2 2 4-4" stroke="#86efac" stroke-width="1.2" stroke-linecap="round" stroke-linejoin="round" fill="none"/>
    <text x="25" y="12" font-family="system-ui, sans-serif" font-size="11" fill="#94a3b8">Push notifications</text>
  </g>

  <g transform="translate(595, 640)">
    <circle cx="8" cy="8" r="8" fill="#166534"/>
    <path d="M5 8l2 2 4-4" stroke="#86efac" stroke-width="1.2" stroke-linecap="round" stroke-linejoin="round" fill="none"/>
    <text x="25" y="12" font-family="system-ui, sans-serif" font-size="11" fill="#94a3b8">Background sync</text>
  </g>

  <!-- Action buttons -->
  <rect x="450" y="675" width="145" height="44" rx="8" fill="#334155" stroke="#475569" stroke-width="1"/>
  <text x="522" y="702" text-anchor="middle" font-family="system-ui, sans-serif" font-size="13" fill="#94a3b8">Not Now</text>

  <rect x="605" y="675" width="145" height="44" rx="8" fill="#8b5cf6"/>
  <text x="677" y="702" text-anchor="middle" font-family="system-ui, sans-serif" font-size="13" font-weight="500" fill="#fff">Install App</text>

  <!-- ==================== iOS INSTRUCTIONS ==================== -->

  <text x="980" y="60" text-anchor="middle" font-family="system-ui, sans-serif" font-size="11" font-weight="600" fill="#94a3b8">iOS SAFARI INSTRUCTIONS</text>

  <!-- iOS phone frame -->
  <rect x="800" y="75" width="360" height="650" rx="24" fill="#1e293b" stroke="#475569" stroke-width="2"/>

  <!-- iOS notch (dynamic island style) -->
  <rect x="930" y="75" width="100" height="24" rx="12" fill="#0f172a"/>

  <!-- Safari share sheet mockup -->
  <rect x="815" y="110" width="330" height="250" fill="#0f172a" opacity="0.5"/>

  <!-- Instructions overlay -->
  <rect x="815" y="360" width="330" height="350" fill="#1e293b"/>
  <rect x="815" y="360" width="330" height="24" fill="#334155"/>
  <rect x="955" y="368" width="50" height="4" rx="2" fill="#64748b"/>

  <!-- Step indicator -->
  <text x="980" y="405" text-anchor="middle" font-family="system-ui, sans-serif" font-size="14" font-weight="600" fill="#fff">Add to Home Screen</text>
  <text x="980" y="425" text-anchor="middle" font-family="system-ui, sans-serif" font-size="11" fill="#94a3b8">iOS doesn't support auto-install prompts</text>

  <!-- Step 1 -->
  <rect x="835" y="445" width="290" height="60" rx="6" fill="#334155"/>
  <rect x="850" y="460" width="30" height="30" rx="6" fill="#8b5cf6"/>
  <text x="865" y="481" text-anchor="middle" font-family="system-ui, sans-serif" font-size="14" font-weight="bold" fill="#fff">1</text>
  <text x="895" y="472" font-family="system-ui, sans-serif" font-size="11" font-weight="500" fill="#fff">Tap the Share button</text>
  <text x="895" y="490" font-family="system-ui, sans-serif" font-size="10" fill="#94a3b8">At the bottom of Safari</text>
  <!-- Share icon -->
  <g transform="translate(1085, 460)">
    <rect x="0" y="8" width="20" height="16" rx="2" stroke="#94a3b8" fill="none" stroke-width="1.5"/>
    <path d="M10 0v14M6 4l4-4 4 4" stroke="#94a3b8" stroke-width="1.5" stroke-linecap="round" stroke-linejoin="round" fill="none"/>
  </g>

  <!-- Step 2 -->
  <rect x="835" y="515" width="290" height="60" rx="6" fill="#334155"/>
  <rect x="850" y="530" width="30" height="30" rx="6" fill="#8b5cf6"/>
  <text x="865" y="551" text-anchor="middle" font-family="system-ui, sans-serif" font-size="14" font-weight="bold" fill="#fff">2</text>
  <text x="895" y="542" font-family="system-ui, sans-serif" font-size="11" font-weight="500" fill="#fff">Scroll and tap "Add to Home Screen"</text>
  <text x="895" y="560" font-family="system-ui, sans-serif" font-size="10" fill="#94a3b8">In the share menu options</text>
  <!-- Plus icon -->
  <g transform="translate(1085, 530)">
    <rect x="0" y="0" width="24" height="24" rx="4" stroke="#94a3b8" fill="none" stroke-width="1.5"/>
    <path d="M12 6v12M6 12h12" stroke="#94a3b8" stroke-width="1.5" stroke-linecap="round" fill="none"/>
  </g>

  <!-- Step 3 -->
  <rect x="835" y="585" width="290" height="60" rx="6" fill="#334155"/>
  <rect x="850" y="600" width="30" height="30" rx="6" fill="#8b5cf6"/>
  <text x="865" y="621" text-anchor="middle" font-family="system-ui, sans-serif" font-size="14" font-weight="bold" fill="#fff">3</text>
  <text x="895" y="612" font-family="system-ui, sans-serif" font-size="11" font-weight="500" fill="#fff">Tap "Add" in the top right</text>
  <text x="895" y="630" font-family="system-ui, sans-serif" font-size="10" fill="#94a3b8">App will appear on your home screen</text>
  <!-- Check icon -->
  <g transform="translate(1085, 600)">
    <circle cx="12" cy="12" r="11" stroke="#22c55e" fill="none" stroke-width="1.5"/>
    <path d="M7 12l3 3 6-6" stroke="#22c55e" stroke-width="1.5" stroke-linecap="round" stroke-linejoin="round" fill="none"/>
  </g>

  <!-- Got it button -->
  <rect x="880" y="660" width="160" height="40" rx="8" fill="#8b5cf6"/>
  <text x="960" y="686" text-anchor="middle" font-family="system-ui, sans-serif" font-size="13" font-weight="500" fill="#fff">Got it!</text>

  <!-- ==================== INSTALLED STATE ==================== -->

  <text x="220" y="385" text-anchor="middle" font-family="system-ui, sans-serif" font-size="11" font-weight="600" fill="#94a3b8">INSTALLED STATE</text>

  <!-- Desktop installed indicator -->
  <rect x="40" y="400" width="360" height="120" rx="8" fill="#1e293b" stroke="#22c55e" stroke-width="1"/>

  <g transform="translate(70, 430)">
    <circle cx="20" cy="20" r="20" fill="#166534"/>
    <path d="M12 20l6 6 12-12" stroke="#86efac" stroke-width="2.5" stroke-linecap="round" stroke-linejoin="round" fill="none"/>
  </g>

  <text x="125" y="445" font-family="system-ui, sans-serif" font-size="14" font-weight="600" fill="#fff">App Installed!</text>
  <text x="125" y="465" font-family="system-ui, sans-serif" font-size="11" fill="#94a3b8">ScriptHammer is now on your desktop</text>

  <rect x="125" y="480" width="120" height="28" rx="4" fill="#334155" stroke="#475569" stroke-width="1"/>
  <text x="185" y="499" text-anchor="middle" font-family="system-ui, sans-serif" font-size="10" fill="#94a3b8">Open App</text>

  <rect x="255" y="480" width="120" height="28" rx="4" fill="#334155" stroke="#475569" stroke-width="1"/>
  <text x="315" y="499" text-anchor="middle" font-family="system-ui, sans-serif" font-size="10" fill="#94a3b8">Dismiss</text>

  <!-- ==================== STANDALONE APP VIEW ==================== -->

  <text x="220" y="550" text-anchor="middle" font-family="system-ui, sans-serif" font-size="11" font-weight="600" fill="#94a3b8">STANDALONE APP (NO BROWSER CHROME)</text>

  <!-- Standalone window -->
  <rect x="40" y="565" width="360" height="200" rx="8" fill="#0f172a" stroke="#8b5cf6" stroke-width="2"/>

  <!-- Custom title bar -->
  <rect x="40" y="565" width="360" height="32" fill="#1e293b" rx="8"/>
  <rect x="40" y="589" width="360" height="8" fill="#0f172a"/>

  <!-- App icon in title bar -->
  <rect x="55" y="572" width="18" height="18" rx="4" fill="url(#accentGrad)"/>
  <text x="64" y="585" text-anchor="middle" font-family="system-ui, sans-serif" font-size="10" font-weight="bold" fill="#fff">S</text>
  <text x="85" y="585" font-family="system-ui, sans-serif" font-size="11" font-weight="500" fill="#fff">ScriptHammer</text>

  <!-- Window controls -->
  <circle cx="358" cy="581" r="5" fill="#ef4444"/>
  <circle cx="376" cy="581" r="5" fill="#eab308"/>
  <circle cx="394" cy="581" r="5" fill="#22c55e"/>

  <!-- App content -->
  <rect x="55" y="610" width="200" height="16" rx="2" fill="#334155"/>
  <rect x="55" y="635" width="330" height="8" rx="2" fill="#334155" opacity="0.5"/>
  <rect x="55" y="650" width="300" height="8" rx="2" fill="#334155" opacity="0.5"/>
  <rect x="55" y="680" width="155" height="70" rx="4" fill="#334155"/>
  <rect x="220" y="680" width="155" height="70" rx="4" fill="#334155"/>

  <!-- ==================== ANNOTATIONS ==================== -->

  <rect x="40" y="780" width="180" height="55" rx="4" fill="#1e293b" stroke="#8b5cf6" stroke-width="1"/>
  <text x="55" y="800" font-family="monospace" font-size="10" fill="#8b5cf6">beforeinstallprompt</text>
  <text x="55" y="815" font-family="system-ui, sans-serif" font-size="9" fill="#94a3b8">Chrome/Edge event API</text>
  <text x="55" y="828" font-family="system-ui, sans-serif" font-size="9" fill="#94a3b8">for custom install UI</text>

  <rect x="240" y="780" width="180" height="55" rx="4" fill="#1e293b" stroke="#8b5cf6" stroke-width="1"/>
  <text x="255" y="800" font-family="monospace" font-size="10" fill="#8b5cf6">manifest.json</text>
  <text x="255" y="815" font-family="system-ui, sans-serif" font-size="9" fill="#94a3b8">PWA configuration file</text>
  <text x="255" y="828" font-family="system-ui, sans-serif" font-size="9" fill="#94a3b8">name, icons, theme</text>

  <rect x="440" y="780" width="180" height="55" rx="4" fill="#1e293b" stroke="#8b5cf6" stroke-width="1"/>
  <text x="455" y="800" font-family="monospace" font-size="10" fill="#8b5cf6">display: standalone</text>
  <text x="455" y="815" font-family="system-ui, sans-serif" font-size="9" fill="#94a3b8">Removes browser UI</text>
  <text x="455" y="828" font-family="system-ui, sans-serif" font-size="9" fill="#94a3b8">Native app feel</text>

  <rect x="640" y="780" width="180" height="55" rx="4" fill="#1e293b" stroke="#8b5cf6" stroke-width="1"/>
  <text x="655" y="800" font-family="monospace" font-size="10" fill="#8b5cf6">iOS Limitations</text>
  <text x="655" y="815" font-family="system-ui, sans-serif" font-size="9" fill="#94a3b8">No auto-prompt</text>
  <text x="655" y="828" font-family="system-ui, sans-serif" font-size="9" fill="#94a3b8">Manual share → add</text>

  <rect x="840" y="780" width="180" height="55" rx="4" fill="#1e293b" stroke="#8b5cf6" stroke-width="1"/>
  <text x="855" y="800" font-family="monospace" font-size="10" fill="#8b5cf6">Install Criteria</text>
  <text x="855" y="815" font-family="system-ui, sans-serif" font-size="9" fill="#94a3b8">HTTPS + Service Worker</text>
  <text x="855" y="828" font-family="system-ui, sans-serif" font-size="9" fill="#94a3b8">+ valid manifest</text>

  <rect x="1040" y="780" width="120" height="55" rx="4" fill="#1e293b" stroke="#8b5cf6" stroke-width="1"/>
  <text x="1055" y="800" font-family="monospace" font-size="10" fill="#8b5cf6">appinstalled</text>
  <text x="1055" y="815" font-family="system-ui, sans-serif" font-size="9" fill="#94a3b8">Track installs</text>
  <text x="1055" y="828" font-family="system-ui, sans-serif" font-size="9" fill="#94a3b8">Analytics event</text>
</svg>
