<svg xmlns="http://www.w3.org/2000/svg" viewBox="0 0 1200 800" width="1200" height="800">
  <defs>
    <linearGradient id="bgGrad" x1="0%" y1="0%" x2="100%" y2="100%">
      <stop offset="0%" style="stop-color:#0f172a"/>
      <stop offset="100%" style="stop-color:#1e293b"/>
    </linearGradient>
    <linearGradient id="accentGrad" x1="0%" y1="0%" x2="100%" y2="0%">
      <stop offset="0%" style="stop-color:#8b5cf6"/>
      <stop offset="100%" style="stop-color:#d946ef"/>
    </linearGradient>
    <linearGradient id="warningGrad" x1="0%" y1="0%" x2="100%" y2="0%">
      <stop offset="0%" style="stop-color:#f59e0b"/>
      <stop offset="100%" style="stop-color:#eab308"/>
    </linearGradient>
  </defs>

  <!-- Background -->
  <rect width="1200" height="800" fill="url(#bgGrad)"/>

  <!-- Dot grid pattern -->
  <g opacity="0.03">
    <pattern id="dots" width="30" height="30" patternUnits="userSpaceOnUse">
      <circle cx="15" cy="15" r="1" fill="#fff"/>
    </pattern>
    <rect width="1200" height="800" fill="url(#dots)"/>
  </g>

  <!-- Accent line top -->
  <rect x="0" y="0" width="1200" height="3" fill="url(#accentGrad)"/>

  <!-- Title -->
  <text x="600" y="30" text-anchor="middle" font-family="system-ui, sans-serif" font-size="14" font-weight="600" fill="#64748b" letter-spacing="1">OFFLINE MODE</text>

  <!-- ==================== DESKTOP VIEW ==================== -->

  <!-- Desktop Frame -->
  <rect x="40" y="50" width="700" height="500" rx="8" fill="#1e293b" stroke="#475569" stroke-width="1"/>

  <!-- Offline Banner - Desktop -->
  <rect x="40" y="50" width="700" height="36" rx="8" fill="#78350f"/>
  <rect x="40" y="78" width="700" height="8" fill="#1e293b"/>

  <!-- Wifi off icon -->
  <g transform="translate(60, 60)">
    <path d="M4 8l2 2m0 0l2 2m-2-2l2-2m-2 2l-2 2" stroke="#fbbf24" stroke-width="1.5" stroke-linecap="round" fill="none"/>
    <circle cx="6" cy="10" r="6" stroke="#fbbf24" stroke-width="1" fill="none"/>
  </g>
  <text x="85" y="73" font-family="system-ui, sans-serif" font-size="12" font-weight="500" fill="#fbbf24">You're offline</text>
  <text x="180" y="73" font-family="system-ui, sans-serif" font-size="11" fill="#fcd34d">Some features may be limited</text>

  <!-- Queue indicator badge -->
  <rect x="660" y="58" width="60" height="20" rx="10" fill="#7c3aed"/>
  <text x="690" y="72" text-anchor="middle" font-family="system-ui, sans-serif" font-size="10" font-weight="600" fill="#fff">3 queued</text>

  <!-- Header -->
  <rect x="40" y="86" width="700" height="50" fill="#1e293b"/>
  <circle cx="75" cy="111" r="16" fill="#334155"/>
  <text x="75" y="116" text-anchor="middle" font-family="system-ui, sans-serif" font-size="14" font-weight="bold" fill="#8b5cf6">S</text>
  <text x="105" y="116" font-family="system-ui, sans-serif" font-size="14" font-weight="600" fill="#fff">ScriptHammer</text>

  <!-- Nav items with cache indicators -->
  <text x="350" y="116" font-family="system-ui, sans-serif" font-size="12" fill="#94a3b8">Home</text>
  <circle cx="378" cy="112" r="4" fill="#22c55e"/>

  <text x="420" y="116" font-family="system-ui, sans-serif" font-size="12" fill="#94a3b8">Blog</text>
  <circle cx="448" cy="112" r="4" fill="#22c55e"/>

  <text x="490" y="116" font-family="system-ui, sans-serif" font-size="12" fill="#94a3b8">Messages</text>
  <circle cx="545" cy="112" r="4" fill="#eab308"/>

  <text x="590" y="116" font-family="system-ui, sans-serif" font-size="12" fill="#64748b">Settings</text>
  <circle cx="640" cy="112" r="4" fill="#64748b"/>

  <!-- Cache legend -->
  <rect x="655" y="100" width="75" height="26" rx="4" fill="#334155"/>
  <circle cx="668" cy="113" r="4" fill="#22c55e"/>
  <text x="678" y="110" font-family="system-ui, sans-serif" font-size="8" fill="#94a3b8">Cached</text>
  <circle cx="668" cy="120" r="4" fill="#64748b"/>
  <text x="678" y="123" font-family="system-ui, sans-serif" font-size="8" fill="#94a3b8">Unavailable</text>

  <!-- Main Content Area -->
  <rect x="55" y="150" width="450" height="385" rx="6" fill="#334155"/>

  <!-- Blog post cards (cached content) -->
  <rect x="70" y="165" width="420" height="90" rx="4" fill="#1e293b" stroke="#475569" stroke-width="1"/>
  <rect x="85" y="180" width="60" height="60" rx="4" fill="#475569"/>
  <text x="160" y="195" font-family="system-ui, sans-serif" font-size="13" font-weight="600" fill="#fff">Getting Started with PWA</text>
  <text x="160" y="212" font-family="system-ui, sans-serif" font-size="11" fill="#94a3b8">Learn how to build progressive web apps...</text>
  <text x="160" y="232" font-family="system-ui, sans-serif" font-size="10" fill="#64748b">Dec 15, 2024 • 5 min read</text>
  <!-- Cached badge -->
  <rect x="420" y="175" width="55" height="18" rx="9" fill="#166534"/>
  <text x="447" y="187" text-anchor="middle" font-family="system-ui, sans-serif" font-size="9" fill="#86efac">Cached</text>

  <rect x="70" y="265" width="420" height="90" rx="4" fill="#1e293b" stroke="#475569" stroke-width="1"/>
  <rect x="85" y="280" width="60" height="60" rx="4" fill="#475569"/>
  <text x="160" y="295" font-family="system-ui, sans-serif" font-size="13" font-weight="600" fill="#fff">Offline-First Architecture</text>
  <text x="160" y="312" font-family="system-ui, sans-serif" font-size="11" fill="#94a3b8">Design patterns for resilient applications...</text>
  <text x="160" y="332" font-family="system-ui, sans-serif" font-size="10" fill="#64748b">Dec 12, 2024 • 8 min read</text>
  <rect x="420" y="275" width="55" height="18" rx="9" fill="#166534"/>
  <text x="447" y="287" text-anchor="middle" font-family="system-ui, sans-serif" font-size="9" fill="#86efac">Cached</text>

  <!-- Unavailable content placeholder -->
  <rect x="70" y="365" width="420" height="90" rx="4" fill="#1e293b" stroke="#475569" stroke-width="1" stroke-dasharray="4,4" opacity="0.5"/>
  <rect x="85" y="380" width="60" height="60" rx="4" fill="#334155"/>
  <text x="115" y="415" text-anchor="middle" font-family="system-ui, sans-serif" font-size="20" fill="#64748b">?</text>
  <text x="160" y="400" font-family="system-ui, sans-serif" font-size="13" fill="#64748b">Content unavailable offline</text>
  <text x="160" y="420" font-family="system-ui, sans-serif" font-size="11" fill="#475569">Connect to internet to view this post</text>
  <rect x="420" y="375" width="55" height="18" rx="9" fill="#374151"/>
  <text x="447" y="387" text-anchor="middle" font-family="system-ui, sans-serif" font-size="9" fill="#9ca3af">Offline</text>

  <!-- Load more disabled -->
  <rect x="170" y="470" width="200" height="36" rx="6" fill="#374151" opacity="0.5"/>
  <text x="270" y="493" text-anchor="middle" font-family="system-ui, sans-serif" font-size="12" fill="#6b7280">Load More (Offline)</text>

  <!-- Sidebar - Queue Panel -->
  <rect x="520" y="150" width="205" height="385" rx="6" fill="#334155"/>

  <text x="535" y="175" font-family="system-ui, sans-serif" font-size="12" font-weight="600" fill="#fff">Pending Actions</text>
  <rect x="650" y="162" width="24" height="18" rx="9" fill="#7c3aed"/>
  <text x="662" y="175" text-anchor="middle" font-family="system-ui, sans-serif" font-size="10" font-weight="600" fill="#fff">3</text>

  <!-- Queued item 1 -->
  <rect x="535" y="195" width="175" height="55" rx="4" fill="#1e293b"/>
  <rect x="545" y="205" width="4" height="35" rx="2" fill="#eab308"/>
  <text x="560" y="218" font-family="system-ui, sans-serif" font-size="11" font-weight="500" fill="#fff">Contact Form</text>
  <text x="560" y="232" font-family="system-ui, sans-serif" font-size="10" fill="#94a3b8">Queued 2 min ago</text>
  <rect x="560" y="238" width="100" height="4" rx="2" fill="#475569"/>
  <text x="680" y="232" font-family="system-ui, sans-serif" font-size="9" fill="#eab308">Waiting</text>

  <!-- Queued item 2 -->
  <rect x="535" y="260" width="175" height="55" rx="4" fill="#1e293b"/>
  <rect x="545" y="270" width="4" height="35" rx="2" fill="#eab308"/>
  <text x="560" y="283" font-family="system-ui, sans-serif" font-size="11" font-weight="500" fill="#fff">Profile Update</text>
  <text x="560" y="297" font-family="system-ui, sans-serif" font-size="10" fill="#94a3b8">Queued 5 min ago</text>
  <rect x="560" y="303" width="100" height="4" rx="2" fill="#475569"/>
  <text x="680" y="297" font-family="system-ui, sans-serif" font-size="9" fill="#eab308">Waiting</text>

  <!-- Queued item 3 -->
  <rect x="535" y="325" width="175" height="55" rx="4" fill="#1e293b"/>
  <rect x="545" y="335" width="4" height="35" rx="2" fill="#eab308"/>
  <text x="560" y="348" font-family="system-ui, sans-serif" font-size="11" font-weight="500" fill="#fff">Message to John</text>
  <text x="560" y="362" font-family="system-ui, sans-serif" font-size="10" fill="#94a3b8">Queued 8 min ago</text>
  <rect x="560" y="368" width="100" height="4" rx="2" fill="#475569"/>
  <text x="680" y="362" font-family="system-ui, sans-serif" font-size="9" fill="#eab308">Waiting</text>

  <!-- Sync info -->
  <rect x="535" y="400" width="175" height="45" rx="4" fill="#1e293b" stroke="#475569" stroke-width="1"/>
  <text x="545" y="420" font-family="system-ui, sans-serif" font-size="10" fill="#94a3b8">Will sync automatically</text>
  <text x="545" y="435" font-family="system-ui, sans-serif" font-size="10" fill="#94a3b8">when connection restores</text>

  <!-- Storage info -->
  <text x="535" y="470" font-family="system-ui, sans-serif" font-size="10" fill="#64748b">Cache Storage</text>
  <rect x="535" y="478" width="175" height="8" rx="4" fill="#475569"/>
  <rect x="535" y="478" width="70" height="8" rx="4" fill="#22c55e"/>
  <text x="535" y="500" font-family="system-ui, sans-serif" font-size="9" fill="#64748b">2.4 MB / 50 MB used</text>

  <!-- Last sync time -->
  <text x="535" y="520" font-family="system-ui, sans-serif" font-size="9" fill="#64748b">Last sync: 15 minutes ago</text>

  <!-- ==================== MOBILE VIEW ==================== -->

  <!-- Mobile Frame -->
  <rect x="780" y="50" width="375" height="700" rx="24" fill="#1e293b" stroke="#475569" stroke-width="2"/>

  <!-- Mobile notch -->
  <rect x="917" y="50" width="100" height="24" rx="12" fill="#0f172a"/>

  <!-- Mobile Offline Banner -->
  <rect x="795" y="85" width="345" height="32" rx="4" fill="#78350f"/>
  <g transform="translate(810, 94)">
    <path d="M3 6l1.5 1.5m0 0l1.5 1.5m-1.5-1.5l1.5-1.5m-1.5 1.5l-1.5 1.5" stroke="#fbbf24" stroke-width="1.2" stroke-linecap="round" fill="none"/>
    <circle cx="4.5" cy="7.5" r="4.5" stroke="#fbbf24" stroke-width="0.8" fill="none"/>
  </g>
  <text x="830" y="105" font-family="system-ui, sans-serif" font-size="11" font-weight="500" fill="#fbbf24">Offline Mode</text>
  <rect x="1070" y="91" width="55" height="20" rx="10" fill="#7c3aed"/>
  <text x="1097" y="105" text-anchor="middle" font-family="system-ui, sans-serif" font-size="9" font-weight="600" fill="#fff">3 queued</text>

  <!-- Mobile Header -->
  <rect x="795" y="125" width="345" height="50" fill="#1e293b"/>
  <circle cx="825" cy="150" r="14" fill="#334155"/>
  <text x="825" y="155" text-anchor="middle" font-family="system-ui, sans-serif" font-size="12" font-weight="bold" fill="#8b5cf6">S</text>
  <text x="850" y="155" font-family="system-ui, sans-serif" font-size="13" font-weight="600" fill="#fff">ScriptHammer</text>

  <!-- Hamburger menu -->
  <g transform="translate(1100, 142)">
    <rect width="20" height="2" rx="1" fill="#94a3b8"/>
    <rect y="6" width="20" height="2" rx="1" fill="#94a3b8"/>
    <rect y="12" width="20" height="2" rx="1" fill="#94a3b8"/>
  </g>

  <!-- Mobile Content -->
  <rect x="795" y="185" width="345" height="480" fill="#0f172a"/>

  <!-- Cached content card 1 -->
  <rect x="810" y="200" width="315" height="100" rx="6" fill="#334155"/>
  <rect x="825" y="215" width="70" height="70" rx="4" fill="#475569"/>
  <text x="910" y="235" font-family="system-ui, sans-serif" font-size="12" font-weight="600" fill="#fff">Getting Started with PWA</text>
  <text x="910" y="252" font-family="system-ui, sans-serif" font-size="10" fill="#94a3b8">Learn how to build</text>
  <text x="910" y="265" font-family="system-ui, sans-serif" font-size="10" fill="#94a3b8">progressive web apps...</text>
  <rect x="910" y="275" width="50" height="16" rx="8" fill="#166534"/>
  <text x="935" y="286" text-anchor="middle" font-family="system-ui, sans-serif" font-size="8" fill="#86efac">Cached</text>

  <!-- Cached content card 2 -->
  <rect x="810" y="310" width="315" height="100" rx="6" fill="#334155"/>
  <rect x="825" y="325" width="70" height="70" rx="4" fill="#475569"/>
  <text x="910" y="345" font-family="system-ui, sans-serif" font-size="12" font-weight="600" fill="#fff">Offline-First Architecture</text>
  <text x="910" y="362" font-family="system-ui, sans-serif" font-size="10" fill="#94a3b8">Design patterns for</text>
  <text x="910" y="375" font-family="system-ui, sans-serif" font-size="10" fill="#94a3b8">resilient applications...</text>
  <rect x="910" y="385" width="50" height="16" rx="8" fill="#166534"/>
  <text x="935" y="396" text-anchor="middle" font-family="system-ui, sans-serif" font-size="8" fill="#86efac">Cached</text>

  <!-- Unavailable content -->
  <rect x="810" y="420" width="315" height="80" rx="6" fill="#334155" stroke="#475569" stroke-dasharray="4,4" opacity="0.5"/>
  <text x="967" y="460" text-anchor="middle" font-family="system-ui, sans-serif" font-size="11" fill="#64748b">Content unavailable offline</text>
  <text x="967" y="478" font-family="system-ui, sans-serif" font-size="10" fill="#475569" text-anchor="middle">Connect to view more</text>

  <!-- Queue preview panel (collapsed) -->
  <rect x="810" y="515" width="315" height="60" rx="6" fill="#1e293b" stroke="#7c3aed" stroke-width="1"/>
  <text x="825" y="540" font-family="system-ui, sans-serif" font-size="11" font-weight="500" fill="#fff">3 actions pending sync</text>
  <text x="825" y="558" font-family="system-ui, sans-serif" font-size="10" fill="#94a3b8">Tap to view queue</text>
  <text x="1095" y="548" font-family="system-ui, sans-serif" font-size="16" fill="#8b5cf6">›</text>

  <!-- Storage indicator -->
  <rect x="810" y="590" width="315" height="40" rx="6" fill="#334155"/>
  <text x="825" y="612" font-family="system-ui, sans-serif" font-size="10" fill="#94a3b8">Cache: 2.4 MB</text>
  <rect x="920" y="603" width="190" height="6" rx="3" fill="#475569"/>
  <rect x="920" y="603" width="76" height="6" rx="3" fill="#22c55e"/>

  <!-- Mobile Bottom Nav -->
  <rect x="795" y="675" width="345" height="75" fill="#1e293b"/>
  <line x1="795" y1="675" x2="1140" y2="675" stroke="#475569" stroke-width="1"/>

  <!-- Nav items -->
  <g transform="translate(840, 695)">
    <rect x="-10" y="-5" width="40" height="40" rx="8" fill="#334155"/>
    <circle cx="10" cy="10" r="4" fill="#22c55e"/>
    <text x="10" y="35" text-anchor="middle" font-family="system-ui, sans-serif" font-size="9" fill="#22c55e">Home</text>
  </g>

  <g transform="translate(920, 695)">
    <circle cx="10" cy="10" r="4" fill="#22c55e"/>
    <text x="10" y="35" text-anchor="middle" font-family="system-ui, sans-serif" font-size="9" fill="#94a3b8">Blog</text>
  </g>

  <g transform="translate(1000, 695)">
    <circle cx="10" cy="10" r="4" fill="#eab308"/>
    <text x="10" y="35" text-anchor="middle" font-family="system-ui, sans-serif" font-size="9" fill="#94a3b8">Messages</text>
    <rect x="18" y="-2" width="14" height="14" rx="7" fill="#7c3aed"/>
    <text x="25" y="8" text-anchor="middle" font-family="system-ui, sans-serif" font-size="8" font-weight="600" fill="#fff">3</text>
  </g>

  <g transform="translate(1080, 695)">
    <circle cx="10" cy="10" r="4" fill="#64748b"/>
    <text x="10" y="35" text-anchor="middle" font-family="system-ui, sans-serif" font-size="9" fill="#64748b">Settings</text>
  </g>

  <!-- ==================== ANNOTATIONS ==================== -->

  <!-- Annotation: Offline Banner -->
  <rect x="40" y="570" width="180" height="50" rx="4" fill="#1e293b" stroke="#8b5cf6" stroke-width="1"/>
  <text x="55" y="590" font-family="monospace" font-size="10" fill="#8b5cf6">Offline Banner</text>
  <text x="55" y="605" font-family="system-ui, sans-serif" font-size="9" fill="#94a3b8">Sticky banner with queue count</text>

  <!-- Annotation: Cache Indicators -->
  <rect x="240" y="570" width="180" height="50" rx="4" fill="#1e293b" stroke="#8b5cf6" stroke-width="1"/>
  <text x="255" y="590" font-family="monospace" font-size="10" fill="#8b5cf6">Cache Status Dots</text>
  <text x="255" y="605" font-family="system-ui, sans-serif" font-size="9" fill="#94a3b8">Green=cached, Gray=unavailable</text>

  <!-- Annotation: Queue Panel -->
  <rect x="440" y="570" width="180" height="50" rx="4" fill="#1e293b" stroke="#8b5cf6" stroke-width="1"/>
  <text x="455" y="590" font-family="monospace" font-size="10" fill="#8b5cf6">Pending Queue</text>
  <text x="455" y="605" font-family="system-ui, sans-serif" font-size="9" fill="#94a3b8">IndexedDB offline actions</text>

  <!-- Annotation: Content Cards -->
  <rect x="640" y="570" width="180" height="50" rx="4" fill="#1e293b" stroke="#8b5cf6" stroke-width="1"/>
  <text x="655" y="590" font-family="monospace" font-size="10" fill="#8b5cf6">Cached Content</text>
  <text x="655" y="605" font-family="system-ui, sans-serif" font-size="9" fill="#94a3b8">Service Worker cache storage</text>

  <!-- Section Labels -->
  <text x="390" y="555" text-anchor="middle" font-family="system-ui, sans-serif" font-size="11" font-weight="500" fill="#64748b">DESKTOP VIEW</text>
  <text x="967" y="770" text-anchor="middle" font-family="system-ui, sans-serif" font-size="11" font-weight="500" fill="#64748b">MOBILE VIEW</text>
</svg>
