<svg xmlns="http://www.w3.org/2000/svg" viewBox="0 0 1200 800" width="1200" height="800">
  <defs>
    <linearGradient id="bgGrad" x1="0%" y1="0%" x2="100%" y2="100%">
      <stop offset="0%" style="stop-color:#0f172a"/>
      <stop offset="100%" style="stop-color:#1e293b"/>
    </linearGradient>
    <linearGradient id="accentGrad" x1="0%" y1="0%" x2="100%" y2="0%">
      <stop offset="0%" style="stop-color:#8b5cf6"/>
      <stop offset="100%" style="stop-color:#d946ef"/>
    </linearGradient>
    <linearGradient id="warningGrad" x1="0%" y1="0%" x2="100%" y2="0%">
      <stop offset="0%" style="stop-color:#f59e0b"/>
      <stop offset="100%" style="stop-color:#eab308"/>
    </linearGradient>
    <style>
      .page-title { fill: #64748b; font-family: system-ui, sans-serif; font-size: 14px; font-weight: 600; letter-spacing: 1px; }
      .section-label { fill: #8b5cf6; font-family: monospace; font-size: 11px; }
      .heading { fill: #ffffff; font-family: system-ui, sans-serif; font-size: 14px; font-weight: bold; }
      .heading-lg { fill: #ffffff; font-family: system-ui, sans-serif; font-size: 18px; font-weight: bold; }
      .text-md { fill: #cbd5e1; font-family: system-ui, sans-serif; font-size: 12px; }
      .text-sm { fill: #94a3b8; font-family: system-ui, sans-serif; font-size: 10px; }
      .text-muted { fill: #64748b; font-family: system-ui, sans-serif; font-size: 10px; }
      .annotation { fill: #8b5cf6; font-family: monospace; font-size: 9px; }
    </style>
  </defs>

  <!-- Background -->
  <rect width="1200" height="800" fill="url(#bgGrad)"/>
  <g opacity="0.03">
    <pattern id="grid" width="40" height="40" patternUnits="userSpaceOnUse">
      <path d="M 40 0 L 0 0 0 40" fill="none" stroke="#fff" stroke-width="0.5"/>
    </pattern>
    <rect width="1200" height="800" fill="url(#grid)"/>
  </g>
  <rect x="0" y="0" width="1200" height="3" fill="url(#accentGrad)"/>

  <!-- Page Title -->
  <text x="600" y="28" text-anchor="middle" class="page-title">PWA &amp; OFFLINE MODE</text>

  <!-- ==================== DESKTOP VIEW ==================== -->
  <text x="405" y="48" text-anchor="middle" class="section-label">DESKTOP - OFFLINE STATE</text>

  <!-- Desktop Browser Frame -->
  <rect x="30" y="55" width="750" height="520" rx="8" fill="#1e293b" stroke="#475569" stroke-width="1"/>
  <rect x="30" y="55" width="750" height="32" rx="8" fill="#334155"/>
  <circle cx="52" cy="71" r="6" fill="#ef4444" opacity="0.8"/>
  <circle cx="72" cy="71" r="6" fill="#eab308" opacity="0.8"/>
  <circle cx="92" cy="71" r="6" fill="#22c55e" opacity="0.8"/>
  <rect x="120" y="63" width="400" height="16" rx="4" fill="#1e293b"/>
  <text x="320" y="75" text-anchor="middle" class="text-muted">scripthammer.com (offline)</text>

  <!-- Desktop Content -->
  <rect x="30" y="87" width="750" height="488" fill="#0f172a"/>

  <!-- Offline Banner -->
  <rect x="30" y="87" width="750" height="36" fill="#78350f"/>
  <!-- Wifi off icon -->
  <circle cx="55" cy="105" r="10" fill="none" stroke="#fbbf24" stroke-width="1.5"/>
  <line x1="50" y1="100" x2="60" y2="110" stroke="#fbbf24" stroke-width="2"/>
  <line x1="60" y1="100" x2="50" y2="110" stroke="#fbbf24" stroke-width="2"/>
  <text x="75" y="110" fill="#fbbf24" class="heading" font-size="12">You're offline</text>
  <text x="180" y="110" fill="#fcd34d" class="text-sm">Some features may be limited</text>
  <!-- Queue badge -->
  <rect x="700" y="93" width="60" height="24" rx="12" fill="#7c3aed"/>
  <text x="730" y="109" text-anchor="middle" fill="#fff" font-size="10" font-weight="600">3 queued</text>

  <!-- Header Bar -->
  <rect x="30" y="123" width="750" height="50" fill="#1e293b"/>
  <text x="60" y="153" class="heading-lg">🔨 ScriptHammer</text>
  <!-- Nav with cache status dots -->
  <text x="200" y="153" class="text-md">Home</text>
  <circle cx="235" cy="149" r="4" fill="#22c55e"/>
  <text x="260" y="153" class="text-md">Blog</text>
  <circle cx="290" cy="149" r="4" fill="#22c55e"/>
  <text x="315" y="153" class="text-md">Messages</text>
  <circle cx="375" cy="149" r="4" fill="#eab308"/>
  <text x="400" y="153" class="text-muted">Settings</text>
  <circle cx="450" cy="149" r="4" fill="#64748b"/>

  <!-- Cache Legend -->
  <rect x="560" y="133" width="200" height="30" rx="4" fill="#0f172a"/>
  <circle cx="580" cy="148" r="4" fill="#22c55e"/>
  <text x="590" y="152" class="text-muted" font-size="8">Cached</text>
  <circle cx="640" cy="148" r="4" fill="#eab308"/>
  <text x="650" y="152" class="text-muted" font-size="8">Partial</text>
  <circle cx="705" cy="148" r="4" fill="#64748b"/>
  <text x="715" y="152" class="text-muted" font-size="8">Not cached</text>

  <!-- Main Content Area -->
  <rect x="50" y="185" width="350" height="200" rx="8" fill="#1e293b" stroke="#475569"/>
  <text x="70" y="215" class="heading">Offline-Ready Content</text>

  <!-- Cached blog posts -->
  <rect x="65" y="230" width="320" height="45" rx="4" fill="#0f172a"/>
  <circle cx="85" cy="252" r="8" fill="#22c55e" opacity="0.2"/>
  <text x="85" y="256" text-anchor="middle" fill="#22c55e" font-size="10">✓</text>
  <text x="105" y="248" class="text-md">Getting Started with PWA</text>
  <text x="105" y="263" class="text-muted">Cached • 2.3 MB</text>

  <rect x="65" y="285" width="320" height="45" rx="4" fill="#0f172a"/>
  <circle cx="85" cy="307" r="8" fill="#22c55e" opacity="0.2"/>
  <text x="85" y="311" text-anchor="middle" fill="#22c55e" font-size="10">✓</text>
  <text x="105" y="303" class="text-md">Building Offline-First Apps</text>
  <text x="105" y="318" class="text-muted">Cached • 1.8 MB</text>

  <rect x="65" y="340" width="320" height="35" rx="4" fill="#0f172a" stroke="#475569" stroke-dasharray="4"/>
  <text x="225" y="362" text-anchor="middle" class="text-muted">+ 12 more cached articles</text>

  <!-- Pending Actions Queue -->
  <rect x="420" y="185" width="340" height="200" rx="8" fill="#1e293b" stroke="#475569"/>
  <text x="440" y="215" class="heading">Pending Actions (3)</text>
  <text x="735" y="215" text-anchor="end" fill="#eab308" class="text-sm">Will sync when online</text>

  <!-- Queued items -->
  <rect x="435" y="230" width="310" height="40" rx="4" fill="#0f172a"/>
  <circle cx="455" cy="250" r="8" fill="#eab308" opacity="0.2"/>
  <text x="455" y="254" text-anchor="middle" fill="#eab308" font-size="12">⏳</text>
  <text x="475" y="246" class="text-md">Draft: "Service Worker Tips"</text>
  <text x="475" y="261" class="text-muted">Auto-saved 2 min ago</text>

  <rect x="435" y="280" width="310" height="40" rx="4" fill="#0f172a"/>
  <circle cx="455" cy="300" r="8" fill="#eab308" opacity="0.2"/>
  <text x="455" y="304" text-anchor="middle" fill="#eab308" font-size="12">⏳</text>
  <text x="475" y="296" class="text-md">Message to John Doe</text>
  <text x="475" y="311" class="text-muted">Queued for delivery</text>

  <rect x="435" y="330" width="310" height="40" rx="4" fill="#0f172a"/>
  <circle cx="455" cy="350" r="8" fill="#eab308" opacity="0.2"/>
  <text x="455" y="354" text-anchor="middle" fill="#eab308" font-size="12">⏳</text>
  <text x="475" y="346" class="text-md">Profile avatar update</text>
  <text x="475" y="361" class="text-muted">Waiting for connection</text>

  <!-- Service Worker Status -->
  <rect x="50" y="400" width="710" height="80" rx="8" fill="#1e293b" stroke="#475569"/>
  <text x="70" y="425" class="heading">Service Worker Status</text>

  <!-- Status indicators -->
  <rect x="70" y="440" width="150" height="30" rx="4" fill="#22c55e" opacity="0.15"/>
  <text x="145" y="460" text-anchor="middle" fill="#22c55e" class="text-sm">✓ Installed</text>

  <rect x="235" y="440" width="150" height="30" rx="4" fill="#22c55e" opacity="0.15"/>
  <text x="310" y="460" text-anchor="middle" fill="#22c55e" class="text-sm">✓ Active</text>

  <rect x="400" y="440" width="170" height="30" rx="4" fill="#8b5cf6" opacity="0.15"/>
  <text x="485" y="460" text-anchor="middle" fill="#8b5cf6" class="text-sm">Cache: 45.2 MB</text>

  <rect x="585" y="440" width="160" height="30" rx="4" fill="#64748b" opacity="0.15"/>
  <text x="665" y="460" text-anchor="middle" class="text-muted">IndexedDB: 3 items</text>

  <!-- Install Prompt (for non-installed state) -->
  <rect x="50" y="495" width="710" height="65" rx="8" fill="#8b5cf6" opacity="0.1" stroke="#8b5cf6" stroke-dasharray="4"/>
  <text x="70" y="520" class="heading">Install ScriptHammer App</text>
  <text x="70" y="540" class="text-sm">Get faster access and offline support</text>
  <rect x="620" y="507" width="120" height="36" rx="6" fill="url(#accentGrad)"/>
  <text x="680" y="530" text-anchor="middle" fill="#fff" class="text-md">Install App</text>

  <!-- ==================== MOBILE VIEW ==================== -->
  <text x="917" y="48" text-anchor="middle" class="section-label">MOBILE - PWA</text>

  <!-- Phone Frame -->
  <rect x="820" y="55" width="195" height="422" rx="24" fill="#0f172a" stroke="#475569" stroke-width="2"/>
  <rect x="875" y="55" width="85" height="20" rx="10" fill="#0f172a"/>
  <rect x="826" y="61" width="183" height="410" rx="20" fill="#1e293b"/>

  <!-- Status Bar -->
  <text x="846" y="80" class="text-muted" font-size="9">9:41</text>
  <!-- Offline indicator in status bar -->
  <text x="890" y="80" fill="#eab308" font-size="9">✈️</text>
  <g transform="translate(970, 72)">
    <rect x="0" y="0" width="18" height="9" rx="2" stroke="#64748b" stroke-width="1" fill="none"/>
    <rect x="2" y="2" width="12" height="5" rx="1" fill="#64748b"/>
  </g>

  <!-- Mobile Offline Banner -->
  <rect x="826" y="90" width="183" height="28" fill="#78350f"/>
  <text x="846" y="108" fill="#fbbf24" font-size="9" font-weight="600">⚡ Offline Mode</text>
  <rect x="960" y="96" width="35" height="16" rx="8" fill="#7c3aed"/>
  <text x="977" y="107" text-anchor="middle" fill="#fff" font-size="8">3</text>

  <!-- Mobile Header -->
  <rect x="826" y="118" width="183" height="36" fill="#0f172a"/>
  <text x="846" y="141" class="heading" font-size="11">🔨 ScriptHammer</text>

  <!-- Mobile Cached Content -->
  <rect x="836" y="162" width="163" height="35" rx="4" fill="#0f172a"/>
  <circle cx="852" cy="179" r="6" fill="#22c55e" opacity="0.3"/>
  <text x="852" y="182" text-anchor="middle" fill="#22c55e" font-size="8">✓</text>
  <text x="866" y="176" class="text-sm" font-size="9">PWA Getting Started</text>
  <text x="866" y="188" class="text-muted" font-size="8">Cached</text>

  <rect x="836" y="202" width="163" height="35" rx="4" fill="#0f172a"/>
  <circle cx="852" cy="219" r="6" fill="#22c55e" opacity="0.3"/>
  <text x="852" y="222" text-anchor="middle" fill="#22c55e" font-size="8">✓</text>
  <text x="866" y="216" class="text-sm" font-size="9">Offline-First Apps</text>
  <text x="866" y="228" class="text-muted" font-size="8">Cached</text>

  <rect x="836" y="242" width="163" height="35" rx="4" fill="#0f172a"/>
  <circle cx="852" cy="259" r="6" fill="#eab308" opacity="0.3"/>
  <text x="852" y="262" text-anchor="middle" fill="#eab308" font-size="8">⏳</text>
  <text x="866" y="256" class="text-sm" font-size="9">Draft: SW Tips</text>
  <text x="866" y="268" class="text-muted" font-size="8">Pending sync</text>

  <!-- Mobile Storage Info -->
  <rect x="836" y="285" width="163" height="50" rx="4" fill="#0f172a" stroke="#475569"/>
  <text x="917" y="302" text-anchor="middle" class="text-sm" font-size="9">Storage Used</text>
  <!-- Progress bar -->
  <rect x="850" y="312" width="135" height="8" rx="4" fill="#334155"/>
  <rect x="850" y="312" width="80" height="8" rx="4" fill="url(#accentGrad)"/>
  <text x="917" y="330" text-anchor="middle" class="text-muted" font-size="8">45.2 MB / 100 MB</text>

  <!-- Mobile SW Status -->
  <rect x="836" y="345" width="80" height="30" rx="4" fill="#22c55e" opacity="0.15"/>
  <text x="876" y="364" text-anchor="middle" fill="#22c55e" font-size="8">SW Active</text>
  <rect x="920" y="345" width="79" height="30" rx="4" fill="#8b5cf6" opacity="0.15"/>
  <text x="959" y="364" text-anchor="middle" fill="#8b5cf6" font-size="8">v2.1.0</text>

  <!-- Mobile Connection Status -->
  <rect x="836" y="385" width="163" height="35" rx="4" fill="#0f172a" stroke="#475569"/>
  <text x="917" y="402" text-anchor="middle" class="text-muted" font-size="9">Waiting for connection...</text>
  <text x="917" y="415" text-anchor="middle" fill="#eab308" font-size="8">3 actions will sync automatically</text>

  <!-- Mobile Install Banner (bottom) -->
  <rect x="836" y="425" width="163" height="38" rx="6" fill="url(#accentGrad)"/>
  <text x="917" y="449" text-anchor="middle" fill="#fff" class="text-sm">Add to Home Screen</text>

  <!-- Phone Home Indicator -->
  <rect x="880" y="458" width="75" height="4" rx="2" fill="#475569"/>

  <!-- ==================== ANNOTATIONS ==================== -->
  <text x="30" y="590" class="section-label">SPECIFICATIONS</text>

  <rect x="30" y="600" width="275" height="80" rx="4" fill="#8b5cf6" opacity="0.08" stroke="#8b5cf6" stroke-width="1" stroke-dasharray="4"/>
  <text x="42" y="618" class="annotation">FR-001: Service Worker registration</text>
  <text x="42" y="632" class="annotation">FR-002: Offline detection banner</text>
  <text x="42" y="646" class="annotation">FR-003: Cache static assets (App Shell)</text>
  <text x="42" y="660" class="annotation">FR-004: Cache dynamic content on visit</text>
  <text x="42" y="674" class="annotation">FR-005: Background sync for queued actions</text>

  <rect x="320" y="600" width="275" height="80" rx="4" fill="#8b5cf6" opacity="0.08" stroke="#8b5cf6" stroke-width="1" stroke-dasharray="4"/>
  <text x="332" y="618" class="annotation">FR-006: IndexedDB for offline data</text>
  <text x="332" y="632" class="annotation">FR-007: Queue pending actions (messages)</text>
  <text x="332" y="646" class="annotation">FR-008: Auto-sync when back online</text>
  <text x="332" y="660" class="annotation">FR-009: Cache status indicators</text>
  <text x="332" y="674" class="annotation">FR-010: Storage quota management</text>

  <rect x="610" y="600" width="275" height="80" rx="4" fill="#8b5cf6" opacity="0.08" stroke="#8b5cf6" stroke-width="1" stroke-dasharray="4"/>
  <text x="622" y="618" class="annotation">FR-011: Web App Manifest (PWA)</text>
  <text x="622" y="632" class="annotation">FR-012: Install prompt (A2HS)</text>
  <text x="622" y="646" class="annotation">FR-013: Splash screen &amp; icons</text>
  <text x="622" y="660" class="annotation">FR-014: Push notifications (optional)</text>
  <text x="622" y="674" class="annotation">FR-015: Update available notification</text>

  <rect x="900" y="600" width="275" height="80" rx="4" fill="#8b5cf6" opacity="0.08" stroke="#8b5cf6" stroke-width="1" stroke-dasharray="4"/>
  <text x="912" y="618" class="annotation">NFR-001: Offline within 3s of load</text>
  <text x="912" y="632" class="annotation">NFR-002: Cache &lt;100MB storage</text>
  <text x="912" y="646" class="annotation">NFR-003: Lighthouse PWA score &gt;90</text>
  <text x="912" y="660" class="annotation">SC-001: Graceful degradation offline</text>
  <text x="912" y="674" class="annotation">SC-002: 44px min touch targets</text>

</svg>
