<svg xmlns="http://www.w3.org/2000/svg" viewBox="0 0 1200 800" width="1200" height="800">
  <defs>
    <linearGradient id="bgGrad" x1="0%" y1="0%" x2="100%" y2="100%">
      <stop offset="0%" style="stop-color:#0f172a"/>
      <stop offset="100%" style="stop-color:#1e293b"/>
    </linearGradient>
    <linearGradient id="accentGrad" x1="0%" y1="0%" x2="100%" y2="0%">
      <stop offset="0%" style="stop-color:#8b5cf6"/>
      <stop offset="100%" style="stop-color:#d946ef"/>
    </linearGradient>
    <style>
      .page-title { fill: #64748b; font-family: system-ui, sans-serif; font-size: 14px; font-weight: 600; letter-spacing: 1px; }
      .section-label { fill: #8b5cf6; font-family: monospace; font-size: 11px; }
      .heading { fill: #ffffff; font-family: system-ui, sans-serif; font-size: 14px; font-weight: bold; }
      .heading-lg { fill: #ffffff; font-family: system-ui, sans-serif; font-size: 18px; font-weight: bold; }
      .text-md { fill: #cbd5e1; font-family: system-ui, sans-serif; font-size: 12px; }
      .text-sm { fill: #94a3b8; font-family: system-ui, sans-serif; font-size: 10px; }
      .text-muted { fill: #64748b; font-family: system-ui, sans-serif; font-size: 10px; }
      .annotation { fill: #8b5cf6; font-family: monospace; font-size: 9px; }
    </style>
  </defs>

  <!-- Background -->
  <rect width="1200" height="800" fill="url(#bgGrad)"/>
  <g opacity="0.03">
    <pattern id="grid" width="40" height="40" patternUnits="userSpaceOnUse">
      <path d="M 40 0 L 0 0 0 40" fill="none" stroke="#fff" stroke-width="0.5"/>
    </pattern>
    <rect width="1200" height="800" fill="url(#grid)"/>
  </g>
  <rect x="0" y="0" width="1200" height="3" fill="url(#accentGrad)"/>

  <!-- Page Title -->
  <text x="600" y="28" text-anchor="middle" class="page-title">PUBLIC LANDING - FEATURES SECTION</text>

  <!-- ==================== DESKTOP VIEW ==================== -->
  <text x="405" y="48" text-anchor="middle" class="section-label">DESKTOP</text>

  <!-- Desktop Browser Frame -->
  <rect x="30" y="55" width="750" height="520" rx="8" fill="#1e293b" stroke="#475569" stroke-width="1"/>
  <rect x="30" y="55" width="750" height="32" rx="8" fill="#334155"/>
  <circle cx="52" cy="71" r="6" fill="#ef4444" opacity="0.8"/>
  <circle cx="72" cy="71" r="6" fill="#eab308" opacity="0.8"/>
  <circle cx="92" cy="71" r="6" fill="#22c55e" opacity="0.8"/>
  <rect x="120" y="63" width="400" height="16" rx="4" fill="#1e293b"/>
  <text x="320" y="75" text-anchor="middle" class="text-muted">scripthammer.com/features</text>

  <!-- Desktop Content -->
  <rect x="30" y="87" width="750" height="488" fill="#0f172a"/>

  <!-- Section Header -->
  <text x="405" y="120" text-anchor="middle" fill="#8b5cf6" class="text-sm" letter-spacing="2">WHY CHOOSE US</text>
  <text x="405" y="148" text-anchor="middle" class="heading-lg">Everything you need to build</text>
  <text x="405" y="172" text-anchor="middle" class="heading-lg">modern applications</text>

  <!-- Feature Cards Grid - Row 1 -->
  <!-- Card 1: Real-time -->
  <rect x="65" y="195" width="220" height="130" rx="6" fill="#1e293b" stroke="#475569"/>
  <circle cx="100" cy="235" r="18" fill="#8b5cf6" opacity="0.2"/>
  <text x="100" y="241" text-anchor="middle" fill="#8b5cf6" font-size="14">⚡</text>
  <text x="130" y="232" class="heading" font-size="12">Real-time Sync</text>
  <text x="130" y="252" class="text-sm">Changes sync instantly</text>
  <text x="130" y="267" class="text-sm">across all devices.</text>

  <!-- Card 2: Encryption -->
  <rect x="300" y="195" width="220" height="130" rx="6" fill="#1e293b" stroke="#475569"/>
  <circle cx="335" cy="235" r="18" fill="#22c55e" opacity="0.2"/>
  <text x="335" y="241" text-anchor="middle" fill="#22c55e" font-size="14">🔒</text>
  <text x="365" y="232" class="heading" font-size="12">E2E Encryption</text>
  <text x="365" y="252" class="text-sm">Your data is encrypted</text>
  <text x="365" y="267" class="text-sm">before leaving device.</text>

  <!-- Card 3: Offline -->
  <rect x="535" y="195" width="220" height="130" rx="6" fill="#1e293b" stroke="#475569"/>
  <circle cx="570" cy="235" r="18" fill="#0891b2" opacity="0.2"/>
  <text x="570" y="241" text-anchor="middle" fill="#0891b2" font-size="14">📱</text>
  <text x="600" y="232" class="heading" font-size="12">Offline First</text>
  <text x="600" y="252" class="text-sm">Works without internet.</text>
  <text x="600" y="267" class="text-sm">Syncs when back online.</text>

  <!-- Feature Cards Grid - Row 2 -->
  <!-- Card 4: Accessibility -->
  <rect x="65" y="340" width="220" height="130" rx="6" fill="#1e293b" stroke="#475569"/>
  <circle cx="100" cy="380" r="18" fill="#d946ef" opacity="0.2"/>
  <text x="100" y="386" text-anchor="middle" fill="#d946ef" font-size="14">♿</text>
  <text x="130" y="377" class="heading" font-size="12">Fully Accessible</text>
  <text x="130" y="397" class="text-sm">WCAG 2.1 AA compliant.</text>
  <text x="130" y="412" class="text-sm">Keyboard + screen readers.</text>

  <!-- Card 5: Performance -->
  <rect x="300" y="340" width="220" height="130" rx="6" fill="#1e293b" stroke="#475569"/>
  <circle cx="335" cy="380" r="18" fill="#eab308" opacity="0.2"/>
  <text x="335" y="386" text-anchor="middle" fill="#eab308" font-size="14">🚀</text>
  <text x="365" y="377" class="heading" font-size="12">Blazing Fast</text>
  <text x="365" y="397" class="text-sm">90+ Lighthouse scores.</text>
  <text x="365" y="412" class="text-sm">Optimized performance.</text>

  <!-- Card 6: Privacy -->
  <rect x="535" y="340" width="220" height="130" rx="6" fill="#1e293b" stroke="#475569"/>
  <circle cx="570" cy="380" r="18" fill="#ef4444" opacity="0.2"/>
  <text x="570" y="386" text-anchor="middle" fill="#ef4444" font-size="14">🛡️</text>
  <text x="600" y="377" class="heading" font-size="12">Privacy First</text>
  <text x="600" y="397" class="text-sm">GDPR compliant. No</text>
  <text x="600" y="412" class="text-sm">tracking without consent.</text>

  <!-- CTA Button -->
  <rect x="305" y="495" width="200" height="40" rx="6" fill="url(#accentGrad)"/>
  <text x="405" y="521" text-anchor="middle" fill="#fff" class="heading">Explore All Features</text>

  <!-- ==================== MOBILE VIEW ==================== -->
  <text x="917" y="48" text-anchor="middle" class="section-label">MOBILE</text>

  <!-- Phone Frame -->
  <rect x="820" y="55" width="195" height="422" rx="24" fill="#0f172a" stroke="#475569" stroke-width="2"/>
  <rect x="875" y="55" width="85" height="20" rx="10" fill="#0f172a"/>
  <rect x="826" y="61" width="183" height="410" rx="20" fill="#1e293b"/>

  <!-- Status Bar -->
  <text x="846" y="80" class="text-muted" font-size="9">9:41</text>
  <g transform="translate(970, 72)">
    <rect x="0" y="0" width="18" height="9" rx="2" stroke="#64748b" stroke-width="1" fill="none"/>
    <rect x="2" y="2" width="12" height="5" rx="1" fill="#64748b"/>
  </g>

  <!-- Mobile Header -->
  <rect x="826" y="90" width="183" height="44" fill="#0f172a"/>
  <text x="846" y="117" fill="#94a3b8" font-size="14">←</text>
  <text x="917" y="117" text-anchor="middle" class="heading">Features</text>

  <!-- Mobile Section Header -->
  <text x="917" y="155" text-anchor="middle" fill="#8b5cf6" font-size="9" letter-spacing="1">WHY CHOOSE US</text>
  <text x="917" y="175" text-anchor="middle" class="heading" font-size="12">Everything you need</text>

  <!-- Mobile Stacked Cards -->
  <!-- Card 1 -->
  <rect x="846" y="190" width="143" height="55" rx="4" fill="#0f172a" stroke="#475569"/>
  <circle cx="868" cy="218" r="12" fill="#8b5cf6" opacity="0.2"/>
  <text x="868" y="222" text-anchor="middle" fill="#8b5cf6" font-size="10">⚡</text>
  <text x="890" y="212" class="heading" font-size="9">Real-time Sync</text>
  <text x="890" y="226" class="text-muted" font-size="8">Instant sync across devices</text>

  <!-- Card 2 -->
  <rect x="846" y="252" width="143" height="55" rx="4" fill="#0f172a" stroke="#475569"/>
  <circle cx="868" cy="280" r="12" fill="#22c55e" opacity="0.2"/>
  <text x="868" y="284" text-anchor="middle" fill="#22c55e" font-size="10">🔒</text>
  <text x="890" y="274" class="heading" font-size="9">E2E Encryption</text>
  <text x="890" y="288" class="text-muted" font-size="8">Encrypted before leaving</text>

  <!-- Card 3 -->
  <rect x="846" y="314" width="143" height="55" rx="4" fill="#0f172a" stroke="#475569"/>
  <circle cx="868" cy="342" r="12" fill="#0891b2" opacity="0.2"/>
  <text x="868" y="346" text-anchor="middle" fill="#0891b2" font-size="10">📱</text>
  <text x="890" y="336" class="heading" font-size="9">Offline First</text>
  <text x="890" y="350" class="text-muted" font-size="8">Works without internet</text>

  <!-- Card 4 -->
  <rect x="846" y="376" width="143" height="55" rx="4" fill="#0f172a" stroke="#475569"/>
  <circle cx="868" cy="404" r="12" fill="#d946ef" opacity="0.2"/>
  <text x="868" y="408" text-anchor="middle" fill="#d946ef" font-size="10">♿</text>
  <text x="890" y="398" class="heading" font-size="9">Fully Accessible</text>
  <text x="890" y="412" class="text-muted" font-size="8">WCAG 2.1 AA compliant</text>

  <!-- Scroll Indicator -->
  <rect x="975" y="200" width="4" height="60" rx="2" fill="#334155"/>
  <rect x="975" y="200" width="4" height="25" rx="2" fill="#8b5cf6"/>

  <!-- Phone Home Indicator -->
  <rect x="880" y="458" width="75" height="4" rx="2" fill="#475569"/>

  <!-- ==================== ANNOTATIONS ==================== -->
  <text x="30" y="590" class="section-label">SPECIFICATIONS</text>

  <rect x="30" y="600" width="275" height="80" rx="4" fill="#8b5cf6" opacity="0.08" stroke="#8b5cf6" stroke-width="1" stroke-dasharray="4"/>
  <text x="42" y="618" class="annotation">Constitution I: Component Structure</text>
  <text x="42" y="632" class="annotation">FeatureCard is reusable component</text>
  <text x="42" y="646" class="annotation">5-file pattern (index, component, test,</text>
  <text x="42" y="660" class="annotation">stories, a11y test)</text>
  <text x="42" y="674" class="annotation">Storybook stories for each variant</text>

  <rect x="320" y="600" width="275" height="80" rx="4" fill="#8b5cf6" opacity="0.08" stroke="#8b5cf6" stroke-width="1" stroke-dasharray="4"/>
  <text x="332" y="618" class="annotation">Constitution V: Progressive Enhancement</text>
  <text x="332" y="632" class="annotation">Desktop: 3-column grid layout</text>
  <text x="332" y="646" class="annotation">Mobile: Stacked single column</text>
  <text x="332" y="660" class="annotation">PWA capabilities highlighted</text>
  <text x="332" y="674" class="annotation">Accessibility as selling point</text>

  <rect x="610" y="600" width="275" height="80" rx="4" fill="#8b5cf6" opacity="0.08" stroke="#8b5cf6" stroke-width="1" stroke-dasharray="4"/>
  <text x="622" y="618" class="annotation">Constitution VI: Privacy &amp; Compliance</text>
  <text x="622" y="632" class="annotation">Privacy as feature not afterthought</text>
  <text x="622" y="646" class="annotation">E2E encryption messaging</text>
  <text x="622" y="660" class="annotation">GDPR compliance highlighted</text>
  <text x="622" y="674" class="annotation">No tracking by default</text>

  <rect x="900" y="600" width="275" height="80" rx="4" fill="#8b5cf6" opacity="0.08" stroke="#8b5cf6" stroke-width="1" stroke-dasharray="4"/>
  <text x="912" y="618" class="annotation">Responsive breakpoints:</text>
  <text x="912" y="632" class="annotation">Mobile: &lt;768px (stacked)</text>
  <text x="912" y="646" class="annotation">Tablet: 768-1024px (2-col)</text>
  <text x="912" y="660" class="annotation">Desktop: &gt;1024px (3-col)</text>
  <text x="912" y="674" class="annotation">CSS Grid with auto-fit</text>

</svg>
