<svg xmlns="http://www.w3.org/2000/svg" viewBox="0 0 1200 800" width="1200" height="800">
  <defs>
    <linearGradient id="bgGrad" x1="0%" y1="0%" x2="100%" y2="100%">
      <stop offset="0%" style="stop-color:#0f172a"/>
      <stop offset="100%" style="stop-color:#1e293b"/>
    </linearGradient>
    <linearGradient id="accentGrad" x1="0%" y1="0%" x2="100%" y2="0%">
      <stop offset="0%" style="stop-color:#8b5cf6"/>
      <stop offset="100%" style="stop-color:#d946ef"/>
    </linearGradient>
    <linearGradient id="heroGrad" x1="0%" y1="0%" x2="100%" y2="100%">
      <stop offset="0%" style="stop-color:#8b5cf6" stop-opacity="0.15"/>
      <stop offset="100%" style="stop-color:#d946ef" stop-opacity="0.08"/>
    </linearGradient>
    <style>
      .page-title { fill: #64748b; font-family: system-ui, sans-serif; font-size: 14px; font-weight: 600; letter-spacing: 1px; }
      .section-label { fill: #8b5cf6; font-family: monospace; font-size: 11px; }
      .heading { fill: #ffffff; font-family: system-ui, sans-serif; font-size: 14px; font-weight: bold; }
      .heading-lg { fill: #ffffff; font-family: system-ui, sans-serif; font-size: 20px; font-weight: bold; }
      .heading-xl { fill: #ffffff; font-family: system-ui, sans-serif; font-size: 24px; font-weight: bold; }
      .text-md { fill: #cbd5e1; font-family: system-ui, sans-serif; font-size: 12px; }
      .text-sm { fill: #94a3b8; font-family: system-ui, sans-serif; font-size: 10px; }
      .text-muted { fill: #64748b; font-family: system-ui, sans-serif; font-size: 10px; }
      .annotation { fill: #8b5cf6; font-family: monospace; font-size: 9px; }
    </style>
  </defs>

  <!-- Background -->
  <rect width="1200" height="800" fill="url(#bgGrad)"/>
  <g opacity="0.03">
    <pattern id="grid" width="40" height="40" patternUnits="userSpaceOnUse">
      <path d="M 40 0 L 0 0 0 40" fill="none" stroke="#fff" stroke-width="0.5"/>
    </pattern>
    <rect width="1200" height="800" fill="url(#grid)"/>
  </g>
  <rect x="0" y="0" width="1200" height="3" fill="url(#accentGrad)"/>

  <!-- Page Title -->
  <text x="600" y="28" text-anchor="middle" class="page-title">PUBLIC LANDING - HERO SECTION</text>

  <!-- ==================== DESKTOP VIEW ==================== -->
  <text x="405" y="48" text-anchor="middle" class="section-label">DESKTOP</text>

  <!-- Desktop Browser Frame -->
  <rect x="30" y="55" width="750" height="520" rx="8" fill="#1e293b" stroke="#475569" stroke-width="1"/>
  <rect x="30" y="55" width="750" height="32" rx="8" fill="#334155"/>
  <circle cx="52" cy="71" r="6" fill="#ef4444" opacity="0.8"/>
  <circle cx="72" cy="71" r="6" fill="#eab308" opacity="0.8"/>
  <circle cx="92" cy="71" r="6" fill="#22c55e" opacity="0.8"/>
  <rect x="120" y="63" width="400" height="16" rx="4" fill="#1e293b"/>
  <text x="320" y="75" text-anchor="middle" class="text-muted">scripthammer.com</text>

  <!-- Desktop Content -->
  <rect x="30" y="87" width="750" height="488" fill="#0f172a"/>

  <!-- Navigation Bar -->
  <rect x="30" y="87" width="750" height="50" fill="#0f172a"/>

  <!-- Logo -->
  <text x="70" y="118" fill="#8b5cf6" font-size="20" font-weight="bold">⚒</text>
  <text x="92" y="118" class="heading">ScriptHammer</text>

  <!-- Nav Links -->
  <text x="300" y="118" text-anchor="middle" class="text-md">Features</text>
  <text x="380" y="118" text-anchor="middle" class="text-md">Blog</text>
  <text x="460" y="118" text-anchor="middle" class="text-md">Pricing</text>

  <!-- Auth Buttons -->
  <rect x="620" y="100" width="60" height="28" rx="4" fill="transparent" stroke="#475569"/>
  <text x="650" y="118" text-anchor="middle" class="text-md">Sign In</text>
  <rect x="690" y="100" width="60" height="28" rx="4" fill="url(#accentGrad)"/>
  <text x="720" y="118" text-anchor="middle" fill="#fff" class="text-md">Sign Up</text>

  <!-- Hero Section -->
  <rect x="30" y="137" width="750" height="320" fill="url(#heroGrad)"/>

  <!-- Hero Content Left -->
  <text x="70" y="200" class="heading-xl">Build Better Apps,</text>
  <text x="70" y="232" class="heading-xl">Ship Faster</text>

  <text x="70" y="270" class="text-md">The modern development platform with real-time</text>
  <text x="70" y="288" class="text-md">collaboration, end-to-end encryption, and</text>
  <text x="70" y="306" class="text-md">seamless offline support.</text>

  <!-- CTA Button -->
  <rect x="70" y="330" width="150" height="44" rx="8" fill="url(#accentGrad)"/>
  <text x="145" y="358" text-anchor="middle" fill="#fff" class="heading">Get Started Free</text>

  <!-- Hero Illustration Placeholder -->
  <rect x="420" y="165" width="320" height="230" rx="8" fill="#334155" stroke="#475569"/>
  <text x="580" y="285" text-anchor="middle" fill="#8b5cf6" font-size="36">⚒</text>
  <text x="580" y="315" text-anchor="middle" class="text-muted">Animated Logo Preview</text>

  <!-- Feature Badges -->
  <rect x="70" y="395" width="80" height="26" rx="4" fill="#22c55e" opacity="0.15"/>
  <text x="110" y="413" text-anchor="middle" fill="#22c55e" class="text-sm">Offline</text>

  <rect x="160" y="395" width="90" height="26" rx="4" fill="#8b5cf6" opacity="0.15"/>
  <text x="205" y="413" text-anchor="middle" fill="#8b5cf6" class="text-sm">Encrypted</text>

  <rect x="260" y="395" width="90" height="26" rx="4" fill="#0891b2" opacity="0.15"/>
  <text x="305" y="413" text-anchor="middle" fill="#0891b2" class="text-sm">Real-time</text>

  <!-- Scroll Indicator -->
  <text x="405" y="450" text-anchor="middle" class="text-muted">Scroll to explore</text>
  <text x="405" y="470" text-anchor="middle" fill="#64748b" font-size="16">↓</text>

  <!-- Footer Preview -->
  <rect x="30" y="527" width="750" height="48" fill="#0f172a" opacity="0.5"/>
  <text x="405" y="558" text-anchor="middle" class="text-muted">© 2025 ScriptHammer • Privacy • Terms</text>

  <!-- ==================== MOBILE VIEW ==================== -->
  <text x="917" y="48" text-anchor="middle" class="section-label">MOBILE</text>

  <!-- Phone Frame -->
  <rect x="820" y="55" width="195" height="422" rx="24" fill="#0f172a" stroke="#475569" stroke-width="2"/>
  <rect x="875" y="55" width="85" height="20" rx="10" fill="#0f172a"/>
  <rect x="826" y="61" width="183" height="410" rx="20" fill="#1e293b"/>

  <!-- Status Bar -->
  <text x="846" y="80" class="text-muted" font-size="9">9:41</text>
  <g transform="translate(970, 72)">
    <rect x="0" y="0" width="18" height="9" rx="2" stroke="#64748b" stroke-width="1" fill="none"/>
    <rect x="2" y="2" width="12" height="5" rx="1" fill="#64748b"/>
  </g>

  <!-- Mobile Nav -->
  <rect x="826" y="90" width="183" height="44" fill="#0f172a"/>
  <text x="855" y="118" fill="#8b5cf6" font-size="16">⚒</text>
  <text x="875" y="117" class="heading" font-size="11">ScriptHammer</text>

  <!-- Hamburger Menu -->
  <rect x="978" y="106" width="16" height="2" fill="#94a3b8"/>
  <rect x="978" y="111" width="16" height="2" fill="#94a3b8"/>
  <rect x="978" y="116" width="16" height="2" fill="#94a3b8"/>

  <!-- Mobile Hero -->
  <rect x="826" y="134" width="183" height="240" fill="url(#heroGrad)"/>

  <!-- Mobile Headline -->
  <text x="917" y="175" text-anchor="middle" fill="#fff" font-size="16" font-weight="bold">Build Better Apps,</text>
  <text x="917" y="195" text-anchor="middle" fill="#fff" font-size="16" font-weight="bold">Ship Faster</text>

  <text x="917" y="225" text-anchor="middle" class="text-sm">The modern development</text>
  <text x="917" y="240" text-anchor="middle" class="text-sm">platform with real-time</text>
  <text x="917" y="255" text-anchor="middle" class="text-sm">collaboration.</text>

  <!-- Mobile CTA -->
  <rect x="856" y="275" width="123" height="38" rx="6" fill="url(#accentGrad)"/>
  <text x="917" y="299" text-anchor="middle" fill="#fff" class="text-md">Get Started Free</text>

  <!-- Mobile Feature Badges -->
  <rect x="846" y="330" width="50" height="20" rx="3" fill="#22c55e" opacity="0.15"/>
  <text x="871" y="344" text-anchor="middle" fill="#22c55e" font-size="8">Offline</text>

  <rect x="902" y="330" width="58" height="20" rx="3" fill="#8b5cf6" opacity="0.15"/>
  <text x="931" y="344" text-anchor="middle" fill="#8b5cf6" font-size="8">Encrypted</text>

  <rect x="966" y="330" width="56" height="20" rx="3" fill="#0891b2" opacity="0.15"/>
  <text x="994" y="344" text-anchor="middle" fill="#0891b2" font-size="8">Real-time</text>

  <!-- Mobile Bottom Nav -->
  <rect x="826" y="420" width="183" height="45" fill="#0f172a"/>
  <text x="866" y="448" text-anchor="middle" class="text-muted" font-size="8">Home</text>
  <text x="917" y="448" text-anchor="middle" class="text-muted" font-size="8">Blog</text>
  <text x="968" y="448" text-anchor="middle" class="text-muted" font-size="8">Sign In</text>

  <!-- Phone Home Indicator -->
  <rect x="880" y="458" width="75" height="4" rx="2" fill="#475569"/>

  <!-- ==================== ANNOTATIONS ==================== -->
  <text x="30" y="590" class="section-label">SPECIFICATIONS</text>

  <rect x="30" y="600" width="275" height="80" rx="4" fill="#8b5cf6" opacity="0.08" stroke="#8b5cf6" stroke-width="1" stroke-dasharray="4"/>
  <text x="42" y="618" class="annotation">Constitution V: Progressive Enhancement</text>
  <text x="42" y="632" class="annotation">Mobile-first responsive design</text>
  <text x="42" y="646" class="annotation">Lighthouse Performance: 90+ target</text>
  <text x="42" y="660" class="annotation">FCP under 2s, TTI under 3.5s</text>
  <text x="42" y="674" class="annotation">No auth required for public pages</text>

  <rect x="320" y="600" width="275" height="80" rx="4" fill="#8b5cf6" opacity="0.08" stroke="#8b5cf6" stroke-width="1" stroke-dasharray="4"/>
  <text x="332" y="618" class="annotation">Clear value proposition above fold</text>
  <text x="332" y="632" class="annotation">Single CTA: Get Started Free</text>
  <text x="332" y="646" class="annotation">Logo animation shows brand identity</text>
  <text x="332" y="660" class="annotation">Feature badges highlight benefits</text>
  <text x="332" y="674" class="annotation">No fake social proof until real users</text>

  <rect x="610" y="600" width="275" height="80" rx="4" fill="#8b5cf6" opacity="0.08" stroke="#8b5cf6" stroke-width="1" stroke-dasharray="4"/>
  <text x="622" y="618" class="annotation">Constitution VI: Privacy First</text>
  <text x="622" y="632" class="annotation">No tracking without consent</text>
  <text x="622" y="646" class="annotation">Cookie consent before analytics</text>
  <text x="622" y="660" class="annotation">See 110-cookie-consent spec</text>
  <text x="622" y="674" class="annotation">GDPR compliance required</text>

  <rect x="900" y="600" width="275" height="80" rx="4" fill="#8b5cf6" opacity="0.08" stroke="#8b5cf6" stroke-width="1" stroke-dasharray="4"/>
  <text x="912" y="618" class="annotation">A11y: 44px min touch targets</text>
  <text x="912" y="632" class="annotation">A11y: WCAG 2.1 AA compliant</text>
  <text x="912" y="646" class="annotation">A11y: Keyboard navigation enabled</text>
  <text x="912" y="660" class="annotation">A11y: Skip to main content link</text>
  <text x="912" y="674" class="annotation">A11y: Semantic heading structure</text>

</svg>
