<svg xmlns="http://www.w3.org/2000/svg" viewBox="0 0 1200 800" width="1200" height="800">
  <defs>
    <linearGradient id="bgGrad" x1="0%" y1="0%" x2="100%" y2="100%">
      <stop offset="0%" style="stop-color:#0f172a"/>
      <stop offset="100%" style="stop-color:#1e293b"/>
    </linearGradient>
    <linearGradient id="accentGrad" x1="0%" y1="0%" x2="100%" y2="0%">
      <stop offset="0%" style="stop-color:#8b5cf6"/>
      <stop offset="100%" style="stop-color:#d946ef"/>
    </linearGradient>
    <style>
      .heading { fill: #ffffff; font-family: system-ui, sans-serif; font-size: 14px; font-weight: bold; }
      .text-sm { fill: #94a3b8; font-family: system-ui, sans-serif; font-size: 10px; }
      .text-md { fill: #cbd5e1; font-family: system-ui, sans-serif; font-size: 12px; }
      .text-muted { fill: #64748b; font-family: system-ui, sans-serif; font-size: 10px; }
      .annotation { fill: #8b5cf6; font-family: monospace; font-size: 10px; }
    </style>
  </defs>

  <!-- Background -->
  <rect width="1200" height="800" fill="url(#bgGrad)"/>
  <g opacity="0.05">
    <pattern id="dots" width="30" height="30" patternUnits="userSpaceOnUse">
      <circle cx="15" cy="15" r="1" fill="#fff"/>
    </pattern>
    <rect width="1200" height="800" fill="url(#dots)"/>
  </g>
  <rect x="0" y="0" width="1200" height="3" fill="url(#accentGrad)"/>

  <!-- Title -->
  <text x="600" y="30" text-anchor="middle" font-family="system-ui, sans-serif" font-size="14" font-weight="600" fill="#64748b" letter-spacing="1">PUBLIC BLOG - NO AUTH REQUIRED</text>

  <!-- ========================================== -->
  <!-- Desktop Blog Layout -->
  <!-- ========================================== -->
  <text x="400" y="60" text-anchor="middle" class="annotation" font-size="12">DESKTOP BLOG LIST</text>

  <rect x="50" y="80" width="700" height="560" rx="8" fill="#1e293b" stroke="#475569"/>

  <!-- Navigation bar -->
  <rect x="50" y="80" width="700" height="50" rx="8" fill="#0f172a"/>
  <circle cx="85" cy="105" r="14" fill="url(#accentGrad)"/>
  <text x="110" y="110" class="heading" font-size="12">ScriptHammer</text>
  <text x="300" y="110" class="text-md">Features</text>
  <text x="370" y="110" fill="#8b5cf6" class="text-md">Blog</text>
  <text x="430" y="110" class="text-md">Pricing</text>
  <rect x="620" y="90" width="50" height="28" rx="4" fill="transparent" stroke="#475569"/>
  <text x="645" y="108" text-anchor="middle" class="text-sm">Sign In</text>
  <rect x="680" y="90" width="55" height="28" rx="4" fill="#8b5cf6"/>
  <text x="707" y="108" text-anchor="middle" fill="white" class="text-sm">Sign Up</text>

  <!-- Blog header -->
  <text x="400" y="165" text-anchor="middle" fill="white" font-family="system-ui, sans-serif" font-size="20" font-weight="bold">Blog</text>
  <text x="400" y="188" text-anchor="middle" class="text-md">Insights, tutorials, and updates from our team</text>

  <!-- Search and filter -->
  <rect x="200" y="205" width="300" height="36" rx="6" fill="#0f172a" stroke="#475569"/>
  <text x="220" y="228" class="text-muted">Search articles...</text>

  <rect x="520" y="205" width="100" height="36" rx="6" fill="#0f172a" stroke="#475569"/>
  <text x="545" y="228" class="text-md">All Topics ▼</text>

  <!-- Featured post -->
  <rect x="80" y="260" width="640" height="140" rx="8" fill="#0f172a" stroke="#8b5cf6"/>
  <rect x="80" y="260" width="200" height="140" rx="8" fill="#334155"/>
  <text x="180" y="335" text-anchor="middle" class="text-muted">Featured Image</text>

  <rect x="295" y="275" width="60" height="20" rx="4" fill="#8b5cf6" opacity="0.2"/>
  <text x="325" y="289" text-anchor="middle" fill="#8b5cf6" class="text-sm">Featured</text>

  <text x="295" y="320" fill="white" font-family="system-ui, sans-serif" font-size="14" font-weight="bold">Getting Started with Real-time</text>
  <text x="295" y="340" fill="white" font-family="system-ui, sans-serif" font-size="14" font-weight="bold">Collaboration</text>
  <text x="295" y="365" class="text-sm">Learn how to build real-time features with our</text>
  <text x="295" y="380" class="text-sm">comprehensive guide to WebSocket integration...</text>

  <!-- Post metadata -->
  <circle cx="310" y="395" r="10" fill="#8b5cf6"/>
  <text x="310" y="399" text-anchor="middle" fill="white" font-size="8">JD</text>
  <text x="330" y="399" class="text-muted">John Doe · Dec 20, 2025 · 8 min read</text>

  <!-- Blog post grid -->
  <!-- Post 1 -->
  <rect x="80" y="420" width="200" height="180" rx="6" fill="#0f172a" stroke="#475569"/>
  <rect x="80" y="420" width="200" height="80" rx="6" fill="#334155"/>
  <text x="180" y="465" text-anchor="middle" class="text-muted">Image</text>

  <rect x="90" y="510" width="70" height="16" rx="3" fill="#22c55e" opacity="0.2"/>
  <text x="125" y="521" text-anchor="middle" fill="#22c55e" class="text-sm">Tutorial</text>

  <text x="90" y="545" class="heading" font-size="11">Offline-First PWA</text>
  <text x="90" y="560" class="heading" font-size="11">Development</text>
  <text x="90" y="580" class="text-muted">Dec 18, 2025 · 5 min</text>

  <!-- Post 2 -->
  <rect x="300" y="420" width="200" height="180" rx="6" fill="#0f172a" stroke="#475569"/>
  <rect x="300" y="420" width="200" height="80" rx="6" fill="#334155"/>
  <text x="400" y="465" text-anchor="middle" class="text-muted">Image</text>

  <rect x="310" y="510" width="70" height="16" rx="3" fill="#8b5cf6" opacity="0.2"/>
  <text x="345" y="521" text-anchor="middle" fill="#8b5cf6" class="text-sm">Security</text>

  <text x="310" y="545" class="heading" font-size="11">Understanding E2E</text>
  <text x="310" y="560" class="heading" font-size="11">Encryption</text>
  <text x="310" y="580" class="text-muted">Dec 15, 2025 · 10 min</text>

  <!-- Post 3 -->
  <rect x="520" y="420" width="200" height="180" rx="6" fill="#0f172a" stroke="#475569"/>
  <rect x="520" y="420" width="200" height="80" rx="6" fill="#334155"/>
  <text x="620" y="465" text-anchor="middle" class="text-muted">Image</text>

  <rect x="530" y="510" width="80" height="16" rx="3" fill="#0891b2" opacity="0.2"/>
  <text x="570" y="521" text-anchor="middle" fill="#0891b2" class="text-sm">Accessibility</text>

  <text x="530" y="545" class="heading" font-size="11">WCAG 2.1 AA</text>
  <text x="530" y="560" class="heading" font-size="11">Compliance Guide</text>
  <text x="530" y="580" class="text-muted">Dec 12, 2025 · 7 min</text>

  <!-- Pagination -->
  <rect x="330" y="615" width="32" height="32" rx="4" fill="#8b5cf6"/>
  <text x="346" y="636" text-anchor="middle" fill="white" class="text-md">1</text>
  <rect x="370" y="615" width="32" height="32" rx="4" fill="#0f172a" stroke="#475569"/>
  <text x="386" y="636" text-anchor="middle" class="text-md">2</text>
  <rect x="410" y="615" width="32" height="32" rx="4" fill="#0f172a" stroke="#475569"/>
  <text x="426" y="636" text-anchor="middle" class="text-md">3</text>
  <text x="470" y="636" class="text-muted">...</text>
  <rect x="500" y="615" width="32" height="32" rx="4" fill="#0f172a" stroke="#475569"/>
  <text x="516" y="636" text-anchor="middle" class="text-md">→</text>

  <!-- ========================================== -->
  <!-- Mobile Blog Layout -->
  <!-- ========================================== -->
  <text x="950" y="60" text-anchor="middle" class="annotation" font-size="12">MOBILE BLOG LIST</text>

  <!-- Phone frame -->
  <rect x="800" y="80" width="320" height="600" rx="20" fill="#1e293b" stroke="#475569" stroke-width="2"/>

  <!-- Status bar -->
  <rect x="800" y="80" width="320" height="28" rx="20" fill="#0f172a"/>
  <text x="960" y="98" text-anchor="middle" class="text-sm">9:41</text>

  <!-- Mobile header -->
  <rect x="800" y="108" width="320" height="45" fill="#0f172a"/>
  <text x="960" y="136" text-anchor="middle" class="heading">Blog</text>
  <text x="1090" y="136" text-anchor="end" fill="#8b5cf6" class="text-sm">🔍</text>

  <!-- Category pills -->
  <rect x="820" y="163" width="50" height="24" rx="12" fill="#8b5cf6"/>
  <text x="845" y="179" text-anchor="middle" fill="white" class="text-sm">All</text>
  <rect x="880" y="163" width="65" height="24" rx="12" fill="#0f172a" stroke="#475569"/>
  <text x="912" y="179" text-anchor="middle" class="text-sm">Tutorial</text>
  <rect x="955" y="163" width="65" height="24" rx="12" fill="#0f172a" stroke="#475569"/>
  <text x="987" y="179" text-anchor="middle" class="text-sm">Security</text>
  <rect x="1030" y="163" width="80" height="24" rx="12" fill="#0f172a" stroke="#475569"/>
  <text x="1070" y="179" text-anchor="middle" class="text-sm">Updates</text>

  <!-- Mobile post cards -->
  <!-- Post 1 -->
  <rect x="820" y="200" width="280" height="110" rx="6" fill="#0f172a" stroke="#475569"/>
  <rect x="820" y="200" width="100" height="110" rx="6" fill="#334155"/>
  <text x="870" y="260" text-anchor="middle" class="text-muted" font-size="8">Image</text>

  <rect x="930" y="210" width="50" height="16" rx="3" fill="#8b5cf6" opacity="0.2"/>
  <text x="955" y="221" text-anchor="middle" fill="#8b5cf6" font-size="8">Featured</text>

  <text x="930" y="245" fill="white" font-family="system-ui, sans-serif" font-size="11" font-weight="bold">Getting Started with</text>
  <text x="930" y="260" fill="white" font-family="system-ui, sans-serif" font-size="11" font-weight="bold">Real-time Collaboration</text>
  <text x="930" y="285" class="text-muted">Dec 20 · 8 min read</text>

  <!-- Post 2 -->
  <rect x="820" y="320" width="280" height="100" rx="6" fill="#0f172a" stroke="#475569"/>
  <rect x="820" y="320" width="100" height="100" rx="6" fill="#334155"/>

  <rect x="930" y="330" width="55" height="16" rx="3" fill="#22c55e" opacity="0.2"/>
  <text x="957" y="341" text-anchor="middle" fill="#22c55e" font-size="8">Tutorial</text>

  <text x="930" y="365" fill="white" font-family="system-ui, sans-serif" font-size="11" font-weight="bold">Offline-First PWA</text>
  <text x="930" y="380" fill="white" font-family="system-ui, sans-serif" font-size="11" font-weight="bold">Development</text>
  <text x="930" y="405" class="text-muted">Dec 18 · 5 min read</text>

  <!-- Post 3 -->
  <rect x="820" y="430" width="280" height="100" rx="6" fill="#0f172a" stroke="#475569"/>
  <rect x="820" y="430" width="100" height="100" rx="6" fill="#334155"/>

  <rect x="930" y="440" width="55" height="16" rx="3" fill="#8b5cf6" opacity="0.2"/>
  <text x="957" y="451" text-anchor="middle" fill="#8b5cf6" font-size="8">Security</text>

  <text x="930" y="475" fill="white" font-family="system-ui, sans-serif" font-size="11" font-weight="bold">Understanding E2E</text>
  <text x="930" y="490" fill="white" font-family="system-ui, sans-serif" font-size="11" font-weight="bold">Encryption</text>
  <text x="930" y="515" class="text-muted">Dec 15 · 10 min read</text>

  <!-- Post 4 (partial) -->
  <rect x="820" y="540" width="280" height="60" rx="6" fill="#0f172a" stroke="#475569"/>
  <rect x="820" y="540" width="100" height="60" rx="6" fill="#334155"/>
  <text x="930" y="575" fill="white" font-family="system-ui, sans-serif" font-size="11" font-weight="bold">WCAG 2.1 AA Guide</text>

  <!-- Scroll indicator -->
  <rect x="1105" y="350" width="4" height="100" rx="2" fill="#334155"/>
  <rect x="1105" y="350" width="4" height="40" rx="2" fill="#8b5cf6"/>

  <!-- Bottom nav -->
  <rect x="800" y="630" width="320" height="50" rx="20" fill="#0f172a"/>
  <text x="870" y="660" text-anchor="middle" class="text-muted">Home</text>
  <text x="960" y="660" text-anchor="middle" fill="#8b5cf6" class="text-sm">Blog</text>
  <text x="1050" y="660" text-anchor="middle" class="text-muted">Sign In</text>

  <!-- ========================================== -->
  <!-- Annotations -->
  <!-- ========================================== -->
  <rect x="50" y="660" width="280" height="90" rx="4" fill="#8b5cf6" opacity="0.1" stroke="#8b5cf6" stroke-dasharray="4"/>
  <text x="60" y="680" class="annotation">021-unified-blog-content spec:</text>
  <text x="60" y="695" class="annotation">FR-001: Single source of truth</text>
  <text x="60" y="710" class="annotation">FR-003: Offline editing capabilities</text>
  <text x="60" y="725" class="annotation">FR-013: Cached for performance</text>
  <text x="60" y="740" class="annotation">50+ existing blog posts</text>

  <rect x="350" y="660" width="250" height="90" rx="4" fill="#8b5cf6" opacity="0.1" stroke="#8b5cf6" stroke-dasharray="4"/>
  <text x="360" y="680" class="annotation">Public access - no auth required</text>
  <text x="360" y="695" class="annotation">SEO optimized (020-seo spec)</text>
  <text x="360" y="710" class="annotation">Syntax highlighting for code</text>
  <text x="360" y="725" class="annotation">Auto-generated TOC (optional)</text>
  <text x="360" y="740" class="annotation">Category/tag filtering</text>

  <rect x="620" y="660" width="250" height="90" rx="4" fill="#8b5cf6" opacity="0.1" stroke="#8b5cf6" stroke-dasharray="4"/>
  <text x="630" y="680" class="annotation">Constitution Performance:</text>
  <text x="630" y="695" class="annotation">FCP under 2 seconds</text>
  <text x="630" y="710" class="annotation">Incremental builds (FR-008)</text>
  <text x="630" y="725" class="annotation">Image optimization</text>
  <text x="630" y="740" class="annotation">Lazy loading for post list</text>

  <rect x="890" y="700" width="230" height="55" rx="4" fill="#8b5cf6" opacity="0.1" stroke="#8b5cf6" stroke-dasharray="4"/>
  <text x="900" y="720" class="annotation">No cookie consent modal until</text>
  <text x="900" y="735" class="annotation">user interaction (Constitution VI)</text>
  <text x="900" y="750" class="annotation">Analytics only after consent</text>

</svg>
