<svg xmlns="http://www.w3.org/2000/svg" viewBox="0 0 1200 800" width="1200" height="800">
  <defs>
    <linearGradient id="bgGrad" x1="0%" y1="0%" x2="100%" y2="100%">
      <stop offset="0%" style="stop-color:#0f172a"/>
      <stop offset="100%" style="stop-color:#1e293b"/>
    </linearGradient>
    <linearGradient id="accentGrad" x1="0%" y1="0%" x2="100%" y2="0%">
      <stop offset="0%" style="stop-color:#8b5cf6"/>
      <stop offset="100%" style="stop-color:#d946ef"/>
    </linearGradient>
    <style>
      .page-title { fill: #64748b; font-family: system-ui, sans-serif; font-size: 14px; font-weight: 600; letter-spacing: 1px; }
      .section-label { fill: #8b5cf6; font-family: monospace; font-size: 11px; }
      .heading { fill: #ffffff; font-family: system-ui, sans-serif; font-size: 14px; font-weight: bold; }
      .heading-lg { fill: #ffffff; font-family: system-ui, sans-serif; font-size: 18px; font-weight: bold; }
      .text-md { fill: #cbd5e1; font-family: system-ui, sans-serif; font-size: 12px; }
      .text-sm { fill: #94a3b8; font-family: system-ui, sans-serif; font-size: 10px; }
      .text-muted { fill: #64748b; font-family: system-ui, sans-serif; font-size: 10px; }
      .annotation { fill: #8b5cf6; font-family: monospace; font-size: 9px; }
    </style>
  </defs>

  <!-- Background -->
  <rect width="1200" height="800" fill="url(#bgGrad)"/>
  <g opacity="0.03">
    <pattern id="grid" width="40" height="40" patternUnits="userSpaceOnUse">
      <path d="M 40 0 L 0 0 0 40" fill="none" stroke="#fff" stroke-width="0.5"/>
    </pattern>
    <rect width="1200" height="800" fill="url(#grid)"/>
  </g>
  <rect x="0" y="0" width="1200" height="3" fill="url(#accentGrad)"/>

  <!-- Page Title -->
  <text x="600" y="28" text-anchor="middle" class="page-title">PUBLIC LANDING - BLOG LIST</text>

  <!-- ==================== DESKTOP VIEW ==================== -->
  <text x="405" y="48" text-anchor="middle" class="section-label">DESKTOP</text>

  <!-- Desktop Browser Frame -->
  <rect x="30" y="55" width="750" height="520" rx="8" fill="#1e293b" stroke="#475569" stroke-width="1"/>
  <rect x="30" y="55" width="750" height="32" rx="8" fill="#334155"/>
  <circle cx="52" cy="71" r="6" fill="#ef4444" opacity="0.8"/>
  <circle cx="72" cy="71" r="6" fill="#eab308" opacity="0.8"/>
  <circle cx="92" cy="71" r="6" fill="#22c55e" opacity="0.8"/>
  <rect x="120" y="63" width="400" height="16" rx="4" fill="#1e293b"/>
  <text x="320" y="75" text-anchor="middle" class="text-muted">scripthammer.com/blog</text>

  <!-- Desktop Content -->
  <rect x="30" y="87" width="750" height="488" fill="#0f172a"/>

  <!-- Navigation -->
  <rect x="30" y="87" width="750" height="44" fill="#0f172a"/>
  <text x="70" y="115" fill="#8b5cf6" font-size="18">⚒</text>
  <text x="95" y="115" class="heading" font-size="12">ScriptHammer</text>
  <text x="280" y="115" class="text-md">Features</text>
  <text x="350" y="115" fill="#8b5cf6" class="text-md">Blog</text>
  <text x="405" y="115" class="text-md">Pricing</text>
  <rect x="640" y="100" width="55" height="26" rx="4" fill="transparent" stroke="#475569"/>
  <text x="667" y="117" text-anchor="middle" class="text-sm">Sign In</text>
  <rect x="703" y="100" width="55" height="26" rx="4" fill="url(#accentGrad)"/>
  <text x="730" y="117" text-anchor="middle" fill="#fff" class="text-sm">Sign Up</text>

  <!-- Blog Header -->
  <text x="405" y="158" text-anchor="middle" class="heading-lg">Blog</text>
  <text x="405" y="178" text-anchor="middle" class="text-sm">Insights, tutorials, and updates from our team</text>

  <!-- Search -->
  <rect x="180" y="195" width="280" height="32" rx="6" fill="#1e293b" stroke="#475569"/>
  <text x="200" y="216" class="text-muted">Search articles...</text>
  <rect x="480" y="195" width="100" height="32" rx="6" fill="#1e293b" stroke="#475569"/>
  <text x="530" y="216" text-anchor="middle" class="text-md">All Topics</text>

  <!-- Featured Post -->
  <rect x="65" y="240" width="680" height="110" rx="6" fill="#1e293b" stroke="#8b5cf6"/>
  <rect x="65" y="240" width="180" height="110" rx="6" fill="#334155"/>
  <text x="155" y="300" text-anchor="middle" class="text-muted">Featured Image</text>

  <rect x="260" y="252" width="55" height="18" rx="4" fill="#8b5cf6" opacity="0.2"/>
  <text x="287" y="264" text-anchor="middle" fill="#8b5cf6" font-size="9">Featured</text>

  <text x="260" y="288" class="heading" font-size="12">Getting Started with Real-time Collaboration</text>
  <text x="260" y="306" class="text-sm">Learn how to build real-time features with our comprehensive guide...</text>
  <text x="260" y="340" class="text-muted">John Doe · Dec 20, 2025 · 8 min read</text>

  <!-- Post Grid Row 1 -->
  <!-- Post 1 -->
  <rect x="65" y="365" width="215" height="145" rx="6" fill="#1e293b" stroke="#475569"/>
  <rect x="65" y="365" width="215" height="70" rx="6" fill="#334155"/>
  <rect x="75" y="445" width="55" height="16" rx="3" fill="#22c55e" opacity="0.2"/>
  <text x="102" y="456" text-anchor="middle" fill="#22c55e" font-size="8">Tutorial</text>
  <text x="75" y="475" class="heading" font-size="10">Offline-First PWA Development</text>
  <text x="75" y="500" class="text-muted">Dec 18, 2025 · 5 min</text>

  <!-- Post 2 -->
  <rect x="298" y="365" width="215" height="145" rx="6" fill="#1e293b" stroke="#475569"/>
  <rect x="298" y="365" width="215" height="70" rx="6" fill="#334155"/>
  <rect x="308" y="445" width="55" height="16" rx="3" fill="#8b5cf6" opacity="0.2"/>
  <text x="335" y="456" text-anchor="middle" fill="#8b5cf6" font-size="8">Security</text>
  <text x="308" y="475" class="heading" font-size="10">Understanding E2E Encryption</text>
  <text x="308" y="500" class="text-muted">Dec 15, 2025 · 10 min</text>

  <!-- Post 3 -->
  <rect x="530" y="365" width="215" height="145" rx="6" fill="#1e293b" stroke="#475569"/>
  <rect x="530" y="365" width="215" height="70" rx="6" fill="#334155"/>
  <rect x="540" y="445" width="65" height="16" rx="3" fill="#0891b2" opacity="0.2"/>
  <text x="572" y="456" text-anchor="middle" fill="#0891b2" font-size="8">Accessibility</text>
  <text x="540" y="475" class="heading" font-size="10">WCAG 2.1 AA Compliance Guide</text>
  <text x="540" y="500" class="text-muted">Dec 12, 2025 · 7 min</text>

  <!-- Pagination -->
  <rect x="340" y="525" width="28" height="28" rx="4" fill="#8b5cf6"/>
  <text x="354" y="544" text-anchor="middle" fill="#fff" class="text-md">1</text>
  <rect x="375" y="525" width="28" height="28" rx="4" fill="#1e293b" stroke="#475569"/>
  <text x="389" y="544" text-anchor="middle" class="text-md">2</text>
  <rect x="410" y="525" width="28" height="28" rx="4" fill="#1e293b" stroke="#475569"/>
  <text x="424" y="544" text-anchor="middle" class="text-md">3</text>
  <rect x="445" y="525" width="28" height="28" rx="4" fill="#1e293b" stroke="#475569"/>
  <text x="459" y="544" text-anchor="middle" class="text-md">→</text>

  <!-- ==================== MOBILE VIEW ==================== -->
  <text x="917" y="48" text-anchor="middle" class="section-label">MOBILE</text>

  <!-- Phone Frame -->
  <rect x="820" y="55" width="195" height="422" rx="24" fill="#0f172a" stroke="#475569" stroke-width="2"/>
  <rect x="875" y="55" width="85" height="20" rx="10" fill="#0f172a"/>
  <rect x="826" y="61" width="183" height="410" rx="20" fill="#1e293b"/>

  <!-- Status Bar -->
  <text x="846" y="80" class="text-muted" font-size="9">9:41</text>
  <g transform="translate(970, 72)">
    <rect x="0" y="0" width="18" height="9" rx="2" stroke="#64748b" stroke-width="1" fill="none"/>
    <rect x="2" y="2" width="12" height="5" rx="1" fill="#64748b"/>
  </g>

  <!-- Mobile Header -->
  <rect x="826" y="90" width="183" height="40" fill="#0f172a"/>
  <text x="917" y="115" text-anchor="middle" class="heading">Blog</text>
  <text x="985" y="115" fill="#8b5cf6" font-size="12">🔍</text>

  <!-- Category Pills -->
  <rect x="846" y="140" width="35" height="20" rx="10" fill="#8b5cf6"/>
  <text x="863" y="154" text-anchor="middle" fill="#fff" font-size="8">All</text>
  <rect x="886" y="140" width="50" height="20" rx="10" fill="#1e293b" stroke="#475569"/>
  <text x="911" y="154" text-anchor="middle" class="text-muted" font-size="8">Tutorial</text>
  <rect x="941" y="140" width="50" height="20" rx="10" fill="#1e293b" stroke="#475569"/>
  <text x="966" y="154" text-anchor="middle" class="text-muted" font-size="8">Security</text>

  <!-- Mobile Post Cards -->
  <!-- Post 1 -->
  <rect x="846" y="170" width="143" height="80" rx="4" fill="#0f172a" stroke="#475569"/>
  <rect x="846" y="170" width="50" height="80" rx="4" fill="#334155"/>
  <rect x="902" y="178" width="40" height="14" rx="3" fill="#8b5cf6" opacity="0.2"/>
  <text x="922" y="188" text-anchor="middle" fill="#8b5cf6" font-size="7">Featured</text>
  <text x="902" y="206" class="heading" font-size="8">Getting Started with</text>
  <text x="902" y="218" class="heading" font-size="8">Real-time Collaboration</text>
  <text x="902" y="240" class="text-muted" font-size="7">Dec 20 · 8 min</text>

  <!-- Post 2 -->
  <rect x="846" y="258" width="143" height="70" rx="4" fill="#0f172a" stroke="#475569"/>
  <rect x="846" y="258" width="50" height="70" rx="4" fill="#334155"/>
  <rect x="902" y="266" width="40" height="14" rx="3" fill="#22c55e" opacity="0.2"/>
  <text x="922" y="276" text-anchor="middle" fill="#22c55e" font-size="7">Tutorial</text>
  <text x="902" y="294" class="heading" font-size="8">Offline-First PWA</text>
  <text x="902" y="306" class="heading" font-size="8">Development</text>
  <text x="902" y="320" class="text-muted" font-size="7">Dec 18 · 5 min</text>

  <!-- Post 3 -->
  <rect x="846" y="336" width="143" height="70" rx="4" fill="#0f172a" stroke="#475569"/>
  <rect x="846" y="336" width="50" height="70" rx="4" fill="#334155"/>
  <rect x="902" y="344" width="40" height="14" rx="3" fill="#8b5cf6" opacity="0.2"/>
  <text x="922" y="354" text-anchor="middle" fill="#8b5cf6" font-size="7">Security</text>
  <text x="902" y="372" class="heading" font-size="8">Understanding E2E</text>
  <text x="902" y="384" class="heading" font-size="8">Encryption</text>
  <text x="902" y="398" class="text-muted" font-size="7">Dec 15 · 10 min</text>

  <!-- Post 4 (partial) -->
  <rect x="846" y="414" width="143" height="40" rx="4" fill="#0f172a" stroke="#475569"/>
  <rect x="846" y="414" width="50" height="40" rx="4" fill="#334155"/>
  <text x="902" y="438" class="heading" font-size="8">WCAG 2.1 Guide</text>

  <!-- Scroll Indicator -->
  <rect x="975" y="260" width="4" height="80" rx="2" fill="#334155"/>
  <rect x="975" y="260" width="4" height="30" rx="2" fill="#8b5cf6"/>

  <!-- Phone Home Indicator -->
  <rect x="880" y="458" width="75" height="4" rx="2" fill="#475569"/>

  <!-- ==================== ANNOTATIONS ==================== -->
  <text x="30" y="590" class="section-label">SPECIFICATIONS</text>

  <rect x="30" y="600" width="275" height="80" rx="4" fill="#8b5cf6" opacity="0.08" stroke="#8b5cf6" stroke-width="1" stroke-dasharray="4"/>
  <text x="42" y="618" class="annotation">Spec 051-unified-blog-content:</text>
  <text x="42" y="632" class="annotation">FR-001: Single source of truth</text>
  <text x="42" y="646" class="annotation">FR-003: Offline editing capabilities</text>
  <text x="42" y="660" class="annotation">FR-013: Cached for performance</text>
  <text x="42" y="674" class="annotation">50+ existing blog posts supported</text>

  <rect x="320" y="600" width="275" height="80" rx="4" fill="#8b5cf6" opacity="0.08" stroke="#8b5cf6" stroke-width="1" stroke-dasharray="4"/>
  <text x="332" y="618" class="annotation">Public access - no auth required</text>
  <text x="332" y="632" class="annotation">SEO optimized (spec 052-seo)</text>
  <text x="332" y="646" class="annotation">Syntax highlighting for code blocks</text>
  <text x="332" y="660" class="annotation">Auto-generated TOC (optional)</text>
  <text x="332" y="674" class="annotation">Category/tag filtering</text>

  <rect x="610" y="600" width="275" height="80" rx="4" fill="#8b5cf6" opacity="0.08" stroke="#8b5cf6" stroke-width="1" stroke-dasharray="4"/>
  <text x="622" y="618" class="annotation">Constitution Performance:</text>
  <text x="622" y="632" class="annotation">FCP under 2 seconds</text>
  <text x="622" y="646" class="annotation">Incremental builds (FR-008)</text>
  <text x="622" y="660" class="annotation">Image optimization / lazy loading</text>
  <text x="622" y="674" class="annotation">Pagination for long lists</text>

  <rect x="900" y="600" width="275" height="80" rx="4" fill="#8b5cf6" opacity="0.08" stroke="#8b5cf6" stroke-width="1" stroke-dasharray="4"/>
  <text x="912" y="618" class="annotation">Constitution VI: Privacy First</text>
  <text x="912" y="632" class="annotation">No cookie consent until interaction</text>
  <text x="912" y="646" class="annotation">Analytics only after consent</text>
  <text x="912" y="660" class="annotation">See 110-cookie-consent spec</text>
  <text x="912" y="674" class="annotation">See 111-google-analytics spec</text>

</svg>
